<svg width="142" height="142" viewBox="0 0 142 142" fill="none" xmlns="http://www.w3.org/2000/svg">
<rect width="142" height="142" rx="11" fill="#F2F2F2"/>
<path d="M13.5262 101.209L82.5262 64.0844C83.1924 63.726 84 64.2085 84 64.9651V77.7015C84 78.0695 83.7979 78.4077 83.4738 78.5821L14.4738 115.707C13.8076 116.065 13 115.583 13 114.826V102.09C13 101.722 13.2021 101.384 13.5262 101.209Z" fill="#6FCF97" stroke="#4F4F4F"/>
<path d="M13.5262 41.2906L82.5262 78.4156C83.1924 78.774 84 78.2915 84 77.5349V64.7985C84 64.4305 83.7979 64.0923 83.4738 63.9179L14.4738 26.793C13.8076 26.4345 13 26.9171 13 27.6736V40.41C13 40.778 13.2021 41.1163 13.5262 41.2906Z" fill="#219653" stroke="#4F4F4F"/>
<path d="M91 103.5H129C129.276 103.5 129.5 103.724 129.5 104V116C129.5 116.276 129.276 116.5 129 116.5H91C90.7239 116.5 90.5 116.276 90.5 116V104C90.5 103.724 90.7239 103.5 91 103.5Z" fill="#27AE60" stroke="#4F4F4F"/>
<path d="M121.5 42C121.5 48.9036 115.904 54.5 109 54.5C102.096 54.5 96.5 48.9036 96.5 42C96.5 35.0964 102.096 29.5 109 29.5C115.904 29.5 121.5 35.0964 121.5 42Z" fill="#F02828" stroke="#4F4F4F"/>
</svg>
