<svg width="142" height="142" viewBox="0 0 142 142" fill="none" xmlns="http://www.w3.org/2000/svg">
<path d="M13.5379 43.7803L82.5379 79.738C83.2036 80.085 84 79.602 84 78.8512V56.7985C84 56.4305 83.7979 56.0923 83.4738 55.9179L14.4738 18.793C13.8076 18.4345 13 18.9171 13 19.6736V42.8935C13 43.2662 13.2073 43.608 13.5379 43.7803Z" fill="#219653" stroke="#F2F2F2" stroke-width="3"/>
<path d="M13.5379 91.7197L82.5379 55.762C83.2036 55.415 84 55.898 84 56.6488V78.7015C84 79.0695 83.7979 79.4077 83.4738 79.5821L14.4738 116.707C13.8076 117.065 13 116.583 13 115.826V92.6065C13 92.2338 13.2073 91.892 13.5379 91.7197Z" fill="#219653" stroke="#F2F2F2" stroke-width="3"/>
<path d="M93 102.5H127C127.828 102.5 128.5 103.172 128.5 104V115C128.5 115.828 127.828 116.5 127 116.5H93C92.1716 116.5 91.5 115.828 91.5 115V104C91.5 103.172 92.1716 102.5 93 102.5Z" fill="#27AE60" stroke="#F2F2F2" stroke-width="3"/>
<path d="M122.5 36.5C122.5 43.6797 116.68 49.5 109.5 49.5C102.32 49.5 96.5 43.6797 96.5 36.5C96.5 29.3203 102.32 23.5 109.5 23.5C116.68 23.5 122.5 29.3203 122.5 36.5Z" fill="#F02828" stroke="#F2F2F2" stroke-width="3"/>
</svg>
