<svg width="119" height="102" viewBox="0 0 119 102" fill="none" xmlns="http://www.w3.org/2000/svg">
<path d="M2.53786 74.7197L71.5379 38.762C72.2036 38.415 73 38.898 73 39.6488V61.7015C73 62.0695 72.7979 62.4077 72.4738 62.5821L3.47381 99.707C2.80759 100.065 2 99.5829 2 98.8264V75.6065C2 75.2338 2.20731 74.892 2.53786 74.7197Z" fill="#6FCF97" stroke="#F2F2F2" stroke-width="3"/>
<path d="M2.53786 26.7803L71.5379 62.738C72.2036 63.085 73 62.602 73 61.8512V39.7985C73 39.4305 72.7979 39.0923 72.4738 38.9179L3.47381 1.79297C2.80759 1.43452 2 1.91707 2 2.6736V25.8935C2 26.2662 2.20731 26.608 2.53786 26.7803Z" fill="#219653" stroke="#F2F2F2" stroke-width="3"/>
<path d="M82 85.5H116C116.828 85.5 117.5 86.1716 117.5 87V98C117.5 98.8284 116.828 99.5 116 99.5H82C81.1716 99.5 80.5 98.8284 80.5 98V87C80.5 86.1716 81.1716 85.5 82 85.5Z" fill="#27AE60" stroke="#F2F2F2" stroke-width="3"/>
<path d="M111.5 19.5C111.5 26.6797 105.68 32.5 98.5 32.5C91.3203 32.5 85.5 26.6797 85.5 19.5C85.5 12.3203 91.3203 6.5 98.5 6.5C105.68 6.5 111.5 12.3203 111.5 19.5Z" fill="#F02828" stroke="#F2F2F2" stroke-width="3"/>
</svg>
