<?xml version="1.0" standalone="no"?>
<!DOCTYPE svg PUBLIC "-//W3C//DTD SVG 20010904//EN"
 "http://www.w3.org/TR/2001/REC-SVG-20010904/DTD/svg10.dtd">
<svg version="1.0" xmlns="http://www.w3.org/2000/svg"
 width="1224.000000pt" height="1224.000000pt" viewBox="0 0 1224.000000 1224.000000"
 preserveAspectRatio="xMidYMid meet">
<metadata>
Created by potrace 1.14, written by Peter Selinger 2001-2017
</metadata>
<g transform="translate(0.000000,1224.000000) scale(0.100000,-0.100000)"
fill="#000000" stroke="none">
<path d="M1700 10818 c-126 -19 -138 -29 -646 -536 -485 -485 -486 -486 -530
-607 -19 -54 -9 -199 17 -248 5 -10 7 -22 4 -27 -3 -5 1 -12 9 -17 8 -4 16
-14 18 -22 2 -8 36 -47 76 -88 40 -40 70 -78 67 -83 -4 -6 1 -7 11 -3 13 5 15
2 9 -18 -4 -16 -3 -20 3 -10 7 10 42 -20 146 -123 74 -74 134 -141 132 -148
-1 -7 -1 -10 1 -5 3 4 9 7 14 7 6 0 7 -4 4 -10 -3 -5 -1 -10 5 -10 17 0 79
-73 73 -84 -4 -5 -1 -6 5 -2 13 8 65 -38 55 -48 -4 -3 -2 -6 4 -6 14 0 93 -77
93 -91 0 -5 5 -7 10 -4 5 3 10 2 10 -4 0 -5 -3 -11 -7 -14 -5 -2 -2 -2 5 0 14
3 142 -122 142 -139 0 -5 5 -6 10 -3 6 3 10 -2 10 -11 0 -10 3 -15 6 -11 8 8
54 -38 54 -54 0 -7 3 -10 6 -7 9 9 115 -102 109 -113 -4 -5 -3 -9 2 -8 21 4
32 -3 38 -21 3 -11 11 -20 17 -20 15 0 77 -73 71 -84 -4 -5 -1 -6 5 -2 13 8
65 -38 55 -48 -4 -3 1 -6 10 -6 8 0 19 -9 22 -21 4 -11 9 -18 12 -15 7 6 53
-40 53 -53 0 -5 9 -13 20 -16 18 -6 25 -17 21 -38 -1 -5 3 -6 9 -2 11 7 130
-110 130 -127 0 -6 3 -9 6 -5 4 3 13 -1 22 -9 13 -14 13 -17 1 -25 -12 -8 -12
-10 1 -8 31 3 42 -1 37 -15 -4 -11 -1 -13 10 -9 13 5 15 2 10 -11 -4 -11 -3
-15 4 -10 11 7 49 -28 49 -46 0 -6 4 -8 10 -5 6 3 10 2 10 -4 0 -5 -3 -11 -7
-14 -5 -2 -2 -2 5 0 14 3 142 -122 142 -139 0 -5 4 -6 10 -3 6 3 10 -2 10 -11
0 -10 3 -15 6 -11 10 10 56 -42 48 -55 -4 -6 -3 -8 4 -4 11 7 154 -129 144
-138 -3 -3 2 -6 12 -6 9 0 14 -4 11 -10 -3 -5 -2 -10 3 -10 13 0 92 -77 92
-90 0 -5 5 -9 12 -7 6 1 17 -8 23 -20 7 -13 15 -20 18 -16 4 3 7 -1 7 -10 0
-9 5 -17 10 -17 13 0 90 -79 90 -93 0 -6 3 -8 6 -4 9 9 56 -42 49 -53 -4 -6
-3 -10 2 -9 21 4 32 -3 38 -22 4 -11 9 -18 12 -15 7 7 33 -19 33 -33 0 -6 7
-11 16 -11 8 0 12 -4 9 -10 -3 -5 0 -10 8 -10 16 0 58 -46 50 -54 -4 -3 -1 -6
5 -6 13 0 152 -137 152 -151 0 -5 5 -9 10 -9 15 0 60 -47 53 -54 -4 -3 1 -6
11 -6 9 0 14 -4 11 -10 -3 -5 -1 -10 5 -10 15 0 60 -46 53 -54 -4 -3 2 -6 11
-6 12 0 16 -5 12 -15 -3 -8 -2 -14 2 -14 26 4 17 -9 -49 -75 -51 -52 -76 -71
-82 -63 -6 8 -7 7 -4 -3 3 -9 -4 -26 -14 -39 -11 -13 -19 -21 -19 -17 0 3 -14
-9 -31 -27 -17 -17 -36 -31 -41 -29 -5 1 -7 -2 -4 -6 3 -5 -21 -35 -54 -66
-33 -32 -60 -62 -60 -67 0 -5 -6 -9 -12 -9 -7 -1 -26 -19 -43 -40 -16 -21 -33
-39 -37 -40 -10 0 -48 -38 -48 -47 -1 -5 -19 -21 -40 -38 -21 -16 -39 -33 -40
-36 0 -7 -111 -119 -119 -120 -3 -1 -46 -45 -96 -99 -49 -54 -92 -98 -96 -99
-4 -1 -209 -202 -209 -206 0 -3 -275 -275 -280 -276 -3 -1 -45 -45 -95 -99
-49 -54 -96 -98 -102 -99 -7 0 -13 -5 -13 -9 0 -12 -68 -82 -80 -82 -5 0 -10
-7 -10 -15 0 -8 -6 -15 -12 -16 -7 0 -35 -27 -63 -59 -27 -32 -56 -59 -62 -59
-7 -1 -13 -5 -13 -9 0 -9 -140 -152 -149 -152 -3 -1 -19 -19 -36 -40 -16 -21
-36 -39 -42 -40 -7 0 -13 -4 -13 -8 0 -7 -15 -24 -100 -107 -16 -16 -30 -33
-30 -37 0 -5 -7 -8 -15 -8 -8 0 -15 -4 -15 -8 0 -12 -68 -82 -80 -82 -5 0 -10
-7 -10 -15 0 -8 -6 -15 -12 -16 -7 0 -35 -27 -63 -59 -27 -32 -56 -59 -62 -59
-7 -1 -13 -5 -13 -9 0 -9 -140 -152 -149 -152 -3 -1 -19 -19 -36 -40 -16 -21
-33 -39 -38 -40 -7 0 -47 -37 -47 -44 0 -2 -31 -34 -68 -72 -38 -38 -78 -85
-89 -104 -48 -79 -67 -181 -51 -270 5 -25 10 -52 11 -61 2 -8 13 -31 25 -51
12 -19 22 -40 22 -47 0 -6 5 -11 10 -11 6 0 10 -4 10 -9 0 -6 50 -59 110 -120
61 -60 110 -115 110 -122 0 -7 3 -10 6 -6 8 7 74 -59 74 -74 0 -7 3 -10 6 -6
3 3 94 -82 201 -189 149 -148 194 -198 188 -212 -5 -13 -3 -14 6 -5 9 9 23 0
59 -37 26 -27 51 -46 54 -42 4 3 4 -2 0 -13 -4 -11 -4 -17 0 -13 10 9 67 -42
60 -54 -3 -5 -2 -7 3 -6 4 2 19 -5 33 -15 13 -9 20 -17 15 -17 -6 0 3 -7 19
-15 15 -8 35 -15 42 -15 8 0 14 -4 14 -10 0 -5 7 -10 16 -10 8 0 13 -4 9 -9
-3 -5 -1 -13 5 -16 6 -4 10 -3 9 2 -3 20 2 23 22 12 12 -6 52 -12 89 -13 36
-2 72 -6 80 -11 8 -5 11 -4 7 2 -10 16 18 24 33 10 10 -9 11 -9 6 0 -8 14 28
27 46 17 7 -4 10 -4 6 1 -8 8 71 63 119 85 13 5 23 12 23 15 0 4 -5 3 -10 0
-5 -3 -10 -1 -10 4 0 6 4 11 8 11 15 0 81 67 74 75 -4 5 1 5 11 2 10 -4 17 -1
17 6 0 17 86 97 95 89 4 -4 5 -1 3 7 -2 8 8 20 22 28 14 7 21 13 16 13 -5 0
-1 9 9 20 10 11 21 17 25 15 4 -3 11 6 14 20 4 14 12 25 19 25 7 0 19 9 27 19
7 11 18 17 23 14 6 -3 7 -2 4 3 -6 11 83 101 96 96 5 -1 6 2 3 7 -3 5 8 19 24
32 16 13 30 28 30 32 0 12 42 46 57 47 7 0 10 7 6 17 -3 10 -3 15 2 11 4 -4
29 16 55 44 32 34 51 48 60 43 9 -5 11 -4 6 4 -9 14 98 126 112 117 6 -4 8 3
4 16 -3 14 -2 19 6 14 7 -4 12 -2 12 3 0 6 5 11 11 11 5 0 7 -4 4 -10 -3 -5
-1 -10 5 -10 7 0 9 7 6 16 -7 18 79 111 98 106 6 -2 8 -1 4 3 -8 9 72 95 89
95 7 0 10 7 6 17 -3 10 -3 15 2 11 4 -4 28 15 53 42 25 28 52 50 59 50 8 0 11
5 8 10 -3 6 1 13 9 16 9 3 13 11 9 17 -4 6 0 8 10 4 10 -4 17 -1 17 6 1 15 35
57 47 57 5 0 15 9 23 19 7 11 17 18 22 15 5 -3 7 -1 6 4 -2 5 25 37 58 70 34
34 59 64 56 67 -3 3 2 5 10 5 9 0 19 7 22 16 3 9 12 14 20 11 9 -4 12 0 9 13
-3 12 2 20 16 25 12 3 21 11 21 16 0 5 6 9 14 9 8 0 18 5 22 12 4 7 3 8 -4 4
-7 -4 -12 -2 -12 3 0 6 4 11 9 11 12 0 119 108 113 115 -3 3 2 5 10 5 9 0 19
7 22 16 3 9 12 14 20 11 9 -4 12 0 9 13 -3 12 2 20 16 25 12 3 21 11 21 16 0
5 6 9 14 9 8 0 18 5 22 12 4 7 3 8 -4 4 -7 -4 -12 -2 -12 5 0 7 8 9 21 6 16
-4 18 -3 8 9 -9 11 -8 14 2 14 8 0 25 14 38 31 14 17 30 28 38 25 8 -4 11 -1
7 5 -7 13 35 61 47 53 5 -3 9 2 9 10 0 8 9 21 20 29 11 8 17 17 13 20 -3 4 1
7 9 7 9 0 19 7 22 16 3 9 12 14 20 11 10 -4 12 0 9 14 -3 10 0 19 6 19 6 0 32
21 57 48 25 26 50 46 55 45 5 -2 9 3 9 10 0 17 86 97 95 89 4 -4 5 -2 3 4 -2
7 23 37 55 68 31 31 57 61 57 66 0 6 4 10 9 10 11 0 9 -19 -3 -40 -7 -12 -6
-13 4 -3 8 7 15 23 17 35 4 27 31 58 50 58 8 0 12 4 9 9 -4 5 7 21 24 34 16
14 30 30 30 36 0 6 6 11 14 11 8 0 17 7 20 16 3 8 11 12 16 9 6 -4 9 -2 8 2
-2 5 12 24 30 42 28 29 35 31 50 20 15 -13 16 -12 3 4 -12 16 -11 20 8 38 12
11 26 17 33 13 6 -4 8 -3 5 2 -3 6 -1 16 4 24 7 12 11 13 18 2 7 -11 9 -10 14
3 4 9 3 13 -3 10 -6 -3 -10 -2 -10 4 0 16 50 50 65 45 23 -9 38 5 24 22 -9 11
-8 19 6 34 14 16 20 17 27 8 6 -10 8 -9 8 4 0 9 29 46 63 82 61 63 87 79 87
54 0 -6 3 -8 6 -5 4 4 2 12 -4 19 -7 9 -6 17 3 25 9 8 16 9 20 3 8 -13 25 -13
25 1 0 5 -4 7 -10 4 -5 -3 -10 1 -10 10 0 9 5 13 10 10 6 -3 10 -1 10 5 0 15
46 60 54 53 3 -4 6 1 6 10 0 9 3 16 8 14 4 -1 9 3 11 8 9 18 26 33 34 28 4 -3
3 -11 -3 -18 -8 -9 -6 -14 7 -20 16 -6 16 -8 -6 -26 -13 -10 -19 -19 -13 -19
6 0 17 7 25 15 17 16 28 10 20 -11 -3 -8 1 -14 8 -14 7 0 9 3 6 7 -4 3 -2 12
4 19 13 16 3 35 -18 32 -9 -2 -18 3 -20 10 -3 8 2 10 14 6 14 -5 15 -4 4 4
-20 14 -23 42 -4 42 9 0 13 -6 10 -14 -4 -10 -1 -13 9 -9 8 3 14 2 13 -3 -1
-5 -1 -16 0 -24 1 -13 2 -13 11 0 7 11 2 22 -15 40 -20 21 -21 27 -9 38 8 7
14 10 14 7 0 -3 6 0 14 7 8 7 13 15 11 18 -5 8 22 29 29 23 3 -4 6 1 6 9 0 11
8 15 24 14 27 -3 39 14 29 40 -5 14 -3 14 16 3 25 -16 27 -25 6 -33 -8 -3 -15
-13 -14 -23 0 -14 2 -15 6 -3 4 8 13 20 20 25 15 11 7 49 -8 39 -5 -3 -9 2 -9
11 0 9 5 13 10 10 6 -3 10 1 10 9 0 8 9 18 21 21 11 4 18 9 15 12 -10 10 19
31 30 22 7 -6 21 -5 35 1 23 10 23 10 -3 5 -20 -4 -28 -1 -28 9 0 9 9 13 24
12 27 -3 39 14 29 42 -5 14 -3 15 8 5 16 -16 29 -17 29 -2 0 5 -4 7 -10 4 -6
-3 -10 1 -10 10 0 9 5 13 10 10 6 -3 10 -1 10 5 0 10 49 65 51 58 7 -30 6 -39
-7 -34 -19 7 -18 4 6 -17 20 -17 20 -16 16 8 -3 14 0 25 5 25 5 0 9 5 9 11 0
5 -4 7 -10 4 -5 -3 -10 1 -10 10 0 9 5 13 10 10 6 -3 10 -1 10 5 0 16 126 141
134 133 3 -3 6 1 6 10 0 9 6 16 13 14 6 -1 11 3 10 8 -1 10 20 33 34 38 5 1 7
7 7 14 -1 6 5 9 14 5 11 -4 14 -1 9 11 -5 13 -1 15 22 11 17 -4 32 -1 36 6 5
9 1 10 -15 5 -16 -5 -21 -4 -18 6 3 8 13 13 22 13 12 -1 15 3 11 17 -5 14 -2
17 9 13 11 -4 16 -1 16 10 0 9 4 16 8 16 5 0 15 11 22 25 7 14 17 25 22 25 5
0 6 -4 3 -10 -3 -6 1 -7 10 -3 12 4 13 8 5 13 -7 4 -9 13 -5 20 5 8 13 6 28
-7 22 -18 22 -18 5 3 -25 29 -23 47 5 39 16 -5 18 -4 8 4 -12 7 -12 13 -3 24
7 7 8 18 4 22 -4 5 2 5 12 1 15 -5 16 -4 8 7 -7 8 -7 18 -2 27 6 8 10 27 10
41 0 14 3 29 6 32 8 8 8 117 0 137 -3 8 -7 26 -8 40 -2 14 -6 30 -11 35 -4 6
-28 41 -52 80 -25 38 -45 66 -45 62 0 -4 -15 7 -33 25 -18 18 -31 36 -29 41 2
4 -1 7 -7 7 -5 0 -887 877 -1959 1950 -1073 1072 -1972 1963 -1998 1979 -84
54 -176 74 -274 59z m3840 -5138 c0 -5 -7 -10 -16 -10 -8 0 -12 5 -9 10 3 6
10 10 16 10 5 0 9 -4 9 -10z m-160 -160 c0 -5 -7 -10 -16 -10 -8 0 -12 5 -9
10 3 6 10 10 16 10 5 0 9 -4 9 -10z m-120 -210 c0 -5 -2 -10 -4 -10 -3 0 -8 5
-11 10 -3 6 -1 10 4 10 6 0 11 -4 11 -10z m-405 -320 c3 -5 -1 -10 -9 -10 -9
0 -16 5 -16 10 0 6 4 10 9 10 6 0 13 -4 16 -10z"/>
<path d="M9410 10723 c0 -4 -37 -8 -83 -7 -45 0 -86 -2 -91 -5 -6 -2 -24 -5
-41 -7 -18 -1 -47 -5 -66 -10 -19 -4 -36 -8 -39 -9 -3 0 -11 -4 -17 -8 -8 -5
-13 -3 -13 4 0 8 -4 8 -12 1 -7 -6 -30 -13 -50 -17 -21 -4 -38 -11 -38 -17 0
-5 -4 -7 -9 -3 -5 3 -33 -4 -63 -15 -253 -99 -480 -262 -633 -455 -22 -27 -43
-51 -47 -53 -5 -2 -8 -10 -8 -18 0 -8 -4 -14 -8 -14 -5 0 -15 -12 -23 -27 -8
-16 -17 -30 -20 -33 -8 -6 -121 -218 -118 -222 1 -2 -6 -21 -16 -43 -9 -22
-18 -50 -18 -62 -1 -13 -5 -23 -8 -23 -7 0 -50 -187 -53 -233 -1 -18 -5 -37
-7 -43 -3 -5 -5 -46 -5 -91 1 -46 -3 -83 -7 -83 -5 0 -6 -4 -3 -9 3 -5 8 -40
11 -77 6 -74 10 -105 20 -172 8 -53 13 -75 16 -82 1 -3 3 -9 4 -15 2 -5 4 -13
5 -17 1 -5 4 -12 5 -18 1 -5 3 -11 5 -12 1 -2 3 -11 5 -21 2 -10 7 -26 11 -35
4 -9 8 -24 10 -32 2 -8 7 -23 12 -35 63 -134 100 -207 124 -242 15 -23 28 -46
28 -51 0 -6 3 -12 8 -14 4 -1 27 -30 52 -63 81 -107 218 -237 334 -315 84 -57
90 -60 109 -66 9 -4 17 -10 17 -15 0 -5 6 -9 13 -9 7 0 37 -13 67 -28 79 -40
210 -85 315 -107 11 -3 31 -7 45 -10 45 -10 207 -27 245 -26 57 1 215 11 231
15 12 2 39 7 60 10 58 10 152 34 219 58 58 20 265 116 275 127 3 3 17 12 32
20 15 8 37 22 47 33 11 10 24 18 30 18 5 0 11 3 13 8 2 4 26 25 53 47 103 82
231 222 285 311 13 21 27 41 31 44 23 16 150 290 153 327 0 13 5 23 10 23 5 0
7 3 4 6 -4 3 0 21 8 40 8 18 13 37 12 41 0 5 1 15 5 23 6 17 19 83 23 120 3
34 15 192 15 205 0 64 -15 240 -21 240 -1 0 -3 16 -5 35 -9 77 -75 277 -123
373 -20 40 -35 75 -34 80 1 4 -3 7 -8 7 -6 0 -16 12 -23 28 -45 103 -228 310
-362 412 -33 25 -61 48 -63 53 -2 4 -8 7 -14 7 -5 0 -28 13 -51 28 -35 24
-108 61 -242 124 -12 5 -27 10 -35 11 -8 2 -19 5 -25 8 -5 4 -23 10 -40 14
-40 11 -44 12 -52 15 -5 1 -12 3 -18 5 -5 1 -12 3 -15 4 -19 9 -150 27 -254
36 -38 3 -73 8 -77 11 -5 3 -9 2 -9 -3z"/>
<path d="M550 9321 c0 -6 4 -13 10 -16 6 -3 7 1 4 9 -7 18 -14 21 -14 7z"/>
<path d="M619 9268 c-5 -18 -6 -38 -1 -34 7 8 12 36 6 36 -2 0 -4 -1 -5 -2z"/>
<path d="M515 9251 c-3 -5 -2 -12 3 -15 5 -3 9 1 9 9 0 17 -3 19 -12 6z"/>
<path d="M655 9220 c-3 -5 -1 -10 4 -10 6 0 11 5 11 10 0 6 -2 10 -4 10 -3 0
-8 -4 -11 -10z"/>
<path d="M650 9180 c0 -5 5 -10 11 -10 5 0 7 5 4 10 -3 6 -8 10 -11 10 -2 0
-4 -4 -4 -10z"/>
<path d="M659 9108 c-5 -18 -6 -38 -1 -34 7 8 12 36 6 36 -2 0 -4 -1 -5 -2z"/>
<path d="M780 9085 c0 -2 6 -8 13 -14 10 -8 14 -7 14 2 0 8 -6 14 -14 14 -7 0
-13 -1 -13 -2z"/>
<path d="M750 8999 c0 -5 5 -7 10 -4 6 3 10 8 10 11 0 2 -4 4 -10 4 -5 0 -10
-5 -10 -11z"/>
<path d="M915 8961 c-3 -5 -2 -12 3 -15 5 -3 9 1 9 9 0 17 -3 19 -12 6z"/>
<path d="M959 8913 c-12 -16 -12 -17 2 -6 9 7 20 9 24 5 5 -4 5 -1 1 6 -9 16
-11 15 -27 -5z"/>
<path d="M846 8862 c-3 -5 1 -9 9 -9 8 0 12 4 9 9 -3 4 -7 8 -9 8 -2 0 -6 -4
-9 -8z"/>
<path d="M875 8840 c-3 -5 -1 -10 4 -10 6 0 11 5 11 10 0 6 -2 10 -4 10 -3 0
-8 -4 -11 -10z"/>
<path d="M910 8846 c0 -2 7 -7 16 -10 8 -3 12 -2 9 4 -6 10 -25 14 -25 6z"/>
<path d="M1016 8838 c3 -4 11 -5 19 -1 21 7 19 12 -4 10 -11 0 -18 -5 -15 -9z"/>
<path d="M1039 8753 c-13 -16 -12 -17 4 -4 16 13 21 21 13 21 -2 0 -10 -8 -17
-17z"/>
<path d="M1026 8718 c3 -5 10 -6 15 -3 13 9 11 12 -6 12 -8 0 -12 -4 -9 -9z"/>
<path d="M1055 8700 c3 -5 8 -10 11 -10 2 0 4 5 4 10 0 6 -5 10 -11 10 -5 0
-7 -4 -4 -10z"/>
<path d="M1095 8700 c3 -5 8 -10 11 -10 2 0 4 5 4 10 0 6 -5 10 -11 10 -5 0
-7 -4 -4 -10z"/>
<path d="M1056 8662 c-3 -4 4 -9 15 -9 23 -2 25 3 4 10 -8 4 -16 3 -19 -1z"/>
<path d="M1154 8649 c-3 -6 -2 -15 3 -20 5 -5 9 -1 9 11 0 23 -2 24 -12 9z"/>
<path d="M1237 8635 c-4 -8 -3 -16 1 -19 4 -3 9 4 9 15 2 23 -3 25 -10 4z"/>
<path d="M1313 8575 c0 -8 4 -12 9 -9 5 3 6 10 3 15 -9 13 -12 11 -12 -6z"/>
<path d="M1253 8551 c0 -11 5 -18 9 -15 4 3 5 11 1 19 -7 21 -12 19 -10 -4z"/>
<path d="M1175 8539 c-3 -4 2 -6 10 -5 21 3 28 13 10 13 -9 0 -18 -4 -20 -8z"/>
<path d="M1213 8495 c0 -8 4 -12 9 -9 5 3 6 10 3 15 -9 13 -12 11 -12 -6z"/>
<path d="M1250 8499 c0 -5 5 -7 10 -4 6 3 10 8 10 11 0 2 -4 4 -10 4 -5 0 -10
-5 -10 -11z"/>
<path d="M1235 8459 c-3 -4 2 -6 10 -5 21 3 28 13 10 13 -9 0 -18 -4 -20 -8z"/>
<path d="M1295 8460 c3 -5 8 -10 11 -10 2 0 4 5 4 10 0 6 -5 10 -11 10 -5 0
-7 -4 -4 -10z"/>
<path d="M1295 8419 c-3 -4 2 -6 10 -5 21 3 28 13 10 13 -9 0 -18 -4 -20 -8z"/>
<path d="M1220 8406 c0 -2 8 -10 18 -17 15 -13 16 -12 3 4 -13 16 -21 21 -21
13z"/>
<path d="M1420 8366 c0 -2 8 -10 18 -17 15 -13 16 -12 3 4 -13 16 -21 21 -21
13z"/>
<path d="M1479 8353 c-13 -16 -12 -17 4 -4 9 7 17 15 17 17 0 8 -8 3 -21 -13z"/>
<path d="M1510 8359 c0 -5 5 -7 10 -4 6 3 10 8 10 11 0 2 -4 4 -10 4 -5 0 -10
-5 -10 -11z"/>
<path d="M1391 8273 c7 -12 15 -20 18 -17 3 2 -3 12 -13 22 -17 16 -18 16 -5
-5z"/>
<path d="M1546 8242 c-2 -4 4 -8 14 -8 10 0 16 4 14 8 -3 4 -9 8 -14 8 -5 0
-11 -4 -14 -8z"/>
<path d="M1596 8218 c3 -5 10 -6 15 -3 13 9 11 12 -6 12 -8 0 -12 -4 -9 -9z"/>
<path d="M1656 8198 c3 -4 11 -5 19 -1 21 7 19 12 -4 10 -11 0 -18 -5 -15 -9z"/>
<path d="M1550 8160 c0 -5 5 -10 11 -10 5 0 7 5 4 10 -3 6 -8 10 -11 10 -2 0
-4 -4 -4 -10z"/>
<path d="M1570 8120 c0 -5 5 -10 11 -10 5 0 7 5 4 10 -3 6 -8 10 -11 10 -2 0
-4 -4 -4 -10z"/>
<path d="M1670 8116 c7 -7 13 -7 20 0 6 6 3 10 -10 10 -13 0 -16 -4 -10 -10z"/>
<path d="M1666 8078 c3 -5 10 -6 15 -3 13 9 11 12 -6 12 -8 0 -12 -4 -9 -9z"/>
<path d="M1695 8060 c-3 -5 -1 -10 4 -10 6 0 11 5 11 10 0 6 -2 10 -4 10 -3 0
-8 -4 -11 -10z"/>
<path d="M1631 8033 c7 -12 15 -20 18 -17 3 2 -3 12 -13 22 -17 16 -18 16 -5
-5z"/>
<path d="M1780 8046 c0 -2 8 -10 18 -17 15 -13 16 -12 3 4 -13 16 -21 21 -21
13z"/>
<path d="M1695 8019 c-3 -4 2 -6 10 -5 21 3 28 13 10 13 -9 0 -18 -4 -20 -8z"/>
<path d="M1755 8000 c3 -5 8 -10 11 -10 2 0 4 5 4 10 0 6 -5 10 -11 10 -5 0
-7 -4 -4 -10z"/>
<path d="M1790 8000 c0 -5 5 -10 11 -10 5 0 7 5 4 10 -3 6 -8 10 -11 10 -2 0
-4 -4 -4 -10z"/>
<path d="M1816 7902 c-3 -5 1 -9 9 -9 8 0 12 4 9 9 -3 4 -7 8 -9 8 -2 0 -6 -4
-9 -8z"/>
<path d="M1855 7900 c3 -5 8 -10 11 -10 2 0 4 5 4 10 0 6 -5 10 -11 10 -5 0
-7 -4 -4 -10z"/>
<path d="M1993 7885 c0 -8 4 -12 9 -9 5 3 6 10 3 15 -9 13 -12 11 -12 -6z"/>
<path d="M1959 7873 c-13 -16 -12 -17 4 -4 16 13 21 21 13 21 -2 0 -10 -8 -17
-17z"/>
<path d="M1853 7855 c0 -8 4 -12 9 -9 5 3 6 10 3 15 -9 13 -12 11 -12 -6z"/>
<path d="M1966 7838 c3 -5 10 -6 15 -3 13 9 11 12 -6 12 -8 0 -12 -4 -9 -9z"/>
<path d="M2080 7780 c-9 -6 -10 -10 -3 -10 6 0 15 5 18 10 8 12 4 12 -15 0z"/>
<path d="M1907 7719 c7 -7 15 -10 18 -7 3 3 -2 9 -12 12 -14 6 -15 5 -6 -5z"/>
<path d="M2030 7726 c0 -2 7 -7 16 -10 8 -3 12 -2 9 4 -6 10 -25 14 -25 6z"/>
<path d="M1949 7643 c-13 -16 -12 -17 4 -4 9 7 17 15 17 17 0 8 -8 3 -21 -13z"/>
<path d="M2136 7582 c-3 -5 1 -9 9 -9 8 0 12 4 9 9 -3 4 -7 8 -9 8 -2 0 -6 -4
-9 -8z"/>
<path d="M2175 7580 c3 -5 8 -10 11 -10 2 0 4 5 4 10 0 6 -5 10 -11 10 -5 0
-7 -4 -4 -10z"/>
<path d="M2173 7535 c0 -8 4 -12 9 -9 5 3 6 10 3 15 -9 13 -12 11 -12 -6z"/>
<path d="M2195 7499 c-3 -4 2 -6 10 -5 21 3 28 13 10 13 -9 0 -18 -4 -20 -8z"/>
<path d="M2255 7500 c3 -5 8 -10 11 -10 2 0 4 5 4 10 0 6 -5 10 -11 10 -5 0
-7 -4 -4 -10z"/>
<path d="M2255 7459 c-3 -4 2 -6 10 -5 21 3 28 13 10 13 -9 0 -18 -4 -20 -8z"/>
<path d="M2190 7441 c0 -6 4 -13 10 -16 6 -3 7 1 4 9 -7 18 -14 21 -14 7z"/>
<path d="M2473 7375 c0 -8 4 -12 9 -9 5 3 6 10 3 15 -9 13 -12 11 -12 -6z"/>
<path d="M2553 7325 c0 -8 4 -12 9 -9 5 3 6 10 3 15 -9 13 -12 11 -12 -6z"/>
<path d="M2351 7313 c7 -12 15 -20 18 -17 3 2 -3 12 -13 22 -17 16 -18 16 -5
-5z"/>
<path d="M2507 7319 c7 -7 15 -10 18 -7 3 3 -2 9 -12 12 -14 6 -15 5 -6 -5z"/>
<path d="M2407 7279 c7 -7 15 -10 18 -7 3 3 -2 9 -12 12 -14 6 -15 5 -6 -5z"/>
<path d="M2506 7282 c-2 -4 4 -8 14 -8 10 0 16 4 14 8 -3 4 -9 8 -14 8 -5 0
-11 -4 -14 -8z"/>
<path d="M2510 7200 c0 -5 5 -10 11 -10 5 0 7 5 4 10 -3 6 -8 10 -11 10 -2 0
-4 -4 -4 -10z"/>
<path d="M2530 7160 c0 -5 5 -10 11 -10 5 0 7 5 4 10 -3 6 -8 10 -11 10 -2 0
-4 -4 -4 -10z"/>
<path d="M2579 7168 c-5 -18 -6 -38 -1 -34 7 8 12 36 6 36 -2 0 -4 -1 -5 -2z"/>
<path d="M2615 7140 c3 -5 8 -10 11 -10 2 0 4 5 4 10 0 6 -5 10 -11 10 -5 0
-7 -4 -4 -10z"/>
<path d="M2615 7100 c-3 -5 -1 -10 4 -10 6 0 11 5 11 10 0 6 -2 10 -4 10 -3 0
-8 -4 -11 -10z"/>
<path d="M2650 7100 c0 -5 5 -10 11 -10 5 0 7 5 4 10 -3 6 -8 10 -11 10 -2 0
-4 -4 -4 -10z"/>
<path d="M2775 7080 c3 -5 8 -10 11 -10 2 0 4 5 4 10 0 6 -5 10 -11 10 -5 0
-7 -4 -4 -10z"/>
<path d="M2697 7035 c-4 -8 -3 -16 1 -19 4 -3 9 4 9 15 2 23 -3 25 -10 4z"/>
<path d="M2799 6993 c-13 -16 -12 -17 4 -4 9 7 17 15 17 17 0 8 -8 3 -21 -13z"/>
<path d="M2936 6927 c3 -10 9 -15 12 -12 3 3 0 11 -7 18 -10 9 -11 8 -5 -6z"/>
<path d="M2810 6925 c0 -5 5 -17 10 -25 5 -8 10 -10 10 -5 0 6 -5 17 -10 25
-5 8 -10 11 -10 5z"/>
<path d="M2785 6840 c-3 -6 1 -7 9 -4 18 7 21 14 7 14 -6 0 -13 -4 -16 -10z"/>
<path d="M2886 6818 c3 -5 10 -6 15 -3 13 9 11 12 -6 12 -8 0 -12 -4 -9 -9z"/>
<path d="M3075 6791 c-3 -5 -2 -12 3 -15 5 -3 9 1 9 9 0 17 -3 19 -12 6z"/>
<path d="M2974 6756 c1 -8 5 -18 8 -22 4 -3 5 1 4 10 -1 8 -5 18 -8 22 -4 3
-5 -1 -4 -10z"/>
<path d="M3095 6700 c3 -5 8 -10 11 -10 2 0 4 5 4 10 0 6 -5 10 -11 10 -5 0
-7 -4 -4 -10z"/>
<path d="M2945 6680 c-3 -6 1 -7 9 -4 18 7 21 14 7 14 -6 0 -13 -4 -16 -10z"/>
<path d="M3053 6671 c0 -11 5 -18 9 -15 4 3 5 11 1 19 -7 21 -12 19 -10 -4z"/>
<path d="M3095 6660 c3 -5 8 -10 11 -10 2 0 4 5 4 10 0 6 -5 10 -11 10 -5 0
-7 -4 -4 -10z"/>
<path d="M3099 6628 c-5 -18 -6 -38 -1 -34 7 8 12 36 6 36 -2 0 -4 -1 -5 -2z"/>
<path d="M3126 6582 c-3 -5 1 -9 9 -9 8 0 12 4 9 9 -3 4 -7 8 -9 8 -2 0 -6 -4
-9 -8z"/>
<path d="M3175 6580 c3 -5 8 -10 11 -10 2 0 4 5 4 10 0 6 -5 10 -11 10 -5 0
-7 -4 -4 -10z"/>
<path d="M3173 6545 c0 -8 4 -12 9 -9 5 3 6 10 3 15 -9 13 -12 11 -12 -6z"/>
<path d="M3260 6526 c0 -2 8 -10 18 -17 15 -13 16 -12 3 4 -13 16 -21 21 -21
13z"/>
<path d="M3317 6510 c-10 -12 -10 -13 3 -4 8 6 25 10 37 9 12 -1 20 2 17 6 -7
13 -44 6 -57 -11z"/>
<path d="M3371 6487 c-8 -10 -7 -14 2 -14 8 0 14 6 14 14 0 7 -1 13 -2 13 -2
0 -8 -6 -14 -13z"/>
<path d="M3326 6478 c3 -5 10 -6 15 -3 13 9 11 12 -6 12 -8 0 -12 -4 -9 -9z"/>
<path d="M3253 6415 c0 -8 4 -12 9 -9 5 3 6 10 3 15 -9 13 -12 11 -12 -6z"/>
<path d="M3293 6375 c0 -8 4 -12 9 -9 5 3 6 10 3 15 -9 13 -12 11 -12 -6z"/>
<path d="M6115 6180 c-3 -5 -1 -10 4 -10 6 0 11 5 11 10 0 6 -2 10 -4 10 -3 0
-8 -4 -11 -10z"/>
<path d="M6040 6160 c-12 -7 -10 -9 7 -7 12 0 19 5 17 9 -6 10 -6 10 -24 -2z"/>
<path d="M6003 6143 c-7 -2 -13 -8 -13 -13 0 -13 29 -20 36 -8 5 7 2 8 -6 3
-10 -6 -12 -4 -7 8 3 10 5 17 4 16 -1 0 -8 -3 -14 -6z"/>
<path d="M6115 6139 c-3 -4 2 -6 10 -5 21 3 28 13 10 13 -9 0 -18 -4 -20 -8z"/>
<path d="M5970 6090 c-6 -11 -7 -20 -2 -20 6 0 12 9 15 20 3 11 3 20 1 20 -2
0 -8 -9 -14 -20z"/>
<path d="M6033 6095 c0 -8 4 -12 9 -9 4 3 8 9 8 15 0 5 -4 9 -8 9 -5 0 -9 -7
-9 -15z"/>
<path d="M5994 6065 c0 -13 3 -22 7 -19 8 4 6 30 -2 38 -3 3 -5 -5 -5 -19z"/>
<path d="M5941 6040 c-9 -5 -4 -7 13 -7 29 0 32 2 13 10 -8 3 -20 2 -26 -3z"/>
<path d="M6014 6038 c-4 -5 -3 -12 0 -15 3 -4 6 -1 6 6 0 7 4 10 9 6 5 -3 12
-2 15 3 3 5 -2 9 -10 9 -8 0 -17 -4 -20 -9z"/>
<path d="M5900 6019 c0 -5 5 -7 12 -3 8 5 9 2 5 -10 -4 -9 -3 -15 2 -11 5 3
11 0 13 -7 2 -6 12 -12 21 -14 9 -1 15 2 11 7 -3 5 -9 7 -13 4 -5 -2 -13 7
-19 20 -12 25 -32 34 -32 14z"/>
<path d="M6040 6020 c-9 -6 -10 -10 -3 -10 6 0 15 5 18 10 8 12 4 12 -15 0z"/>
<path d="M5860 5989 c-36 -44 -38 -60 -2 -19 17 19 31 38 32 43 0 11 -3 8 -30
-24z"/>
<path d="M5871 5961 c-13 -17 -18 -31 -12 -31 6 0 11 5 11 10 0 6 6 10 14 10
20 0 31 19 18 32 -6 6 -17 -1 -31 -21z m29 9 c0 -5 -5 -10 -11 -10 -5 0 -7 5
-4 10 3 6 8 10 11 10 2 0 4 -4 4 -10z"/>
<path d="M5988 5973 c7 -3 16 -2 19 1 4 3 -2 6 -13 5 -11 0 -14 -3 -6 -6z"/>
<path d="M6029 5957 c6 -8 7 -18 3 -22 -4 -5 -1 -5 6 -1 10 6 10 11 1 22 -6 8
-14 14 -16 14 -3 0 0 -6 6 -13z"/>
<path d="M5935 5951 c-3 -5 0 -13 6 -17 8 -5 9 -3 4 6 -6 9 -1 10 16 5 19 -5
21 -4 9 4 -19 13 -27 14 -35 2z"/>
<path d="M5806 5935 c-3 -9 3 -19 14 -25 11 -6 20 -8 20 -4 0 3 6 2 13 -4 17
-14 52 -9 52 8 0 7 -6 14 -13 16 -7 1 -8 0 -2 -3 17 -8 11 -19 -10 -20 -13 -1
-18 2 -14 9 4 6 3 8 -4 4 -6 -3 -13 -2 -17 3 -3 6 -12 8 -20 4 -11 -4 -13 -1
-9 11 3 9 4 16 1 16 -3 0 -7 -7 -11 -15z"/>
<path d="M5910 5945 c0 -5 5 -17 10 -25 5 -8 10 -10 10 -5 0 6 -5 17 -10 25
-5 8 -10 11 -10 5z"/>
<path d="M5758 5905 c-15 -13 -24 -26 -21 -29 4 -3 -1 -6 -10 -6 -15 0 -15 -2
2 -19 10 -10 21 -25 23 -32 3 -8 9 -10 14 -6 5 4 2 12 -5 16 -11 7 -10 13 8
32 11 12 19 25 16 27 -2 3 -13 -6 -24 -19 -11 -13 -20 -19 -21 -13 0 7 9 22
20 35 19 23 20 23 34 5 13 -16 13 -20 0 -33 -17 -18 -18 -25 -2 -41 9 -9 9
-12 -2 -12 -7 0 -11 -3 -8 -6 10 -10 49 16 42 28 -5 8 -1 9 12 4 14 -5 16 -4
7 5 -13 13 -37 3 -28 -12 4 -5 2 -9 -4 -9 -14 0 -25 21 -15 29 5 3 16 15 24
26 8 11 10 17 5 12 -4 -4 -16 4 -24 17 l-16 24 -27 -23z"/>
<path d="M5960 5925 c0 -2 6 -8 13 -14 10 -8 14 -7 14 2 0 8 -6 14 -14 14 -7
0 -13 -1 -13 -2z"/>
<path d="M6096 5922 c-3 -5 1 -9 9 -9 8 0 12 4 9 9 -3 4 -7 8 -9 8 -2 0 -6 -4
-9 -8z"/>
<path d="M5936 5902 c-8 -14 8 -27 37 -28 15 -1 25 2 21 5 -6 6 -12 7 -40 10
-8 0 -12 6 -9 11 3 6 4 10 1 10 -3 0 -7 -4 -10 -8z"/>
<path d="M5836 5873 c-6 -14 -5 -15 5 -6 7 7 10 15 7 18 -3 3 -9 -2 -12 -12z"/>
<path d="M5905 5879 c-4 -6 -5 -12 -2 -15 2 -3 7 2 10 11 7 17 1 20 -8 4z"/>
<path d="M6110 5876 c0 -2 8 -10 18 -17 15 -13 16 -12 3 4 -13 16 -21 21 -21
13z"/>
<path d="M5857 5863 c-3 -5 0 -17 4 -28 8 -18 9 -18 5 3 -3 17 -1 22 10 18 8
-3 14 -1 14 4 0 12 -27 13 -33 3z"/>
<path d="M5974 5846 c1 -8 5 -18 8 -22 4 -3 5 1 4 10 -1 8 -5 18 -8 22 -4 3
-5 -1 -4 -10z"/>
<path d="M5698 5843 c-2 -5 9 -20 24 -35 32 -30 38 -23 9 9 -11 12 -17 24 -14
27 4 3 1 6 -5 6 -6 0 -12 -3 -14 -7z"/>
<path d="M5690 5809 l25 -10 -24 -20 c-13 -10 -19 -19 -13 -19 6 0 17 7 25 15
8 8 18 11 23 7 5 -4 0 3 -10 16 -11 12 -26 22 -35 21 -9 0 -6 -4 9 -10z"/>
<path d="M5835 5809 c-4 -6 -5 -12 -2 -15 2 -3 7 2 10 11 7 17 1 20 -8 4z"/>
<path d="M5903 5804 c9 -11 14 -23 11 -26 -3 -3 -1 -8 4 -12 18 -11 8 25 -12
41 -21 18 -21 18 -3 -3z"/>
<path d="M5868 5793 c-4 -13 0 -19 13 -19 14 0 16 3 6 16 -6 8 -12 16 -13 18
-1 1 -4 -5 -6 -15z"/>
<path d="M5936 5798 c3 -5 10 -6 15 -3 13 9 11 12 -6 12 -8 0 -12 -4 -9 -9z"/>
<path d="M5670 5789 c0 -5 5 -7 10 -4 6 3 10 8 10 11 0 2 -4 4 -10 4 -5 0 -10
-5 -10 -11z"/>
<path d="M5760 5796 c0 -2 7 -9 15 -16 9 -7 15 -8 15 -2 0 5 -7 12 -15 16 -8
3 -15 4 -15 2z"/>
<path d="M5800 5786 c0 -2 7 -7 16 -10 8 -3 12 -2 9 4 -6 10 -25 14 -25 6z"/>
<path d="M5966 5778 c3 -5 10 -6 15 -3 13 9 11 12 -6 12 -8 0 -12 -4 -9 -9z"/>
<path d="M5720 5760 c0 -5 5 -10 10 -10 6 0 10 5 10 10 0 6 -4 10 -10 10 -5 0
-10 -4 -10 -10z"/>
<path d="M5753 5748 c-2 -18 0 -20 7 -8 12 18 13 30 2 30 -4 0 -9 -10 -9 -22z"/>
<path d="M5660 5739 c0 -5 5 -7 10 -4 6 3 10 8 10 11 0 2 -4 4 -10 4 -5 0 -10
-5 -10 -11z"/>
<path d="M5702 5731 c7 -12 18 -17 27 -13 14 6 14 7 -1 10 -10 2 -18 8 -18 13
0 5 -5 9 -10 9 -6 0 -6 -7 2 -19z"/>
<path d="M5775 5741 c-3 -6 4 -15 16 -21 12 -7 19 -8 15 -2 -3 6 0 13 6 16 7
3 2 3 -11 0 -16 -4 -21 -3 -17 5 4 6 5 11 2 11 -3 0 -7 -4 -11 -9z"/>
<path d="M5598 5733 c6 -2 12 -9 12 -14 0 -6 -5 -7 -12 -3 -7 5 -9 2 -5 -9 4
-10 -3 -21 -19 -31 -13 -9 -24 -24 -23 -34 0 -13 2 -14 6 -2 3 8 15 23 27 32
20 16 22 16 40 -5 18 -22 18 -22 2 6 -13 21 -14 32 -6 42 8 9 6 14 -6 19 -8 3
-19 6 -22 5 -4 0 -1 -3 6 -6z"/>
<path d="M5862 5724 c10 -10 20 -16 22 -13 3 3 -5 11 -17 18 -21 13 -21 12 -5
-5z"/>
<path d="M5670 5720 c-11 -7 -11 -10 -2 -10 7 0 10 -4 7 -10 -4 -6 1 -7 10 -3
15 5 15 3 4 -15 -7 -11 -17 -20 -23 -19 -5 1 -12 -6 -14 -15 -2 -10 1 -18 7
-18 6 0 7 7 4 17 -4 10 -2 14 4 10 6 -4 18 4 27 18 15 23 15 26 1 31 -8 3 -12
10 -9 15 7 11 3 11 -16 -1z"/>
<path d="M5753 5705 c0 -8 4 -15 9 -15 4 0 8 4 8 9 0 6 -4 12 -8 15 -5 3 -9
-1 -9 -9z"/>
<path d="M5630 5700 c0 -5 5 -10 11 -10 5 0 7 -5 3 -12 -4 -7 -3 -8 4 -4 6 4
9 13 5 21 -6 17 -23 20 -23 5z"/>
<path d="M5831 5694 c6 -7 7 -19 3 -25 -4 -7 -3 -9 4 -5 15 9 11 43 -5 43 -9
0 -10 -4 -2 -13z"/>
<path d="M5720 5681 c0 -5 7 -11 14 -14 10 -4 13 -1 9 9 -6 15 -23 19 -23 5z"/>
<path d="M5870 5681 c0 -6 4 -12 8 -15 5 -3 9 1 9 9 0 8 -4 15 -9 15 -4 0 -8
-4 -8 -9z"/>
<path d="M5588 5656 c-10 -7 -18 -19 -18 -27 0 -9 4 -8 13 4 12 17 40 10 37
-9 0 -5 8 -10 20 -10 20 -2 20 -2 0 3 -11 2 -18 9 -15 14 4 5 -1 12 -9 15 -9
3 -13 10 -10 15 7 12 2 11 -18 -5z"/>
<path d="M5715 5649 c-4 -6 -5 -12 -2 -15 2 -3 7 2 10 11 7 17 1 20 -8 4z"/>
<path d="M5770 5656 c0 -2 8 -10 18 -17 15 -13 16 -12 3 4 -13 16 -21 21 -21
13z"/>
<path d="M5759 5635 c-1 -3 -2 -8 -3 -12 -1 -5 -4 -13 -8 -19 -4 -6 -1 -11 5
-11 7 0 13 11 13 24 0 21 -4 31 -7 18z"/>
<path d="M5806 5622 c-3 -5 1 -9 9 -9 8 0 12 4 9 9 -3 4 -7 8 -9 8 -2 0 -6 -4
-9 -8z"/>
<path d="M5533 5614 c8 -8 -24 -64 -35 -64 -4 0 -8 -5 -8 -10 0 -6 8 -5 20 2
10 7 17 14 15 16 -2 3 2 14 10 26 18 25 19 36 3 36 -6 0 -8 -3 -5 -6z"/>
<path d="M5460 5591 c-7 -11 -16 -18 -20 -16 -3 2 -6 -5 -7 -15 -1 -10 5 -21
13 -24 8 -3 14 -1 14 4 0 6 -5 10 -12 10 -6 0 1 14 17 30 16 17 24 30 19 30
-5 0 -16 -9 -24 -19z"/>
<path d="M5495 5590 c-3 -11 -11 -20 -16 -20 -5 0 -9 -5 -9 -11 0 -8 5 -7 16
1 21 18 37 50 25 50 -5 0 -13 -9 -16 -20z"/>
<path d="M5572 5592 c11 -13 10 -15 -5 -9 -11 4 -16 3 -12 -3 3 -6 1 -10 -6
-10 -7 0 -10 -3 -7 -6 10 -10 49 16 42 28 -5 8 2 9 22 4 16 -4 25 -4 21 0 -4
4 -21 9 -38 10 -26 2 -28 0 -17 -14z"/>
<path d="M5709 5583 c-13 -16 -12 -17 4 -4 9 7 17 15 17 17 0 8 -8 3 -21 -13z"/>
<path d="M5630 5571 c0 -6 4 -12 8 -15 5 -3 9 1 9 9 0 8 -4 15 -9 15 -4 0 -8
-4 -8 -9z"/>
<path d="M5590 5562 c0 -6 9 -12 20 -15 11 -3 20 -3 20 -1 0 2 -9 8 -20 14
-11 6 -20 7 -20 2z"/>
<path d="M5535 5540 c-6 -10 0 -39 10 -47 4 -4 5 -3 2 4 -4 6 -1 14 5 16 10 4
10 6 1 6 -21 2 -15 17 7 18 13 1 18 -2 14 -9 -4 -7 -2 -8 5 -4 6 4 9 11 6 16
-6 10 -44 9 -50 0z"/>
<path d="M5730 5539 c0 -5 5 -7 10 -4 6 3 10 8 10 11 0 2 -4 4 -10 4 -5 0 -10
-5 -10 -11z"/>
<path d="M5466 5523 c-6 -14 -5 -15 5 -6 7 7 10 15 7 18 -3 3 -9 -2 -12 -12z"/>
<path d="M5653 5527 c0 -8 6 -14 14 -14 9 0 10 4 2 14 -6 7 -12 13 -14 13 -1
0 -2 -6 -2 -13z"/>
<path d="M5501 5513 c-6 -10 -11 -14 -11 -10 0 11 -40 -12 -40 -23 0 -6 5 -10
11 -10 5 0 7 5 4 10 -6 9 7 14 27 11 4 0 12 8 18 19 13 25 5 27 -9 3z"/>
<path d="M5690 5526 c0 -2 7 -7 16 -10 8 -3 12 -2 9 4 -6 10 -25 14 -25 6z"/>
<path d="M5436 5505 c-9 -26 -7 -32 5 -12 6 10 9 21 6 23 -2 3 -7 -2 -11 -11z"/>
<path d="M5607 5499 c7 -7 15 -10 18 -7 3 3 -2 9 -12 12 -14 6 -15 5 -6 -5z"/>
<path d="M5411 5474 c0 -11 3 -14 6 -6 3 7 2 16 -1 19 -3 4 -6 -2 -5 -13z"/>
<path d="M5522 5476 c7 -8 15 -12 17 -11 5 6 -10 25 -20 25 -5 0 -4 -6 3 -14z"/>
<path d="M5570 5482 c0 -4 10 -9 22 -9 18 -2 20 0 8 7 -18 12 -30 13 -30 2z"/>
<path d="M5350 5473 c8 -3 19 -10 25 -15 5 -5 19 -16 30 -24 17 -13 17 -15 2
-10 -11 3 -16 2 -12 -4 3 -6 1 -10 -6 -10 -7 0 -10 -3 -7 -6 10 -9 49 16 43
27 -4 5 1 9 9 9 19 0 21 16 4 26 -6 4 -8 3 -5 -3 13 -20 -22 -22 -46 -2 -14
10 -31 19 -39 18 -10 0 -9 -2 2 -6z"/>
<path d="M5693 5455 c0 -8 4 -12 9 -9 5 3 6 10 3 15 -9 13 -12 11 -12 -6z"/>
<path d="M5323 5453 c-7 -2 -13 -12 -13 -21 1 -15 2 -15 11 1 5 9 15 17 21 17
7 0 6 -5 -2 -15 -7 -9 -8 -15 -2 -15 12 0 23 26 15 34 -7 7 -13 7 -30 -1z"/>
<path d="M5471 5444 c0 -11 3 -14 6 -6 3 7 2 16 -1 19 -3 4 -6 -2 -5 -13z"/>
<path d="M5360 5415 c-7 -14 -17 -25 -22 -25 -4 0 -8 -5 -8 -10 0 -6 8 -5 20
2 10 7 17 14 15 17 -3 2 0 10 7 18 6 7 9 16 6 18 -3 3 -11 -6 -18 -20z"/>
<path d="M5281 5413 c-11 -13 -11 -17 3 -31 10 -11 16 -12 16 -4 0 7 -5 12
-11 12 -8 0 -7 5 1 15 17 20 9 27 -9 8z"/>
<path d="M5455 5420 c3 -5 -1 -10 -9 -10 -9 0 -16 -5 -16 -10 0 -7 7 -7 20 0
17 9 20 30 4 30 -3 0 -2 -4 1 -10z"/>
<path d="M5513 5413 c0 -9 4 -10 14 -2 7 6 13 12 13 14 0 1 -6 2 -13 2 -8 0
-14 -6 -14 -14z"/>
<path d="M5310 5400 c0 -5 7 -7 15 -4 8 4 15 8 15 10 0 2 -7 4 -15 4 -8 0 -15
-4 -15 -10z"/>
<path d="M5490 5405 c0 -5 5 -17 10 -25 5 -8 10 -10 10 -5 0 6 -5 17 -10 25
-5 8 -10 11 -10 5z"/>
<path d="M5556 5398 c3 -5 10 -6 15 -3 13 9 11 12 -6 12 -8 0 -12 -4 -9 -9z"/>
<path d="M5373 5377 c-3 -5 -2 -11 1 -14 3 -4 6 -1 6 6 0 7 4 10 8 7 4 -2 14
-1 22 4 11 7 9 9 -8 7 -13 -1 -26 -5 -29 -10z"/>
<path d="M5303 5353 c-7 -14 -10 -30 -7 -34 7 -12 34 -11 34 1 0 5 -7 7 -16 3
-14 -5 -15 -3 -5 16 7 12 11 26 9 31 -2 5 -8 -2 -15 -17z"/>
<path d="M5341 5357 c-6 -8 -8 -17 -4 -20 10 -10 33 -8 33 3 0 5 -8 6 -17 3
-16 -6 -16 -5 -4 10 7 9 11 17 8 17 -2 0 -10 -6 -16 -13z"/>
<path d="M5400 5360 c-8 -5 -10 -10 -5 -10 6 0 17 5 25 10 8 5 11 10 5 10 -5
0 -17 -5 -25 -10z"/>
<path d="M5450 5362 c0 -5 7 -9 15 -9 8 0 12 4 9 9 -3 4 -9 8 -15 8 -5 0 -9
-4 -9 -8z"/>
<path d="M5573 5343 c4 -3 1 -13 -6 -22 -11 -14 -10 -14 5 -2 16 12 16 31 1
31 -4 0 -3 -3 0 -7z"/>
<path d="M5406 5323 c-6 -14 -5 -15 5 -6 7 7 10 15 7 18 -3 3 -9 -2 -12 -12z"/>
<path d="M5450 5336 c0 -2 8 -10 18 -17 15 -13 16 -12 3 4 -13 16 -21 21 -21
13z"/>
<path d="M5190 5309 c0 -5 5 -7 10 -4 6 3 10 8 10 11 0 2 -4 4 -10 4 -5 0 -10
-5 -10 -11z"/>
<path d="M5163 5295 c-6 -7 -9 -16 -5 -21 4 -4 -1 -4 -10 -1 -12 4 -15 2 -11
-9 4 -10 0 -12 -12 -8 -13 5 -11 0 6 -18 13 -13 27 -23 31 -21 3 2 9 -3 11 -9
4 -10 6 -10 6 -1 1 7 -8 17 -19 23 -11 6 -18 16 -14 22 4 7 10 6 16 -3 8 -11
9 -11 5 1 -2 8 0 23 5 33 12 23 7 29 -9 12z"/>
<path d="M5276 5293 c-6 -14 -5 -15 5 -6 7 7 10 15 7 18 -3 3 -9 -2 -12 -12z"/>
<path d="M5425 5300 c-3 -6 1 -7 9 -4 18 7 21 14 7 14 -6 0 -13 -4 -16 -10z"/>
<path d="M5350 5290 c0 -5 5 -10 11 -10 5 0 7 5 4 10 -3 6 -8 10 -11 10 -2 0
-4 -4 -4 -10z"/>
<path d="M5469 5283 c-13 -16 -12 -17 4 -4 9 7 17 15 17 17 0 8 -8 3 -21 -13z"/>
<path d="M5294 5279 c-3 -6 -2 -15 4 -21 6 -6 12 -6 17 3 5 8 4 10 -3 5 -7 -4
-12 -3 -12 3 0 5 6 12 13 14 9 4 9 6 0 6 -6 1 -15 -4 -19 -10z"/>
<path d="M5180 5259 c0 -5 5 -7 10 -4 6 3 10 8 10 11 0 2 -4 4 -10 4 -5 0 -10
-5 -10 -11z"/>
<path d="M5222 5256 c10 -7 15 -16 11 -20 -4 -4 0 -4 10 0 17 6 17 7 0 20 -10
7 -22 13 -28 13 -5 0 -2 -6 7 -13z"/>
<path d="M5273 5253 c0 -11 7 -20 14 -20 10 0 10 4 1 16 -7 9 -13 18 -15 20
-1 2 -1 -5 0 -16z"/>
<path d="M5380 5265 c0 -2 6 -8 13 -14 10 -8 14 -7 14 2 0 8 -6 14 -14 14 -7
0 -13 -1 -13 -2z"/>
<path d="M5190 5240 c-11 -7 -11 -10 -2 -10 7 0 10 -4 7 -10 -4 -6 1 -7 11 -3
11 4 15 3 10 -5 -3 -6 3 -16 15 -22 12 -7 19 -8 15 -2 -3 6 0 13 6 16 7 3 2 3
-11 0 -16 -4 -21 -3 -17 5 4 6 0 14 -8 17 -9 3 -13 10 -10 15 7 11 3 11 -16
-1z"/>
<path d="M5325 5241 c3 -3 17 -6 31 -7 13 0 22 2 19 5 -3 3 -17 6 -31 7 -13 0
-22 -2 -19 -5z"/>
<path d="M5114 5228 c8 -26 -20 -44 -41 -27 -15 12 -16 12 -8 -1 5 -8 8 -22 7
-30 -1 -8 7 -21 18 -28 11 -7 20 -8 20 -3 0 5 -7 11 -15 15 -8 3 -15 11 -15
17 0 7 3 10 6 6 4 -3 14 3 24 15 15 19 17 19 23 5 4 -11 1 -17 -8 -17 -8 0
-15 -5 -15 -10 0 -13 35 4 46 22 4 7 3 8 -4 4 -7 -4 -12 -3 -12 1 0 5 -7 18
-16 29 -12 15 -15 16 -10 2z"/>
<path d="M5313 5209 c-2 -23 3 -25 10 -4 4 8 3 16 -1 19 -4 3 -9 -4 -9 -15z"/>
<path d="M5455 5221 c-3 -5 -2 -12 3 -15 5 -3 9 1 9 9 0 17 -3 19 -12 6z"/>
<path d="M5375 5209 c-4 -6 -5 -12 -2 -15 2 -3 7 2 10 11 7 17 1 20 -8 4z"/>
<path d="M5336 5193 c-6 -14 -5 -15 5 -6 7 7 10 15 7 18 -3 3 -9 -2 -12 -12z"/>
<path d="M5196 5187 c3 -10 9 -15 12 -12 3 3 0 11 -7 18 -10 9 -11 8 -5 -6z"/>
<path d="M5160 5175 c-11 -13 -11 -18 0 -28 10 -9 11 -9 6 1 -13 22 5 35 21
15 13 -17 13 -16 3 5 -13 26 -14 26 -30 7z"/>
<path d="M5395 5180 c3 -5 8 -10 11 -10 2 0 4 5 4 10 0 6 -5 10 -11 10 -5 0
-7 -4 -4 -10z"/>
<path d="M5011 5166 c-9 -10 -9 -16 -1 -21 6 -4 14 -4 17 -1 4 3 1 6 -6 6 -7
0 -9 5 -5 12 5 7 15 2 31 -18 12 -16 23 -24 23 -18 0 6 -11 20 -23 33 -21 19
-26 20 -36 7z"/>
<path d="M5216 5153 c-4 -9 1 -10 17 -4 12 5 25 8 29 7 3 0 9 1 12 4 3 3 -8 6
-24 5 -17 0 -32 -5 -34 -12z"/>
<path d="M5360 5160 c-9 -6 -10 -10 -3 -10 6 0 15 5 18 10 8 12 4 12 -15 0z"/>
<path d="M5130 5143 c5 -2 8 -8 6 -12 -3 -4 0 -13 5 -21 7 -11 8 -9 6 9 -2 14
-9 26 -16 27 -6 1 -7 0 -1 -3z"/>
<path d="M4979 5123 c-9 -11 -10 -14 -1 -9 6 4 12 2 12 -3 0 -6 4 -11 9 -11
10 0 9 25 -1 35 -3 3 -11 -2 -19 -12z"/>
<path d="M5180 5131 c0 -7 -5 -9 -12 -5 -7 5 -8 3 -3 -5 5 -9 10 -10 18 -2 6
6 8 14 4 18 -4 3 -7 1 -7 -6z"/>
<path d="M5021 5113 c0 -11 3 -13 6 -5 2 6 10 9 15 6 7 -4 8 -2 4 4 -11 18
-26 14 -25 -5z"/>
<path d="M5081 5114 c0 -11 3 -14 6 -6 3 7 2 16 -1 19 -3 4 -6 -2 -5 -13z"/>
<path d="M5110 5111 c0 -5 5 -13 10 -16 6 -3 10 -2 10 4 0 5 -4 13 -10 16 -5
3 -10 2 -10 -4z"/>
<path d="M5047 5095 c-15 -11 -17 -17 -7 -32 10 -15 11 -16 6 -1 -3 10 2 21
12 27 9 5 15 12 12 14 -3 3 -13 -1 -23 -8z"/>
<path d="M5193 5093 c0 -9 4 -10 14 -2 7 6 13 12 13 14 0 1 -6 2 -13 2 -8 0
-14 -6 -14 -14z"/>
<path d="M5333 5089 c-2 -23 3 -25 10 -4 4 8 3 16 -1 19 -4 3 -9 -4 -9 -15z"/>
<path d="M4955 5091 c-4 -7 0 -8 11 -4 12 4 15 3 10 -5 -4 -7 -2 -12 4 -12 14
0 8 22 -7 27 -6 2 -14 -1 -18 -6z"/>
<path d="M5158 5076 c-13 -18 -14 -23 -2 -23 8 0 12 3 9 5 -3 3 0 11 7 19 6 7
9 15 7 17 -2 2 -12 -6 -21 -18z"/>
<path d="M5090 5080 c0 -5 5 -10 10 -10 6 0 10 5 10 10 0 6 -4 10 -10 10 -5 0
-10 -4 -10 -10z"/>
<path d="M5233 5075 c0 -8 4 -12 9 -9 4 3 8 9 8 15 0 5 -4 9 -8 9 -5 0 -9 -7
-9 -15z"/>
<path d="M4955 5057 c30 -26 51 -36 41 -18 -3 5 1 11 9 14 8 4 16 -2 20 -14 4
-11 9 -18 12 -16 2 3 0 15 -7 26 -9 17 -15 19 -30 11 -15 -8 -27 -6 -47 6 -27
16 -27 16 2 -9z"/>
<path d="M4913 5038 c-2 -18 0 -20 7 -8 12 18 13 30 2 30 -4 0 -9 -10 -9 -22z"/>
<path d="M5080 5055 c0 -5 5 -17 10 -25 5 -8 10 -10 10 -5 0 6 -5 17 -10 25
-5 8 -10 11 -10 5z"/>
<path d="M4944 5042 c4 -7 2 -12 -3 -12 -6 0 -11 -5 -11 -11 0 -8 5 -7 15 1
14 12 15 10 11 -14 -4 -23 -3 -26 9 -16 15 13 7 42 -17 56 -7 4 -8 3 -4 -4z"/>
<path d="M5115 5041 c-3 -5 -2 -12 3 -15 5 -3 9 1 9 9 0 17 -3 19 -12 6z"/>
<path d="M4867 5023 c-11 -11 3 -22 20 -16 11 4 14 3 9 -5 -4 -7 -2 -12 3 -12
6 0 11 4 11 10 0 12 -35 31 -43 23z"/>
<path d="M5140 5026 c0 -2 8 -10 18 -17 15 -13 16 -12 3 4 -13 16 -21 21 -21
13z"/>
<path d="M5253 5023 c4 -3 1 -13 -6 -22 -11 -14 -10 -14 5 -2 16 12 16 31 1
31 -4 0 -3 -3 0 -7z"/>
<path d="M5010 5000 c0 -5 5 -10 10 -10 6 0 10 5 10 10 0 6 -4 10 -10 10 -5 0
-10 -4 -10 -10z"/>
<path d="M5077 4992 c-15 -16 -15 -19 -2 -19 8 0 13 3 10 5 -3 3 0 11 6 19 17
20 5 16 -14 -5z"/>
<path d="M4974 4975 c-3 -8 -4 -20 -2 -27 3 -7 7 -1 10 15 6 29 1 36 -8 12z"/>
<path d="M4875 4970 c-3 -5 -1 -10 4 -10 6 0 11 5 11 10 0 6 -2 10 -4 10 -3 0
-8 -4 -11 -10z"/>
<path d="M4912 4960 c0 -14 2 -19 5 -12 2 6 2 18 0 25 -3 6 -5 1 -5 -13z"/>
<path d="M4990 4963 c0 -6 8 -17 18 -24 16 -13 16 -13 2 6 -8 11 -16 22 -17
24 -2 2 -3 0 -3 -6z"/>
<path d="M5135 4951 c-3 -5 -2 -12 3 -15 5 -3 9 1 9 9 0 17 -3 19 -12 6z"/>
<path d="M4854 4939 c-4 -7 -3 -9 4 -5 5 3 12 0 15 -6 2 -7 7 -10 11 -7 4 3 0
12 -8 18 -11 9 -16 9 -22 0z"/>
<path d="M4973 4913 c0 -9 4 -10 14 -2 7 6 13 12 13 14 0 1 -6 2 -13 2 -8 0
-14 -6 -14 -14z"/>
<path d="M5050 4919 c0 -5 5 -7 10 -4 6 3 10 8 10 11 0 2 -4 4 -10 4 -5 0 -10
-5 -10 -11z"/>
<path d="M4795 4909 c-11 -16 -1 -19 13 -3 7 8 8 14 3 14 -5 0 -13 -5 -16 -11z"/>
<path d="M5115 4910 c-4 -6 -11 -7 -17 -4 -7 4 -8 2 -4 -5 6 -9 11 -9 22 0 14
11 18 19 10 19 -3 0 -8 -5 -11 -10z"/>
<path d="M4834 4895 c3 -23 12 -26 13 -5 1 11 -2 20 -7 20 -4 0 -7 -7 -6 -15z"/>
<path d="M4871 4867 c-13 -21 -12 -21 5 -5 10 10 16 20 13 22 -3 3 -11 -5 -18
-17z"/>
<path d="M4993 4875 c0 -8 4 -12 9 -9 5 3 6 10 3 15 -9 13 -12 11 -12 -6z"/>
<path d="M4827 4859 c7 -7 15 -10 18 -7 3 3 -2 9 -12 12 -14 6 -15 5 -6 -5z"/>
<path d="M5056 4862 c-3 -4 4 -9 15 -9 23 -2 25 3 4 10 -8 4 -16 3 -19 -1z"/>
<path d="M4772 4851 c-11 -6 -10 -10 0 -19 11 -8 14 -7 14 9 0 10 0 19 -1 19
0 0 -6 -4 -13 -9z"/>
<path d="M4956 4838 c3 -5 10 -6 15 -3 13 9 11 12 -6 12 -8 0 -12 -4 -9 -9z"/>
<path d="M4830 4816 c7 -7 13 -7 20 0 6 6 3 10 -10 10 -13 0 -16 -4 -10 -10z"/>
<path d="M4913 4807 c0 -8 6 -14 14 -14 9 0 10 4 2 14 -6 7 -12 13 -14 13 -1
0 -2 -6 -2 -13z"/>
<path d="M4786 4798 c3 -4 9 -8 15 -8 5 0 9 4 9 8 0 5 -7 9 -15 9 -8 0 -12 -4
-9 -9z"/>
<path d="M4880 4800 c-9 -6 -10 -10 -3 -10 6 0 15 5 18 10 8 12 4 12 -15 0z"/>
<path d="M4673 4767 c-1 -11 -1 -18 0 -16 2 2 8 11 15 20 9 12 9 16 -1 16 -7
0 -14 -9 -14 -20z"/>
<path d="M4789 4763 c-13 -16 -12 -17 4 -4 9 7 17 15 17 17 0 8 -8 3 -21 -13z"/>
<path d="M4874 4756 c1 -8 5 -18 8 -22 4 -3 5 1 4 10 -1 8 -5 18 -8 22 -4 3
-5 -1 -4 -10z"/>
<path d="M4635 4740 c3 -5 8 -10 11 -10 2 0 4 5 4 10 0 6 -5 10 -11 10 -5 0
-7 -4 -4 -10z"/>
<path d="M4735 4700 c3 -5 8 -10 11 -10 2 0 4 5 4 10 0 6 -5 10 -11 10 -5 0
-7 -4 -4 -10z"/>
<path d="M4830 4703 c0 -6 8 -17 18 -24 16 -13 16 -13 2 6 -8 11 -16 22 -17
24 -2 2 -3 0 -3 -6z"/>
<path d="M4697 4675 c-4 -8 -3 -16 1 -19 4 -3 9 4 9 15 2 23 -3 25 -10 4z"/>
<path d="M4650 4659 c0 -5 5 -7 10 -4 6 3 10 8 10 11 0 2 -4 4 -10 4 -5 0 -10
-5 -10 -11z"/>
<path d="M4615 4620 c3 -5 8 -10 11 -10 2 0 4 5 4 10 0 6 -5 10 -11 10 -5 0
-7 -4 -4 -10z"/>
<path d="M4830 4616 c0 -2 8 -10 18 -17 15 -13 16 -12 3 4 -13 16 -21 21 -21
13z"/>
<path d="M4480 4580 c-9 -6 -10 -10 -3 -10 6 0 15 5 18 10 8 12 4 12 -15 0z"/>
<path d="M4610 4580 c0 -5 5 -10 11 -10 5 0 7 5 4 10 -3 6 -8 10 -11 10 -2 0
-4 -4 -4 -10z"/>
<path d="M4556 4542 c-3 -5 1 -9 9 -9 8 0 12 4 9 9 -3 4 -7 8 -9 8 -2 0 -6 -4
-9 -8z"/>
<path d="M4516 4527 c3 -10 9 -15 12 -12 3 3 0 11 -7 18 -10 9 -11 8 -5 -6z"/>
<path d="M4334 4478 c-4 -7 -4 -10 1 -6 4 4 15 2 24 -5 14 -11 14 -10 2 6 -16
20 -18 21 -27 5z"/>
<path d="M4330 4441 c0 -6 4 -13 10 -16 6 -3 7 1 4 9 -7 18 -14 21 -14 7z"/>
<path d="M4415 4420 c-3 -5 -1 -10 4 -10 6 0 11 5 11 10 0 6 -2 10 -4 10 -3 0
-8 -4 -11 -10z"/>
<path d="M4377 4355 c-4 -8 -3 -16 1 -19 4 -3 9 4 9 15 2 23 -3 25 -10 4z"/>
<path d="M4200 4280 c-9 -6 -10 -10 -3 -10 6 0 15 5 18 10 8 12 4 12 -15 0z"/>
<path d="M4115 4250 c-4 -6 -11 -7 -17 -4 -7 4 -8 2 -4 -5 6 -9 11 -9 22 0 14
11 18 19 10 19 -3 0 -8 -5 -11 -10z"/>
<path d="M4176 4238 c3 -5 10 -6 15 -3 13 9 11 12 -6 12 -8 0 -12 -4 -9 -9z"/>
<path d="M4056 4193 c-6 -14 -5 -15 5 -6 7 7 10 15 7 18 -3 3 -9 -2 -12 -12z"/>
<path d="M4229 4163 c-13 -16 -12 -17 4 -4 16 13 21 21 13 21 -2 0 -10 -8 -17
-17z"/>
<path d="M4035 4040 c3 -5 8 -10 11 -10 2 0 4 5 4 10 0 6 -5 10 -11 10 -5 0
-7 -4 -4 -10z"/>
<path d="M3970 4019 c0 -5 5 -7 10 -4 6 3 10 8 10 11 0 2 -4 4 -10 4 -5 0 -10
-5 -10 -11z"/>
<path d="M3874 4009 c-3 -6 -2 -15 3 -20 5 -5 9 -1 9 11 0 23 -2 24 -12 9z"/>
<path d="M3895 3940 c3 -5 8 -10 11 -10 2 0 4 5 4 10 0 6 -5 10 -11 10 -5 0
-7 -4 -4 -10z"/>
<path d="M3930 3940 c0 -5 5 -10 11 -10 5 0 7 5 4 10 -3 6 -8 10 -11 10 -2 0
-4 -4 -4 -10z"/>
<path d="M3795 3930 c-4 -6 -11 -7 -17 -4 -7 4 -8 2 -4 -5 6 -9 11 -9 22 0 14
11 18 19 10 19 -3 0 -8 -5 -11 -10z"/>
<path d="M3935 3899 c-3 -4 2 -6 10 -5 21 3 28 13 10 13 -9 0 -18 -4 -20 -8z"/>
<path d="M3745 3880 c-3 -6 1 -7 9 -4 18 7 21 14 7 14 -6 0 -13 -4 -16 -10z"/>
<path d="M3985 3880 c-3 -6 1 -7 9 -4 18 7 21 14 7 14 -6 0 -13 -4 -16 -10z"/>
<path d="M3874 3862 c4 -3 14 -7 22 -8 9 -1 13 0 10 4 -4 3 -14 7 -22 8 -9 1
-13 0 -10 -4z"/>
<path d="M3733 3845 c0 -8 4 -12 9 -9 5 3 6 10 3 15 -9 13 -12 11 -12 -6z"/>
<path d="M7165 3842 c-2 -2 -34 -5 -72 -7 -187 -8 -354 -165 -368 -345 -2 -25
-4 -45 -5 -45 -1 0 -3 -8 -5 -17 -2 -10 1 -18 6 -18 6 0 6 -8 -1 -19 -7 -13
-7 -22 0 -26 7 -4 7 -12 0 -25 -6 -12 -7 -21 0 -25 5 -3 7 -11 5 -18 -10 -26
-12 -77 -3 -77 5 0 6 -6 2 -12 -12 -19 -12 -48 0 -48 6 0 6 -4 -2 -12 -7 -7
-8 -17 -1 -30 5 -10 6 -18 1 -18 -10 0 -9 -30 2 -48 4 -6 3 -12 -2 -12 -13 0
-10 -33 3 -42 7 -5 6 -8 -1 -8 -11 0 -12 -49 -1 -67 4 -6 3 -14 -3 -18 -6 -4
-7 -12 -1 -24 6 -10 6 -23 1 -31 -5 -8 -4 -22 2 -33 7 -14 7 -17 -1 -13 -12 8
-11 -21 2 -41 5 -7 5 -13 0 -13 -4 0 -8 -18 -9 -40 0 -23 3 -37 9 -33 6 3 7 1
4 -4 -12 -20 -17 -84 -6 -77 8 4 8 1 1 -12 -5 -11 -7 -25 -4 -33 3 -9 0 -11
-9 -7 -8 4 -6 1 3 -7 12 -9 14 -17 7 -24 -8 -8 -7 -13 0 -17 6 -4 11 -20 11
-37 0 -16 5 -29 11 -29 5 0 7 -4 4 -10 -3 -6 -1 -10 5 -10 6 0 9 -4 5 -9 -3
-5 0 -15 7 -23 7 -7 14 -20 16 -28 2 -8 10 -20 18 -26 7 -6 14 -14 14 -17 0
-3 19 -25 42 -49 23 -24 38 -36 34 -28 -4 9 -1 8 7 -2 8 -10 19 -18 24 -18 20
0 63 -27 55 -35 -4 -4 3 -4 15 -1 12 4 24 2 28 -4 3 -6 11 -8 16 -5 5 4 15 3
21 -1 18 -11 48 -12 54 -2 3 4 11 5 17 1 7 -4 28 -8 47 -8 19 0 41 -4 49 -9 9
-6 12 -5 7 2 -8 13 10 19 45 14 18 -3 26 -8 22 -16 -4 -6 1 -5 9 2 9 8 25 12
35 10 10 -1 24 2 32 6 11 7 13 5 9 -5 -4 -10 1 -15 12 -15 10 0 16 4 14 8 -3
4 2 8 11 8 12 0 15 -5 11 -17 -6 -17 -5 -17 7 -1 11 14 16 15 27 5 7 -7 10 -7
7 -1 -4 7 6 11 26 12 30 1 31 0 13 -14 -11 -8 -15 -14 -10 -14 6 0 16 6 22 12
7 7 37 13 66 14 29 0 57 4 64 7 6 4 13 3 16 -1 3 -5 18 -8 33 -6 15 1 31 -3
35 -9 6 -9 8 -8 8 2 0 11 5 9 22 -5 16 -14 19 -14 10 -2 -11 14 -10 17 5 20
10 3 27 -3 37 -11 11 -9 16 -11 13 -5 -5 8 6 12 32 11 25 -1 38 -5 34 -11 -3
-6 0 -5 8 2 18 16 63 16 53 0 -6 -10 -5 -10 7 -1 16 13 96 12 118 -2 9 -5 12
-4 8 2 -10 16 51 21 79 7 13 -7 22 -9 19 -4 -8 12 16 18 45 10 32 -8 83 -6
100 5 9 6 12 4 8 -6 -4 -10 1 -15 12 -15 10 0 16 4 14 8 -3 4 2 8 11 8 12 0
15 -5 11 -17 -6 -17 -5 -17 7 -1 11 14 16 15 27 5 7 -7 10 -7 7 -1 -4 7 6 11
26 12 30 1 31 0 13 -14 -11 -8 -15 -14 -10 -14 6 0 16 6 22 12 7 7 37 13 66
14 29 0 57 4 64 7 6 4 13 3 16 -1 3 -5 18 -8 33 -6 15 1 31 -3 35 -9 6 -9 8
-8 8 2 0 11 5 9 22 -5 16 -14 19 -14 10 -2 -11 14 -10 17 5 20 10 3 27 -3 37
-11 11 -9 16 -11 13 -5 -5 8 6 12 32 11 25 -1 38 -5 34 -11 -3 -6 0 -5 8 2 18
16 63 16 53 0 -6 -10 -5 -10 7 -1 16 13 96 12 118 -2 9 -5 12 -4 8 2 -10 16
51 21 79 7 13 -7 22 -9 19 -4 -8 12 16 18 45 10 32 -8 83 -6 100 5 9 6 12 4 8
-6 -4 -10 1 -15 12 -15 10 0 16 4 14 8 -3 4 2 8 11 8 12 0 15 -5 11 -17 -6
-17 -5 -17 7 -1 11 14 16 15 27 5 7 -7 10 -7 7 -1 -4 7 6 11 26 12 30 1 31 0
13 -14 -11 -8 -15 -14 -10 -14 6 0 16 6 22 12 7 7 37 13 66 14 29 0 57 4 64 7
6 4 13 3 16 -1 3 -5 18 -8 33 -6 15 1 31 -3 35 -9 6 -9 8 -8 8 2 0 11 5 9 22
-5 16 -14 19 -14 10 -2 -11 14 -10 17 5 20 10 3 27 -3 37 -11 11 -9 16 -11 13
-5 -5 8 6 12 32 11 25 -1 38 -5 34 -11 -3 -6 0 -5 8 2 18 16 63 16 53 0 -6
-10 -5 -10 7 -1 16 13 96 12 118 -2 9 -5 12 -4 8 2 -10 16 51 21 79 7 13 -7
22 -9 19 -4 -8 12 16 18 45 10 32 -8 83 -6 100 5 9 6 12 4 8 -6 -4 -10 1 -15
12 -15 10 0 16 4 14 8 -3 4 2 8 11 8 12 0 15 -5 11 -17 -6 -17 -5 -17 7 -1 11
14 16 15 27 5 7 -7 10 -7 7 -1 -4 7 6 11 26 12 30 1 31 0 13 -14 -11 -8 -15
-14 -10 -14 6 0 16 6 22 12 7 7 37 13 66 14 29 0 57 4 64 7 6 4 13 3 16 -1 3
-5 18 -8 33 -6 15 1 31 -3 35 -9 6 -9 8 -8 8 2 0 11 5 9 22 -5 16 -14 19 -14
10 -2 -11 14 -10 17 5 20 10 3 27 -3 37 -11 11 -9 16 -11 13 -5 -5 8 6 12 32
11 25 -1 38 -5 34 -11 -3 -6 0 -5 8 2 18 16 63 16 53 0 -6 -10 -5 -10 7 -1 16
13 96 12 118 -2 9 -5 12 -4 8 2 -10 16 51 21 79 7 13 -7 22 -9 19 -4 -8 13 17
18 47 9 15 -4 36 -5 48 -2 11 3 28 -1 37 -8 14 -12 16 -12 8 0 -6 11 -4 13 8
8 9 -3 18 -1 21 6 2 7 5 7 5 2 1 -10 180 -11 261 -2 14 2 40 0 58 -4 21 -5 32
-3 32 5 0 6 5 4 10 -4 6 -9 10 -10 10 -3 0 12 18 20 61 28 12 3 26 9 29 15 4
6 14 12 22 14 8 1 23 10 32 19 10 9 22 14 28 11 7 -4 8 -2 4 5 -4 6 -1 14 8
17 8 3 18 14 21 25 4 11 10 17 14 15 4 -3 16 12 26 32 11 20 24 43 29 51 6 7
11 19 13 27 6 27 11 49 13 52 2 1 3 10 4 20 1 9 5 23 9 30 5 6 4 12 0 12 -5 0
-7 17 -5 38 2 20 3 54 4 74 0 22 4 35 10 32 6 -4 3 5 -6 18 -9 14 -13 27 -10
30 10 10 12 58 2 58 -5 0 -5 8 -1 18 10 21 10 43 0 60 -5 6 -5 12 0 12 4 0 8
14 8 30 1 17 -3 30 -7 30 -4 0 -4 10 1 22 4 13 5 34 2 48 -4 14 -6 36 -4 50 7
58 8 86 1 106 -3 11 -2 27 2 34 5 8 4 22 -1 32 -5 10 -6 18 -1 18 10 0 9 50
-1 67 -4 6 -3 14 2 17 5 3 5 21 1 41 -4 19 -5 37 -1 39 5 4 6 61 1 61 -1 0 -3
15 -5 33 -5 45 -35 132 -46 132 -5 0 -9 7 -9 15 0 19 -114 137 -123 128 -4 -3
-7 -2 -7 4 0 6 -8 13 -17 16 -10 4 -36 13 -58 22 -22 8 -78 18 -124 20 -46 3
-88 8 -92 11 -5 3 -9 2 -9 -3 0 -9 -123 -8 -146 1 -8 3 -14 2 -14 -2 0 -8
-124 -6 -146 2 -8 3 -14 2 -14 -2 0 -8 -124 -6 -146 2 -8 3 -14 2 -14 -3 0 -4
-23 -5 -50 -1 -28 4 -52 4 -55 2 -7 -7 -94 -6 -102 1 -3 4 -13 2 -23 -3 -10
-5 -20 -7 -23 -3 -5 5 -70 7 -89 3 -22 -4 -99 -2 -105 3 -3 4 -13 2 -23 -3
-10 -5 -20 -7 -23 -3 -5 5 -70 7 -89 3 -22 -4 -99 -2 -105 3 -3 4 -13 2 -23
-3 -10 -5 -20 -7 -23 -3 -5 5 -70 7 -89 3 -22 -4 -99 -2 -105 3 -3 4 -13 2
-23 -3 -10 -5 -20 -7 -23 -3 -5 5 -70 7 -89 3 -22 -4 -99 -2 -105 3 -3 4 -13
2 -23 -3 -10 -5 -20 -7 -23 -3 -6 5 -68 7 -92 3 -24 -4 -116 -1 -125 5 -6 3
-10 3 -10 -2 0 -9 -123 -8 -146 1 -8 3 -14 2 -14 -2 0 -8 -124 -6 -146 2 -8 3
-14 2 -14 -2 0 -8 -124 -6 -146 2 -8 3 -14 2 -14 -2 0 -8 -118 -7 -127 2 -3 3
-13 1 -23 -4 -10 -5 -20 -7 -23 -3 -5 5 -70 7 -89 3 -22 -4 -99 -2 -105 3 -3
4 -13 2 -23 -3 -10 -5 -20 -7 -23 -3 -5 5 -70 7 -89 3 -22 -4 -99 -2 -105 3
-3 4 -13 2 -22 -3 -10 -5 -23 -5 -29 -1 -7 4 -33 5 -58 1 -24 -4 -47 -3 -50 2
-3 4 -13 4 -23 -2 -10 -5 -21 -7 -24 -3 -5 5 -70 7 -89 3 -22 -4 -99 -2 -105
3 -3 4 -13 2 -23 -3 -10 -5 -20 -7 -23 -3 -5 5 -70 7 -89 3 -22 -4 -99 -2
-105 3 -3 4 -13 2 -23 -3 -10 -5 -20 -7 -23 -3 -5 5 -70 7 -89 3 -22 -4 -99
-2 -105 3 -3 4 -13 2 -23 -3 -10 -5 -20 -7 -23 -3 -5 5 -70 7 -89 3 -22 -4
-99 -2 -105 3 -3 4 -13 2 -23 -3 -10 -5 -20 -7 -23 -4 -6 6 -87 11 -92 6z"/>
<path d="M3855 3800 c-3 -5 -1 -10 4 -10 6 0 11 5 11 10 0 6 -2 10 -4 10 -3 0
-8 -4 -11 -10z"/>
<path d="M3814 3776 c1 -8 5 -18 8 -22 4 -3 5 1 4 10 -1 8 -5 18 -8 22 -4 3
-5 -1 -4 -10z"/>
<path d="M3639 3753 c-13 -16 -12 -17 4 -4 16 13 21 21 13 21 -2 0 -10 -8 -17
-17z"/>
<path d="M3670 3760 c0 -5 5 -10 11 -10 5 0 7 5 4 10 -3 6 -8 10 -11 10 -2 0
-4 -4 -4 -10z"/>
<path d="M3666 3722 c-2 -4 4 -8 14 -8 10 0 16 4 14 8 -3 4 -9 8 -14 8 -5 0
-11 -4 -14 -8z"/>
<path d="M3715 3720 c3 -5 8 -10 11 -10 2 0 4 5 4 10 0 6 -5 10 -11 10 -5 0
-7 -4 -4 -10z"/>
<path d="M3555 3690 c-4 -6 -11 -7 -17 -4 -7 4 -8 2 -4 -5 6 -9 11 -9 22 0 14
11 18 19 10 19 -3 0 -8 -5 -11 -10z"/>
<path d="M3676 3687 c3 -10 9 -15 12 -12 3 3 0 11 -7 18 -10 9 -11 8 -5 -6z"/>
<path d="M3990 3696 c0 -2 8 -10 18 -17 15 -13 16 -12 3 4 -13 16 -21 21 -21
13z"/>
<path d="M3650 3659 c0 -5 5 -7 10 -4 6 3 10 8 10 11 0 2 -4 4 -10 4 -5 0 -10
-5 -10 -11z"/>
<path d="M3715 3629 c-4 -6 -5 -12 -2 -15 2 -3 7 2 10 11 7 17 1 20 -8 4z"/>
<path d="M3634 3622 c4 -3 14 -7 22 -8 9 -1 13 0 10 4 -4 3 -14 7 -22 8 -9 1
-13 0 -10 -4z"/>
<path d="M3493 3605 c0 -8 4 -12 9 -9 5 3 6 10 3 15 -9 13 -12 11 -12 -6z"/>
<path d="M3456 3602 c-3 -5 1 -9 9 -9 8 0 12 4 9 9 -3 4 -7 8 -9 8 -2 0 -6 -4
-9 -8z"/>
<path d="M3590 3585 c0 -7 30 -13 34 -7 3 4 -4 9 -15 9 -10 1 -19 0 -19 -2z"/>
<path d="M3675 3571 c-3 -5 -2 -12 3 -15 5 -3 9 1 9 9 0 17 -3 19 -12 6z"/>
<path d="M3490 3539 c0 -5 5 -7 10 -4 6 3 10 8 10 11 0 2 -4 4 -10 4 -5 0 -10
-5 -10 -11z"/>
<path d="M3390 3521 c0 -6 4 -13 10 -16 6 -3 7 1 4 9 -7 18 -14 21 -14 7z"/>
<path d="M3415 3460 c3 -5 8 -10 11 -10 2 0 4 5 4 10 0 6 -5 10 -11 10 -5 0
-7 -4 -4 -10z"/>
<path d="M3450 3460 c0 -5 5 -10 11 -10 5 0 7 5 4 10 -3 6 -8 10 -11 10 -2 0
-4 -4 -4 -10z"/>
<path d="M3314 3449 c-3 -6 -2 -15 3 -20 5 -5 9 -1 9 11 0 23 -2 24 -12 9z"/>
<path d="M3475 3420 c-3 -5 -1 -10 4 -10 6 0 11 5 11 10 0 6 -2 10 -4 10 -3 0
-8 -4 -11 -10z"/>
<path d="M3414 3396 c1 -8 5 -18 8 -22 4 -3 5 1 4 10 -1 8 -5 18 -8 22 -4 3
-5 -1 -4 -10z"/>
<path d="M3330 3339 c0 -5 5 -7 10 -4 6 3 10 8 10 11 0 2 -4 4 -10 4 -5 0 -10
-5 -10 -11z"/>
<path d="M3379 3348 c-5 -18 -6 -38 -1 -34 7 8 12 36 6 36 -2 0 -4 -1 -5 -2z"/>
<path d="M3295 3300 c-3 -5 -1 -10 4 -10 6 0 11 5 11 10 0 6 -2 10 -4 10 -3 0
-8 -4 -11 -10z"/>
<path d="M3391 3287 c-8 -10 -7 -14 2 -14 8 0 14 6 14 14 0 7 -1 13 -2 13 -2
0 -8 -6 -14 -13z"/>
<path d="M3315 3229 c-4 -6 -5 -12 -2 -15 2 -3 7 2 10 11 7 17 1 20 -8 4z"/>
<path d="M3206 3182 c-3 -5 1 -9 9 -9 8 0 12 4 9 9 -3 4 -7 8 -9 8 -2 0 -6 -4
-9 -8z"/>
<path d="M3025 3159 c-3 -4 2 -6 10 -5 21 3 28 13 10 13 -9 0 -18 -4 -20 -8z"/>
<path d="M3073 3145 c0 -8 4 -12 9 -9 5 3 6 10 3 15 -9 13 -12 11 -12 -6z"/>
<path d="M470 3096 c0 -2 8 -10 18 -17 15 -13 16 -12 3 4 -13 16 -21 21 -21
13z"/>
<path d="M3075 3059 c-3 -4 2 -6 10 -5 21 3 28 13 10 13 -9 0 -18 -4 -20 -8z"/>
<path d="M3015 3020 c-3 -5 -1 -10 4 -10 6 0 11 5 11 10 0 6 -2 10 -4 10 -3 0
-8 -4 -11 -10z"/>
<path d="M590 2940 c0 -5 5 -10 11 -10 5 0 7 5 4 10 -3 6 -8 10 -11 10 -2 0
-4 -4 -4 -10z"/>
<path d="M2786 2922 c-2 -4 4 -8 14 -8 10 0 16 4 14 8 -3 4 -9 8 -14 8 -5 0
-11 -4 -14 -8z"/>
<path d="M619 2908 c-5 -18 -6 -38 -1 -34 7 8 12 36 6 36 -2 0 -4 -1 -5 -2z"/>
<path d="M695 2860 c-3 -5 -1 -10 4 -10 6 0 11 5 11 10 0 6 -2 10 -4 10 -3 0
-8 -4 -11 -10z"/>
<path d="M2855 2860 c3 -5 8 -10 11 -10 2 0 4 5 4 10 0 6 -5 10 -11 10 -5 0
-7 -4 -4 -10z"/>
<path d="M2915 2860 c-3 -5 -1 -10 4 -10 6 0 11 5 11 10 0 6 -2 10 -4 10 -3 0
-8 -4 -11 -10z"/>
<path d="M650 2845 c0 -5 5 -17 10 -25 5 -8 10 -10 10 -5 0 6 -5 17 -10 25 -5
8 -10 11 -10 5z"/>
<path d="M656 2773 c-6 -14 -5 -15 5 -6 7 7 10 15 7 18 -3 3 -9 -2 -12 -12z"/>
<path d="M2814 2776 c1 -8 5 -18 8 -22 4 -3 5 1 4 10 -1 8 -5 18 -8 22 -4 3
-5 -1 -4 -10z"/>
<path d="M2776 2742 c-3 -5 1 -9 9 -9 8 0 12 4 9 9 -3 4 -7 8 -9 8 -2 0 -6 -4
-9 -8z"/>
<path d="M820 2726 c0 -2 8 -10 18 -17 15 -13 16 -12 3 4 -13 16 -21 21 -21
13z"/>
<path d="M676 2695 c-9 -26 -7 -32 5 -12 6 10 9 21 6 23 -2 3 -7 -2 -11 -11z"/>
<path d="M793 2685 c0 -8 4 -12 9 -9 5 3 6 10 3 15 -9 13 -12 11 -12 -6z"/>
<path d="M2545 2679 c-3 -4 2 -6 10 -5 21 3 28 13 10 13 -9 0 -18 -4 -20 -8z"/>
<path d="M879 2633 c-13 -16 -12 -17 4 -4 9 7 17 15 17 17 0 8 -8 3 -21 -13z"/>
<path d="M799 2593 c-13 -16 -12 -17 4 -4 9 7 17 15 17 17 0 8 -8 3 -21 -13z"/>
<path d="M2595 2600 c3 -5 8 -10 11 -10 2 0 4 5 4 10 0 6 -5 10 -11 10 -5 0
-7 -4 -4 -10z"/>
<path d="M835 2579 c-3 -4 2 -6 10 -5 21 3 28 13 10 13 -9 0 -18 -4 -20 -8z"/>
<path d="M2555 2560 c-3 -5 -1 -10 4 -10 6 0 11 5 11 10 0 6 -2 10 -4 10 -3 0
-8 -4 -11 -10z"/>
<path d="M2595 2509 c-4 -6 -5 -12 -2 -15 2 -3 7 2 10 11 7 17 1 20 -8 4z"/>
<path d="M2359 2498 c-5 -18 -6 -38 -1 -34 7 8 12 36 6 36 -2 0 -4 -1 -5 -2z"/>
<path d="M1039 2473 c-13 -16 -12 -17 4 -4 9 7 17 15 17 17 0 8 -8 3 -21 -13z"/>
<path d="M2380 2486 c0 -2 8 -10 18 -17 15 -13 16 -12 3 4 -13 16 -21 21 -21
13z"/>
<path d="M2459 2448 c-5 -18 -6 -38 -1 -34 7 8 12 36 6 36 -2 0 -4 -1 -5 -2z"/>
<path d="M995 2419 c-3 -4 2 -6 10 -5 21 3 28 13 10 13 -9 0 -18 -4 -20 -8z"/>
<path d="M1195 2409 c-4 -6 -5 -12 -2 -15 2 -3 7 2 10 11 7 17 1 20 -8 4z"/>
<path d="M2276 2393 c-6 -14 -5 -15 5 -6 7 7 10 15 7 18 -3 3 -9 -2 -12 -12z"/>
<path d="M2309 2363 c-13 -16 -12 -17 4 -4 9 7 17 15 17 17 0 8 -8 3 -21 -13z"/>
<path d="M1193 2355 c0 -8 4 -12 9 -9 5 3 6 10 3 15 -9 13 -12 11 -12 -6z"/>
<path d="M2199 2338 c-5 -18 -6 -38 -1 -34 7 8 12 36 6 36 -2 0 -4 -1 -5 -2z"/>
<path d="M1170 2300 c0 -5 5 -10 11 -10 5 0 7 5 4 10 -3 6 -8 10 -11 10 -2 0
-4 -4 -4 -10z"/>
<path d="M11915 2280 c-3 -5 -1 -10 4 -10 6 0 11 5 11 10 0 6 -2 10 -4 10 -3
0 -8 -4 -11 -10z"/>
<path d="M1175 2259 c-3 -4 2 -6 10 -5 21 3 28 13 10 13 -9 0 -18 -4 -20 -8z"/>
<path d="M2274 2262 c4 -3 14 -7 22 -8 9 -1 13 0 10 4 -4 3 -14 7 -22 8 -9 1
-13 0 -10 -4z"/>
<path d="M1324 2242 c4 -3 14 -7 22 -8 9 -1 13 0 10 4 -4 3 -14 7 -22 8 -9 1
-13 0 -10 -4z"/>
<path d="M2106 2242 c-2 -4 4 -8 14 -8 10 0 16 4 14 8 -3 4 -9 8 -14 8 -5 0
-11 -4 -14 -8z"/>
<path d="M6814 2222 c4 -3 14 -7 22 -8 9 -1 13 0 10 4 -4 3 -14 7 -22 8 -9 1
-13 0 -10 -4z"/>
<path d="M1375 2209 c-4 -6 -5 -12 -2 -15 2 -3 7 2 10 11 7 17 1 20 -8 4z"/>
<path d="M2255 2200 c-3 -5 -1 -10 4 -10 6 0 11 5 11 10 0 6 -2 10 -4 10 -3 0
-8 -4 -11 -10z"/>
<path d="M6746 2198 c3 -5 10 -6 15 -3 13 9 11 12 -6 12 -8 0 -12 -4 -9 -9z"/>
<path d="M1295 2180 c3 -5 8 -10 11 -10 2 0 4 5 4 10 0 6 -5 10 -11 10 -5 0
-7 -4 -4 -10z"/>
<path d="M11815 2181 c-3 -5 -2 -12 3 -15 5 -3 9 1 9 9 0 17 -3 19 -12 6z"/>
<path d="M2134 2156 c1 -8 5 -18 8 -22 4 -3 5 1 4 10 -1 8 -5 18 -8 22 -4 3
-5 -1 -4 -10z"/>
<path d="M6953 2155 c0 -8 4 -12 9 -9 5 3 6 10 3 15 -9 13 -12 11 -12 -6z"/>
<path d="M1295 2140 c-3 -5 -1 -10 4 -10 6 0 11 5 11 10 0 6 -2 10 -4 10 -3 0
-8 -4 -11 -10z"/>
<path d="M6895 2140 c-3 -5 -1 -10 4 -10 6 0 11 5 11 10 0 6 -2 10 -4 10 -3 0
-8 -4 -11 -10z"/>
<path d="M7260 2140 c-9 -6 -10 -10 -3 -10 6 0 15 5 18 10 8 12 4 12 -15 0z"/>
<path d="M7319 2133 c-13 -16 -12 -17 4 -4 16 13 21 21 13 21 -2 0 -10 -8 -17
-17z"/>
<path d="M7600 2140 c-9 -6 -10 -10 -3 -10 6 0 15 5 18 10 8 12 4 12 -15 0z"/>
<path d="M7640 2135 c-7 -9 -11 -17 -9 -20 3 -2 10 5 17 15 14 24 10 26 -8 5z"/>
<path d="M7920 2140 c-9 -6 -10 -10 -3 -10 6 0 15 5 18 10 8 12 4 12 -15 0z"/>
<path d="M8117 2128 c19 -21 31 -25 14 -5 -6 8 -9 16 -6 19 3 2 -2 5 -10 5
-13 0 -13 -3 2 -19z"/>
<path d="M8220 2140 c-9 -6 -10 -10 -3 -10 6 0 15 5 18 10 8 12 4 12 -15 0z"/>
<path d="M8279 2133 c-13 -16 -12 -17 4 -4 16 13 21 21 13 21 -2 0 -10 -8 -17
-17z"/>
<path d="M8560 2140 c-9 -6 -10 -10 -3 -10 6 0 15 5 18 10 8 12 4 12 -15 0z"/>
<path d="M8600 2135 c-7 -9 -11 -17 -9 -20 3 -2 10 5 17 15 14 24 10 26 -8 5z"/>
<path d="M8880 2140 c-9 -6 -10 -10 -3 -10 6 0 15 5 18 10 8 12 4 12 -15 0z"/>
<path d="M9077 2128 c19 -21 31 -25 14 -5 -6 8 -9 16 -6 19 3 2 -2 5 -10 5
-13 0 -13 -3 2 -19z"/>
<path d="M9180 2140 c-9 -6 -10 -10 -3 -10 6 0 15 5 18 10 8 12 4 12 -15 0z"/>
<path d="M9239 2133 c-13 -16 -12 -17 4 -4 16 13 21 21 13 21 -2 0 -10 -8 -17
-17z"/>
<path d="M9520 2140 c-9 -6 -10 -10 -3 -10 6 0 15 5 18 10 8 12 4 12 -15 0z"/>
<path d="M9560 2135 c-7 -9 -11 -17 -9 -20 3 -2 10 5 17 15 14 24 10 26 -8 5z"/>
<path d="M9840 2140 c-9 -6 -10 -10 -3 -10 6 0 15 5 18 10 8 12 4 12 -15 0z"/>
<path d="M10037 2128 c19 -21 31 -25 14 -5 -6 8 -9 16 -6 19 3 2 -2 5 -10 5
-13 0 -13 -3 2 -19z"/>
<path d="M10140 2140 c-9 -6 -10 -10 -3 -10 6 0 15 5 18 10 8 12 4 12 -15 0z"/>
<path d="M10199 2133 c-13 -16 -12 -17 4 -4 16 13 21 21 13 21 -2 0 -10 -8
-17 -17z"/>
<path d="M10480 2140 c-9 -6 -10 -10 -3 -10 6 0 15 5 18 10 8 12 4 12 -15 0z"/>
<path d="M10520 2135 c-7 -9 -11 -17 -9 -20 3 -2 10 5 17 15 14 24 10 26 -8 5z"/>
<path d="M10800 2140 c-9 -6 -10 -10 -3 -10 6 0 15 5 18 10 8 12 4 12 -15 0z"/>
<path d="M10997 2128 c19 -21 31 -25 14 -5 -6 8 -9 16 -6 19 3 2 -2 5 -10 5
-13 0 -13 -3 2 -19z"/>
<path d="M11100 2140 c-9 -6 -10 -10 -3 -10 6 0 15 5 18 10 8 12 4 12 -15 0z"/>
<path d="M11159 2133 c-13 -16 -12 -17 4 -4 16 13 21 21 13 21 -2 0 -10 -8
-17 -17z"/>
<path d="M11430 2136 c7 -7 13 -7 20 0 6 6 3 10 -10 10 -13 0 -16 -4 -10 -10z"/>
<path d="M11475 2142 c3 -3 -1 -12 -7 -21 -8 -10 -4 -9 10 3 26 23 26 23 7 23
-8 0 -13 -3 -10 -5z"/>
<path d="M7094 2120 c0 -13 4 -16 10 -10 7 7 7 13 0 20 -6 6 -10 3 -10 -10z"/>
<path d="M7556 2127 c3 -10 9 -15 12 -12 3 3 0 11 -7 18 -10 9 -11 8 -5 -6z"/>
<path d="M7793 2126 c0 -15 22 -15 34 0 4 5 4 6 -1 2 -5 -4 -14 -3 -21 2 -8 7
-12 5 -12 -4z"/>
<path d="M7850 2136 c0 -2 8 -10 18 -17 15 -13 16 -12 3 4 -13 16 -21 21 -21
13z"/>
<path d="M8516 2127 c3 -10 9 -15 12 -12 3 3 0 11 -7 18 -10 9 -11 8 -5 -6z"/>
<path d="M8753 2126 c0 -15 22 -15 34 0 4 5 4 6 -1 2 -5 -4 -14 -3 -21 2 -8 7
-12 5 -12 -4z"/>
<path d="M8810 2136 c0 -2 8 -10 18 -17 15 -13 16 -12 3 4 -13 16 -21 21 -21
13z"/>
<path d="M9476 2127 c3 -10 9 -15 12 -12 3 3 0 11 -7 18 -10 9 -11 8 -5 -6z"/>
<path d="M9713 2126 c0 -15 22 -15 34 0 4 5 4 6 -1 2 -5 -4 -14 -3 -21 2 -8 7
-12 5 -12 -4z"/>
<path d="M9770 2136 c0 -2 8 -10 18 -17 15 -13 16 -12 3 4 -13 16 -21 21 -21
13z"/>
<path d="M10436 2127 c3 -10 9 -15 12 -12 3 3 0 11 -7 18 -10 9 -11 8 -5 -6z"/>
<path d="M10673 2126 c0 -15 22 -15 34 0 4 5 4 6 -1 2 -5 -4 -14 -3 -21 2 -8
7 -12 5 -12 -4z"/>
<path d="M10730 2136 c0 -2 8 -10 18 -17 15 -13 16 -12 3 4 -13 16 -21 21 -21
13z"/>
<path d="M11291 2127 c-8 -10 -7 -14 2 -14 8 0 14 6 14 14 0 7 -1 13 -2 13 -2
0 -8 -6 -14 -13z"/>
<path d="M11339 2127 c8 -9 16 -15 19 -12 3 3 12 -1 21 -8 14 -11 14 -10 2 6
-8 9 -16 15 -19 12 -3 -3 -12 1 -21 8 -14 11 -14 10 -2 -6z"/>
<path d="M11396 2127 c3 -10 9 -15 12 -12 3 3 0 11 -7 18 -10 9 -11 8 -5 -6z"/>
<path d="M11573 2126 c0 -13 40 -16 52 -4 4 4 -1 5 -12 4 -10 -2 -23 0 -29 5
-6 5 -11 4 -11 -5z"/>
<path d="M7030 2126 c0 -2 7 -7 16 -10 8 -3 12 -2 9 4 -6 10 -25 14 -25 6z"/>
<path d="M7520 2126 c0 -2 8 -10 18 -17 15 -13 16 -12 3 4 -13 16 -21 21 -21
13z"/>
<path d="M7659 2113 c-13 -16 -12 -17 4 -4 16 13 21 21 13 21 -2 0 -10 -8 -17
-17z"/>
<path d="M7955 2120 c3 -5 8 -10 11 -10 2 0 4 5 4 10 0 6 -5 10 -11 10 -5 0
-7 -4 -4 -10z"/>
<path d="M8480 2126 c0 -2 8 -10 18 -17 15 -13 16 -12 3 4 -13 16 -21 21 -21
13z"/>
<path d="M8619 2113 c-13 -16 -12 -17 4 -4 16 13 21 21 13 21 -2 0 -10 -8 -17
-17z"/>
<path d="M8915 2120 c3 -5 8 -10 11 -10 2 0 4 5 4 10 0 6 -5 10 -11 10 -5 0
-7 -4 -4 -10z"/>
<path d="M9440 2126 c0 -2 8 -10 18 -17 15 -13 16 -12 3 4 -13 16 -21 21 -21
13z"/>
<path d="M9579 2113 c-13 -16 -12 -17 4 -4 16 13 21 21 13 21 -2 0 -10 -8 -17
-17z"/>
<path d="M9875 2120 c3 -5 8 -10 11 -10 2 0 4 5 4 10 0 6 -5 10 -11 10 -5 0
-7 -4 -4 -10z"/>
<path d="M10400 2126 c0 -2 8 -10 18 -17 15 -13 16 -12 3 4 -13 16 -21 21 -21
13z"/>
<path d="M10539 2113 c-13 -16 -12 -17 4 -4 16 13 21 21 13 21 -2 0 -10 -8
-17 -17z"/>
<path d="M10835 2120 c3 -5 8 -10 11 -10 2 0 4 5 4 10 0 6 -5 10 -11 10 -5 0
-7 -4 -4 -10z"/>
<path d="M11505 2120 c-3 -6 1 -7 9 -4 18 7 21 14 7 14 -6 0 -13 -4 -16 -10z"/>
<path d="M7910 2116 c0 -2 8 -10 18 -17 15 -13 16 -12 3 4 -13 16 -21 21 -21
13z"/>
<path d="M8870 2116 c0 -2 8 -10 18 -17 15 -13 16 -12 3 4 -13 16 -21 21 -21
13z"/>
<path d="M9830 2116 c0 -2 8 -10 18 -17 15 -13 16 -12 3 4 -13 16 -21 21 -21
13z"/>
<path d="M10790 2116 c0 -2 8 -10 18 -17 15 -13 16 -12 3 4 -13 16 -21 21 -21
13z"/>
<path d="M2135 2101 c-3 -5 -2 -12 3 -15 5 -3 9 1 9 9 0 17 -3 19 -12 6z"/>
<path d="M7280 2095 c-7 -9 -11 -17 -9 -20 3 -2 10 5 17 15 14 24 10 26 -8 5z"/>
<path d="M8239 2093 c-13 -16 -12 -17 4 -4 16 13 21 21 13 21 -2 0 -10 -8 -17
-17z"/>
<path d="M9199 2093 c-13 -16 -12 -17 4 -4 16 13 21 21 13 21 -2 0 -10 -8 -17
-17z"/>
<path d="M10159 2093 c-13 -16 -12 -17 4 -4 16 13 21 21 13 21 -2 0 -10 -8
-17 -17z"/>
<path d="M11119 2093 c-13 -16 -12 -17 4 -4 9 7 17 15 17 17 0 8 -8 3 -21 -13z"/>
<path d="M11735 2101 c-3 -5 -2 -12 3 -15 5 -3 9 1 9 9 0 17 -3 19 -12 6z"/>
<path d="M1315 2089 c-4 -6 -5 -12 -2 -15 2 -3 7 2 10 11 7 17 1 20 -8 4z"/>
<path d="M7055 2089 c-4 -6 -5 -12 -2 -15 2 -3 7 2 10 11 7 17 1 20 -8 4z"/>
<path d="M7373 2085 c0 -8 4 -12 9 -9 5 3 6 10 3 15 -9 13 -12 11 -12 -6z"/>
<path d="M7409 2083 c-13 -16 -12 -17 4 -4 16 13 21 21 13 21 -2 0 -10 -8 -17
-17z"/>
<path d="M7815 2091 c-3 -5 -2 -12 3 -15 5 -3 9 1 9 9 0 17 -3 19 -12 6z"/>
<path d="M8095 2091 c-3 -5 -2 -12 3 -15 5 -3 9 1 9 9 0 17 -3 19 -12 6z"/>
<path d="M8333 2085 c0 -8 4 -12 9 -9 5 3 6 10 3 15 -9 13 -12 11 -12 -6z"/>
<path d="M8369 2083 c-13 -16 -12 -17 4 -4 16 13 21 21 13 21 -2 0 -10 -8 -17
-17z"/>
<path d="M8775 2091 c-3 -5 -2 -12 3 -15 5 -3 9 1 9 9 0 17 -3 19 -12 6z"/>
<path d="M9055 2091 c-3 -5 -2 -12 3 -15 5 -3 9 1 9 9 0 17 -3 19 -12 6z"/>
<path d="M9293 2085 c0 -8 4 -12 9 -9 5 3 6 10 3 15 -9 13 -12 11 -12 -6z"/>
<path d="M9329 2083 c-13 -16 -12 -17 4 -4 16 13 21 21 13 21 -2 0 -10 -8 -17
-17z"/>
<path d="M9735 2091 c-3 -5 -2 -12 3 -15 5 -3 9 1 9 9 0 17 -3 19 -12 6z"/>
<path d="M10015 2091 c-3 -5 -2 -12 3 -15 5 -3 9 1 9 9 0 17 -3 19 -12 6z"/>
<path d="M10253 2085 c0 -8 4 -12 9 -9 5 3 6 10 3 15 -9 13 -12 11 -12 -6z"/>
<path d="M10289 2083 c-13 -16 -12 -17 4 -4 9 7 17 15 17 17 0 8 -8 3 -21 -13z"/>
<path d="M10695 2091 c-3 -5 -2 -12 3 -15 5 -3 9 1 9 9 0 17 -3 19 -12 6z"/>
<path d="M10975 2091 c-3 -5 -2 -12 3 -15 5 -3 9 1 9 9 0 17 -3 19 -12 6z"/>
<path d="M11496 2087 c3 -10 9 -15 12 -12 3 3 0 11 -7 18 -10 9 -11 8 -5 -6z"/>
<path d="M7320 2085 c0 -2 6 -8 13 -14 10 -8 14 -7 14 2 0 8 -6 14 -14 14 -7
0 -13 -1 -13 -2z"/>
<path d="M7516 2078 c3 -5 10 -6 15 -3 13 9 11 12 -6 12 -8 0 -12 -4 -9 -9z"/>
<path d="M7666 2078 c3 -5 10 -6 15 -3 13 9 11 12 -6 12 -8 0 -12 -4 -9 -9z"/>
<path d="M8476 2078 c3 -5 10 -6 15 -3 13 9 11 12 -6 12 -8 0 -12 -4 -9 -9z"/>
<path d="M8626 2078 c3 -5 10 -6 15 -3 13 9 11 12 -6 12 -8 0 -12 -4 -9 -9z"/>
<path d="M9436 2078 c3 -5 10 -6 15 -3 13 9 11 12 -6 12 -8 0 -12 -4 -9 -9z"/>
<path d="M9586 2078 c3 -5 10 -6 15 -3 13 9 11 12 -6 12 -8 0 -12 -4 -9 -9z"/>
<path d="M10396 2078 c3 -5 10 -6 15 -3 13 9 11 12 -6 12 -8 0 -12 -4 -9 -9z"/>
<path d="M10546 2078 c3 -5 10 -6 15 -3 13 9 11 12 -6 12 -8 0 -12 -4 -9 -9z"/>
<path d="M11213 2075 c0 -8 4 -12 9 -9 5 3 6 10 3 15 -9 13 -12 11 -12 -6z"/>
<path d="M11359 2073 c-12 -16 -12 -17 2 -6 9 7 20 9 24 5 5 -4 5 -1 1 6 -9
16 -11 15 -27 -5z"/>
<path d="M11556 2073 c-6 -14 -5 -15 5 -6 7 7 10 15 7 18 -3 3 -9 -2 -12 -12z"/>
<path d="M1376 2058 c3 -4 11 -5 19 -1 21 7 19 12 -4 10 -11 0 -18 -5 -15 -9z"/>
<path d="M1510 2066 c0 -2 7 -7 16 -10 8 -3 12 -2 9 4 -6 10 -25 14 -25 6z"/>
<path d="M1555 2060 c3 -5 8 -10 11 -10 2 0 4 5 4 10 0 6 -5 10 -11 10 -5 0
-7 -4 -4 -10z"/>
<path d="M2094 2062 c4 -3 14 -7 22 -8 9 -1 13 0 10 4 -4 3 -14 7 -22 8 -9 1
-13 0 -10 -4z"/>
<path d="M7116 2061 c-3 -5 2 -15 12 -22 15 -12 16 -12 5 2 -7 9 -10 19 -6 22
3 4 4 7 0 7 -3 0 -8 -4 -11 -9z"/>
<path d="M7870 2062 c0 -5 7 -9 15 -9 8 0 12 4 9 9 -3 4 -9 8 -15 8 -5 0 -9
-4 -9 -8z"/>
<path d="M8026 2062 c-3 -5 1 -9 9 -9 8 0 15 4 15 9 0 4 -4 8 -9 8 -6 0 -12
-4 -15 -8z"/>
<path d="M8830 2062 c0 -5 7 -9 15 -9 8 0 12 4 9 9 -3 4 -9 8 -15 8 -5 0 -9
-4 -9 -8z"/>
<path d="M8986 2062 c-3 -5 1 -9 9 -9 8 0 15 4 15 9 0 4 -4 8 -9 8 -6 0 -12
-4 -15 -8z"/>
<path d="M9790 2062 c0 -5 7 -9 15 -9 8 0 12 4 9 9 -3 4 -9 8 -15 8 -5 0 -9
-4 -9 -8z"/>
<path d="M9946 2062 c-3 -5 1 -9 9 -9 8 0 15 4 15 9 0 4 -4 8 -9 8 -6 0 -12
-4 -15 -8z"/>
<path d="M10750 2062 c0 -5 7 -9 15 -9 8 0 12 4 9 9 -3 4 -9 8 -15 8 -5 0 -9
-4 -9 -8z"/>
<path d="M10906 2062 c-3 -5 1 -9 9 -9 8 0 15 4 15 9 0 4 -4 8 -9 8 -6 0 -12
-4 -15 -8z"/>
<path d="M1673 2046 c0 -15 22 -15 34 0 4 5 4 6 -1 2 -5 -4 -14 -3 -21 2 -8 7
-12 5 -12 -4z"/>
<path d="M1776 2042 c-3 -5 1 -9 9 -9 8 0 12 4 9 9 -3 4 -7 8 -9 8 -2 0 -6 -4
-9 -8z"/>
<path d="M6995 2039 c-3 -4 2 -6 10 -5 21 3 28 13 10 13 -9 0 -18 -4 -20 -8z"/>
<path d="M7313 2033 c0 -9 4 -10 14 -2 7 6 13 12 13 14 0 1 -6 2 -13 2 -8 0
-14 -6 -14 -14z"/>
<path d="M7450 2039 c0 -5 5 -7 10 -4 6 3 10 8 10 11 0 2 -4 4 -10 4 -5 0 -10
-5 -10 -11z"/>
<path d="M7735 2040 c3 -5 8 -10 11 -10 2 0 4 5 4 10 0 6 -5 10 -11 10 -5 0
-7 -4 -4 -10z"/>
<path d="M8300 2046 c0 -2 8 -10 18 -17 15 -13 16 -12 3 4 -13 16 -21 21 -21
13z"/>
<path d="M8410 2039 c0 -5 5 -7 10 -4 6 3 10 8 10 11 0 2 -4 4 -10 4 -5 0 -10
-5 -10 -11z"/>
<path d="M8695 2040 c3 -5 8 -10 11 -10 2 0 4 5 4 10 0 6 -5 10 -11 10 -5 0
-7 -4 -4 -10z"/>
<path d="M9260 2046 c0 -2 8 -10 18 -17 15 -13 16 -12 3 4 -13 16 -21 21 -21
13z"/>
<path d="M9370 2039 c0 -5 5 -7 10 -4 6 3 10 8 10 11 0 2 -4 4 -10 4 -5 0 -10
-5 -10 -11z"/>
<path d="M9655 2040 c3 -5 8 -10 11 -10 2 0 4 5 4 10 0 6 -5 10 -11 10 -5 0
-7 -4 -4 -10z"/>
<path d="M10220 2046 c0 -2 8 -10 18 -17 15 -13 16 -12 3 4 -13 16 -21 21 -21
13z"/>
<path d="M10330 2039 c0 -5 5 -7 10 -4 6 3 10 8 10 11 0 2 -4 4 -10 4 -5 0
-10 -5 -10 -11z"/>
<path d="M10615 2040 c3 -5 8 -10 11 -10 2 0 4 5 4 10 0 6 -5 10 -11 10 -5 0
-7 -4 -4 -10z"/>
<path d="M11187 2039 c7 -7 15 -10 18 -7 3 3 -2 9 -12 12 -14 6 -15 5 -6 -5z"/>
<path d="M11226 2038 c3 -5 10 -6 15 -3 13 9 11 12 -6 12 -8 0 -12 -4 -9 -9z"/>
<path d="M1450 2020 c0 -5 5 -10 11 -10 5 0 7 5 4 10 -3 6 -8 10 -11 10 -2 0
-4 -4 -4 -10z"/>
<path d="M2034 2022 c4 -3 14 -7 22 -8 9 -1 13 0 10 4 -4 3 -14 7 -22 8 -9 1
-13 0 -10 -4z"/>
<path d="M7160 2020 c-9 -6 -10 -10 -3 -10 6 0 15 5 18 10 8 12 4 12 -15 0z"/>
<path d="M11435 2021 c-3 -5 -2 -12 3 -15 5 -3 9 1 9 9 0 17 -3 19 -12 6z"/>
<path d="M7455 2009 c-4 -6 -5 -12 -2 -15 2 -3 7 2 10 11 7 17 1 20 -8 4z"/>
<path d="M7745 2000 c10 -11 20 -20 23 -20 3 0 -3 9 -13 20 -10 11 -20 20 -23
20 -3 0 3 -9 13 -20z"/>
<path d="M8409 2003 c-13 -16 -12 -17 4 -4 16 13 21 21 13 21 -2 0 -10 -8 -17
-17z"/>
<path d="M8696 2007 c3 -10 9 -15 12 -12 3 3 0 11 -7 18 -10 9 -11 8 -5 -6z"/>
<path d="M10610 2016 c0 -2 8 -10 18 -17 15 -13 16 -12 3 4 -13 16 -21 21 -21
13z"/>
<path d="M11235 2009 c-4 -6 -5 -12 -2 -15 2 -3 7 2 10 11 7 17 1 20 -8 4z"/>
<path d="M1760 2000 c-9 -6 -10 -10 -3 -10 6 0 15 5 18 10 8 12 4 12 -15 0z"/>
<path d="M1956 1998 c3 -5 10 -6 15 -3 13 9 11 12 -6 12 -8 0 -12 -4 -9 -9z"/>
<path d="M1996 2002 c-3 -5 1 -9 9 -9 8 0 12 4 9 9 -3 4 -7 8 -9 8 -2 0 -6 -4
-9 -8z"/>
<path d="M8006 1998 c3 -5 10 -6 15 -3 13 9 11 12 -6 12 -8 0 -12 -4 -9 -9z"/>
<path d="M8106 2002 c-3 -5 1 -9 9 -9 8 0 12 4 9 9 -3 4 -7 8 -9 8 -2 0 -6 -4
-9 -8z"/>
<path d="M8316 1998 c3 -5 10 -6 15 -3 13 9 11 12 -6 12 -8 0 -12 -4 -9 -9z"/>
<path d="M8355 1999 c-3 -4 2 -6 10 -5 21 3 28 13 10 13 -9 0 -18 -4 -20 -8z"/>
<path d="M8856 1998 c3 -5 10 -6 15 -3 13 9 11 12 -6 12 -8 0 -12 -4 -9 -9z"/>
<path d="M8955 2001 c-3 -5 -2 -12 3 -15 5 -3 9 1 9 9 0 17 -3 19 -12 6z"/>
<path d="M9926 1998 c3 -5 10 -6 15 -3 13 9 11 12 -6 12 -8 0 -12 -4 -9 -9z"/>
<path d="M10026 2002 c-3 -5 1 -9 9 -9 8 0 12 4 9 9 -3 4 -7 8 -9 8 -2 0 -6
-4 -9 -8z"/>
<path d="M10236 1998 c3 -5 10 -6 15 -3 13 9 11 12 -6 12 -8 0 -12 -4 -9 -9z"/>
<path d="M10654 2002 c4 -3 14 -7 22 -8 9 -1 13 0 10 4 -4 3 -14 7 -22 8 -9 1
-13 0 -10 -4z"/>
<path d="M11195 2000 c3 -5 8 -10 11 -10 2 0 4 5 4 10 0 6 -5 10 -11 10 -5 0
-7 -4 -4 -10z"/>
<path d="M11696 2002 c-3 -5 1 -9 9 -9 8 0 12 4 9 9 -3 4 -7 8 -9 8 -2 0 -6
-4 -9 -8z"/>
<path d="M6995 1979 c-3 -4 2 -6 10 -5 21 3 28 13 10 13 -9 0 -18 -4 -20 -8z"/>
<path d="M7535 1980 c3 -5 8 -10 11 -10 2 0 4 5 4 10 0 6 -5 10 -11 10 -5 0
-7 -4 -4 -10z"/>
<path d="M9410 1979 c0 -5 5 -7 10 -4 6 3 10 8 10 11 0 2 -4 4 -10 4 -5 0 -10
-5 -10 -11z"/>
<path d="M11330 1979 c0 -5 5 -7 10 -4 6 3 10 8 10 11 0 2 -4 4 -10 4 -5 0
-10 -5 -10 -11z"/>
<path d="M11450 1979 c0 -5 5 -7 10 -4 6 3 10 8 10 11 0 2 -4 4 -10 4 -5 0
-10 -5 -10 -11z"/>
<path d="M11490 1979 c0 -5 5 -7 10 -4 6 3 10 8 10 11 0 2 -4 4 -10 4 -5 0
-10 -5 -10 -11z"/>
<path d="M1750 1976 c0 -2 8 -10 18 -17 15 -13 16 -12 3 4 -13 16 -21 21 -21
13z"/>
<path d="M1916 1967 c3 -10 9 -15 12 -12 3 3 0 11 -7 18 -10 9 -11 8 -5 -6z"/>
<path d="M8113 1965 c0 -8 4 -12 9 -9 5 3 6 10 3 15 -9 13 -12 11 -12 -6z"/>
<path d="M8355 1971 c-3 -5 -2 -12 3 -15 5 -3 9 1 9 9 0 17 -3 19 -12 6z"/>
<path d="M8394 1960 c0 -13 4 -16 10 -10 7 7 7 13 0 20 -6 6 -10 3 -10 -10z"/>
<path d="M8595 1971 c-3 -5 -2 -12 3 -15 5 -3 9 1 9 9 0 17 -3 19 -12 6z"/>
<path d="M8636 1967 c3 -10 9 -15 12 -12 3 3 0 11 -7 18 -10 9 -11 8 -5 -6z"/>
<path d="M8675 1969 c-4 -6 -5 -12 -2 -15 2 -3 7 2 10 11 7 17 1 20 -8 4z"/>
<path d="M9716 1967 c3 -10 9 -15 12 -12 3 3 0 11 -7 18 -10 9 -11 8 -5 -6z"/>
<path d="M9755 1969 c-4 -6 -5 -12 -2 -15 2 -3 7 2 10 11 7 17 1 20 -8 4z"/>
<path d="M9793 1965 c0 -8 4 -12 9 -9 5 3 6 10 3 15 -9 13 -12 11 -12 -6z"/>
<path d="M10033 1965 c0 -8 4 -12 9 -9 5 3 6 10 3 15 -9 13 -12 11 -12 -6z"/>
<path d="M10273 1965 c0 -8 4 -12 9 -9 5 3 6 10 3 15 -9 13 -12 11 -12 -6z"/>
<path d="M10673 1965 c0 -8 4 -12 9 -9 5 3 6 10 3 15 -9 13 -12 11 -12 -6z"/>
<path d="M10915 1971 c-3 -5 -2 -12 3 -15 5 -3 9 1 9 9 0 17 -3 19 -12 6z"/>
<path d="M10954 1960 c0 -13 4 -16 10 -10 7 7 7 13 0 20 -6 6 -10 3 -10 -10z"/>
<path d="M11155 1971 c-3 -5 -2 -12 3 -15 5 -3 9 1 9 9 0 17 -3 19 -12 6z"/>
<path d="M11196 1967 c3 -10 9 -15 12 -12 3 3 0 11 -7 18 -10 9 -11 8 -5 -6z"/>
<path d="M11235 1969 c-4 -6 -5 -12 -2 -15 2 -3 7 2 10 11 7 17 1 20 -8 4z"/>
<path d="M7139 1968 c-5 -18 -6 -38 -1 -34 7 8 12 36 6 36 -2 0 -4 -1 -5 -2z"/>
<path d="M7177 1955 c-4 -8 -3 -16 1 -19 4 -3 9 4 9 15 2 23 -3 25 -10 4z"/>
<path d="M7750 1961 c0 -6 4 -13 10 -16 6 -3 7 1 4 9 -7 18 -14 21 -14 7z"/>
<path d="M7853 1951 c0 -11 5 -18 9 -15 4 3 5 11 1 19 -7 21 -12 19 -10 -4z"/>
<path d="M8070 1959 c0 -5 5 -7 10 -4 6 3 10 8 10 11 0 2 -4 4 -10 4 -5 0 -10
-5 -10 -11z"/>
<path d="M8430 1959 c0 -5 5 -7 10 -4 6 3 10 8 10 11 0 2 -4 4 -10 4 -5 0 -10
-5 -10 -11z"/>
<path d="M8950 1961 c0 -6 4 -13 10 -16 6 -3 7 1 4 9 -7 18 -14 21 -14 7z"/>
<path d="M9097 1955 c-4 -8 -3 -16 1 -19 4 -3 9 4 9 15 2 23 -3 25 -10 4z"/>
<path d="M9196 1953 c-6 -14 -5 -15 5 -6 7 7 10 15 7 18 -3 3 -9 -2 -12 -12z"/>
<path d="M9990 1959 c0 -5 5 -7 10 -4 6 3 10 8 10 11 0 2 -4 4 -10 4 -5 0 -10
-5 -10 -11z"/>
<path d="M10630 1959 c0 -5 5 -7 10 -4 6 3 10 8 10 11 0 2 -4 4 -10 4 -5 0
-10 -5 -10 -11z"/>
<path d="M10990 1959 c0 -5 5 -7 10 -4 6 3 10 8 10 11 0 2 -4 4 -10 4 -5 0
-10 -5 -10 -11z"/>
<path d="M11417 1955 c-4 -8 -3 -16 1 -19 4 -3 9 4 9 15 2 23 -3 25 -10 4z"/>
<path d="M2035 1949 c-4 -6 -5 -12 -2 -15 2 -3 7 2 10 11 7 17 1 20 -8 4z"/>
<path d="M9535 1951 c-3 -5 -2 -12 3 -15 5 -3 9 1 9 9 0 17 -3 19 -12 6z"/>
<path d="M1486 1942 c-3 -5 1 -9 9 -9 8 0 12 4 9 9 -3 4 -7 8 -9 8 -2 0 -6 -4
-9 -8z"/>
<path d="M1575 1940 c-3 -5 -1 -10 4 -10 6 0 11 5 11 10 0 6 -2 10 -4 10 -3 0
-8 -4 -11 -10z"/>
<path d="M1955 1940 c3 -5 8 -10 11 -10 2 0 4 5 4 10 0 6 -5 10 -11 10 -5 0
-7 -4 -4 -10z"/>
<path d="M7095 1941 c-3 -5 -2 -12 3 -15 5 -3 9 1 9 9 0 17 -3 19 -12 6z"/>
<path d="M7250 1939 c0 -5 5 -7 10 -4 6 3 10 8 10 11 0 2 -4 4 -10 4 -5 0 -10
-5 -10 -11z"/>
<path d="M7295 1940 c3 -5 8 -10 11 -10 2 0 4 5 4 10 0 6 -5 10 -11 10 -5 0
-7 -4 -4 -10z"/>
<path d="M7535 1940 c3 -5 8 -10 11 -10 2 0 4 5 4 10 0 6 -5 10 -11 10 -5 0
-7 -4 -4 -10z"/>
<path d="M7895 1940 c3 -5 8 -10 11 -10 2 0 4 5 4 10 0 6 -5 10 -11 10 -5 0
-7 -4 -4 -10z"/>
<path d="M8255 1940 c-3 -5 -1 -10 4 -10 6 0 11 5 11 10 0 6 -2 10 -4 10 -3 0
-8 -4 -11 -10z"/>
<path d="M8735 1940 c3 -5 8 -10 11 -10 2 0 4 5 4 10 0 6 -5 10 -11 10 -5 0
-7 -4 -4 -10z"/>
<path d="M8775 1940 c-3 -5 -1 -10 4 -10 6 0 11 5 11 10 0 6 -2 10 -4 10 -3 0
-8 -4 -11 -10z"/>
<path d="M9050 1939 c0 -5 5 -7 10 -4 6 3 10 8 10 11 0 2 -4 4 -10 4 -5 0 -10
-5 -10 -11z"/>
<path d="M9135 1940 c-3 -5 -1 -10 4 -10 6 0 11 5 11 10 0 6 -2 10 -4 10 -3 0
-8 -4 -11 -10z"/>
<path d="M9410 1939 c0 -5 5 -7 10 -4 6 3 10 8 10 11 0 2 -4 4 -10 4 -5 0 -10
-5 -10 -11z"/>
<path d="M9610 1940 c0 -5 5 -10 11 -10 5 0 7 5 4 10 -3 6 -8 10 -11 10 -2 0
-4 -4 -4 -10z"/>
<path d="M9650 1939 c0 -5 5 -7 10 -4 6 3 10 8 10 11 0 2 -4 4 -10 4 -5 0 -10
-5 -10 -11z"/>
<path d="M10175 1940 c-3 -5 -1 -10 4 -10 6 0 11 5 11 10 0 6 -2 10 -4 10 -3
0 -8 -4 -11 -10z"/>
<path d="M10370 1940 c0 -5 5 -10 11 -10 5 0 7 5 4 10 -3 6 -8 10 -11 10 -2 0
-4 -4 -4 -10z"/>
<path d="M10450 1939 c0 -5 5 -7 10 -4 6 3 10 8 10 11 0 2 -4 4 -10 4 -5 0
-10 -5 -10 -11z"/>
<path d="M10815 1940 c-3 -5 -1 -10 4 -10 6 0 11 5 11 10 0 6 -2 10 -4 10 -3
0 -8 -4 -11 -10z"/>
<path d="M11330 1940 c0 -5 5 -10 11 -10 5 0 7 5 4 10 -3 6 -8 10 -11 10 -2 0
-4 -4 -4 -10z"/>
<path d="M11474 1942 c4 -3 14 -7 22 -8 9 -1 13 0 10 4 -4 3 -14 7 -22 8 -9 1
-13 0 -10 -4z"/>
<path d="M7460 1920 c-9 -6 -10 -10 -3 -10 6 0 15 5 18 10 8 12 4 12 -15 0z"/>
<path d="M8106 1922 c-3 -5 1 -9 9 -9 8 0 15 4 15 9 0 4 -4 8 -9 8 -6 0 -12
-4 -15 -8z"/>
<path d="M8900 1920 c-9 -6 -10 -10 -3 -10 6 0 15 5 18 10 8 12 4 12 -15 0z"/>
<path d="M8945 1919 c-3 -4 2 -6 10 -5 21 3 28 13 10 13 -9 0 -18 -4 -20 -8z"/>
<path d="M9487 1919 c7 -7 15 -10 18 -7 3 3 -2 9 -12 12 -14 6 -15 5 -6 -5z"/>
<path d="M10026 1922 c-3 -5 1 -9 9 -9 8 0 15 4 15 9 0 4 -4 8 -9 8 -6 0 -12
-4 -15 -8z"/>
<path d="M10497 1915 c-4 -8 -3 -16 1 -19 4 -3 9 4 9 15 2 23 -3 25 -10 4z"/>
<path d="M10666 1922 c-3 -5 1 -9 9 -9 8 0 15 4 15 9 0 4 -4 8 -9 8 -6 0 -12
-4 -15 -8z"/>
<path d="M7676 1907 c3 -10 9 -15 12 -12 3 3 0 11 -7 18 -10 9 -11 8 -5 -6z"/>
<path d="M9275 1910 c-4 -6 -11 -7 -17 -4 -7 4 -8 2 -4 -5 6 -9 11 -9 22 0 14
11 18 19 10 19 -3 0 -8 -5 -11 -10z"/>
<path d="M1526 1898 c3 -5 10 -6 15 -3 13 9 11 12 -6 12 -8 0 -12 -4 -9 -9z"/>
<path d="M1650 1900 c0 -5 5 -10 11 -10 5 0 7 5 4 10 -3 6 -8 10 -11 10 -2 0
-4 -4 -4 -10z"/>
<path d="M1810 1899 c0 -5 5 -7 10 -4 6 3 10 8 10 11 0 2 -4 4 -10 4 -5 0 -10
-5 -10 -11z"/>
<path d="M1894 1896 c1 -8 5 -18 8 -22 4 -3 5 1 4 10 -1 8 -5 18 -8 22 -4 3
-5 -1 -4 -10z"/>
<path d="M7376 1902 c-2 -4 -1 -14 4 -22 7 -11 9 -9 7 8 -1 24 -3 26 -11 14z"/>
<path d="M7613 1895 c0 -8 4 -12 9 -9 5 3 6 10 3 15 -9 13 -12 11 -12 -6z"/>
<path d="M8510 1900 c0 -5 5 -10 11 -10 5 0 7 5 4 10 -3 6 -8 10 -11 10 -2 0
-4 -4 -4 -10z"/>
<path d="M8576 1902 c-2 -4 -1 -14 4 -22 7 -11 9 -9 7 8 -1 24 -3 26 -11 14z"/>
<path d="M9095 1901 c-3 -5 -2 -12 3 -15 5 -3 9 1 9 9 0 17 -3 19 -12 6z"/>
<path d="M9335 1901 c-3 -5 -2 -12 3 -15 5 -3 9 1 9 9 0 17 -3 19 -12 6z"/>
<path d="M9406 1898 c3 -5 10 -6 15 -3 13 9 11 12 -6 12 -8 0 -12 -4 -9 -9z"/>
<path d="M9573 1889 c-2 -23 3 -25 10 -4 4 8 3 16 -1 19 -4 3 -9 -4 -9 -15z"/>
<path d="M9813 1889 c-2 -23 3 -25 10 -4 4 8 3 16 -1 19 -4 3 -9 -4 -9 -15z"/>
<path d="M9875 1900 c-3 -5 -1 -10 4 -10 6 0 11 5 11 10 0 6 -2 10 -4 10 -3 0
-8 -4 -11 -10z"/>
<path d="M10296 1898 c3 -5 10 -6 15 -3 13 9 11 12 -6 12 -8 0 -12 -4 -9 -9z"/>
<path d="M10413 1895 c0 -8 4 -12 9 -9 5 3 6 10 3 15 -9 13 -12 11 -12 -6z"/>
<path d="M11070 1900 c0 -5 5 -10 11 -10 5 0 7 5 4 10 -3 6 -8 10 -11 10 -2 0
-4 -4 -4 -10z"/>
<path d="M11136 1902 c-2 -4 -1 -14 4 -22 7 -11 9 -9 7 8 -1 24 -3 26 -11 14z"/>
<path d="M8273 1885 c0 -8 4 -12 9 -9 5 3 6 10 3 15 -9 13 -12 11 -12 -6z"/>
<path d="M8755 1891 c-3 -5 -2 -12 3 -15 5 -3 9 1 9 9 0 17 -3 19 -12 6z"/>
<path d="M10193 1885 c0 -8 4 -12 9 -9 5 3 6 10 3 15 -9 13 -12 11 -12 -6z"/>
<path d="M10833 1885 c0 -8 4 -12 9 -9 5 3 6 10 3 15 -9 13 -12 11 -12 -6z"/>
<path d="M11315 1891 c-3 -5 -2 -12 3 -15 5 -3 9 1 9 9 0 17 -3 19 -12 6z"/>
<path d="M7315 1880 c3 -5 8 -10 11 -10 2 0 4 5 4 10 0 6 -5 10 -11 10 -5 0
-7 -4 -4 -10z"/>
<path d="M8810 1886 c0 -2 7 -7 16 -10 8 -3 12 -2 9 4 -6 10 -25 14 -25 6z"/>
<path d="M9635 1880 c3 -5 8 -10 11 -10 2 0 4 5 4 10 0 6 -5 10 -11 10 -5 0
-7 -4 -4 -10z"/>
<path d="M1714 1862 c4 -3 14 -7 22 -8 9 -1 13 0 10 4 -4 3 -14 7 -22 8 -9 1
-13 0 -10 -4z"/>
<path d="M8740 1846 c0 -2 8 -10 18 -17 15 -13 16 -12 3 4 -13 16 -21 21 -21
13z"/>
<path d="M9159 1833 c-13 -16 -12 -17 4 -4 16 13 21 21 13 21 -2 0 -10 -8 -17
-17z"/>
<path d="M7586 1802 c-2 -4 4 -8 14 -8 10 0 16 4 14 8 -3 4 -9 8 -14 8 -5 0
-11 -4 -14 -8z"/>
<path d="M8959 1753 c-13 -16 -12 -17 4 -4 16 13 21 21 13 21 -2 0 -10 -8 -17
-17z"/>
<path d="M1790 1641 c0 -6 4 -13 10 -16 6 -3 7 1 4 9 -7 18 -14 21 -14 7z"/>
</g>
</svg>
