<?xml version="1.0" standalone="no"?>
<!DOCTYPE svg PUBLIC "-//W3C//DTD SVG 20010904//EN"
 "http://www.w3.org/TR/2001/REC-SVG-20010904/DTD/svg10.dtd">
<svg version="1.0" xmlns="http://www.w3.org/2000/svg"
 width="362.000000pt" height="362.000000pt" viewBox="0 0 362.000000 362.000000"
 preserveAspectRatio="xMidYMid meet">
<metadata>
Created by potrace 1.14, written by Peter Selinger 2001-2017
</metadata>
<g transform="translate(0.000000,362.000000) scale(0.100000,-0.100000)"
fill="#000000" stroke="none">
<path d="M2552 3279 c-27 -10 -36 -31 -28 -63 7 -27 49 -46 103 -46 18 0 65
-11 105 -25 162 -57 276 -167 338 -330 19 -50 23 -82 25 -194 2 -117 5 -136
21 -148 25 -18 48 -16 69 7 26 29 32 181 11 285 -45 223 -215 415 -427 483
-101 33 -183 44 -217 31z"/>
<path d="M2488 3049 c-40 -23 -10 -89 40 -89 83 0 195 -53 255 -119 70 -77 96
-159 90 -279 -4 -80 5 -102 42 -102 42 0 56 30 57 121 1 46 -2 100 -6 119 -12
63 -74 175 -123 224 -93 92 -292 162 -355 125z"/>
<path d="M2436 2825 c-29 -29 -5 -75 40 -75 31 0 87 -25 122 -55 35 -29 54
-79 54 -138 -1 -64 6 -84 29 -90 32 -8 48 2 57 36 23 84 -12 198 -82 260 -69
63 -186 96 -220 62z"/>
<path d="M157 2620 c-48 -15 -94 -57 -111 -102 -15 -39 -16 -142 -14 -1035 l3
-991 31 -39 c16 -21 47 -46 68 -57 36 -18 82 -19 1140 -19 1088 0 1102 1 1141
21 43 22 76 60 92 107 7 20 10 365 9 1010 -1 961 -1 981 -21 1014 -11 19 -37
48 -58 65 l-39 31 -1106 2 c-609 1 -1120 -2 -1135 -7z m463 -429 c30 -33 121
-128 201 -213 210 -220 264 -279 264 -288 0 -8 -54 -67 -266 -290 -81 -85
-172 -181 -202 -213 l-56 -59 -83 87 c-46 48 -83 93 -83 100 0 7 66 82 146
167 81 84 158 167 172 184 l26 31 -27 25 c-64 58 -317 331 -317 343 0 11 154
183 165 185 3 0 30 -27 60 -59z m1186 -969 l1 -92 -69 0 c-37 0 -178 -1 -313
-1 -135 0 -264 1 -288 1 l-43 0 0 88 c1 48 4 89 8 92 3 3 163 5 355 5 l348 0
1 -93z"/>
</g>
</svg>
