<?xml version="1.0" standalone="no"?>
<!DOCTYPE svg PUBLIC "-//W3C//DTD SVG 20010904//EN"
 "http://www.w3.org/TR/2001/REC-SVG-20010904/DTD/svg10.dtd">
<svg version="1.0" xmlns="http://www.w3.org/2000/svg"
 width="1224.000000pt" height="1224.000000pt" viewBox="0 0 1224.000000 1224.000000"
 preserveAspectRatio="xMidYMid meet">
<metadata>
Created by potrace 1.14, written by Peter Selinger 2001-2017
</metadata>
<g transform="translate(0.000000,1224.000000) scale(0.100000,-0.100000)"
fill="#000000" stroke="none">
<path d="M1700 10818 c-126 -19 -138 -29 -645 -536 -439 -438 -470 -471 -502
-539 -25 -51 -35 -89 -38 -132 -2 -33 -6 -65 -10 -70 -3 -6 -2 -11 3 -11 5 0
13 -21 17 -47 4 -27 11 -53 17 -60 5 -7 7 -17 3 -23 -3 -5 1 -13 9 -16 9 -3
16 -11 16 -18 0 -6 9 -18 20 -26 11 -8 20 -19 20 -25 0 -5 25 -33 56 -62 31
-29 53 -57 49 -62 -4 -7 0 -8 11 -4 13 5 15 2 9 -18 -4 -17 -3 -20 3 -10 8 11
24 -1 76 -53 36 -37 64 -72 60 -77 -3 -5 -2 -9 3 -8 23 4 35 -2 29 -17 -3 -8
-2 -13 3 -10 10 7 61 -38 61 -54 0 -5 5 -9 12 -8 6 2 17 -7 23 -19 7 -13 15
-20 18 -16 4 3 7 -1 7 -10 0 -9 5 -17 11 -17 16 0 78 -73 72 -84 -4 -5 -1 -6
5 -2 13 8 65 -38 55 -48 -4 -3 0 -6 7 -6 14 0 50 -38 50 -53 0 -6 3 -8 6 -4 8
8 34 -18 34 -33 0 -6 5 -8 10 -5 13 8 13 -8 -1 -22 -8 -8 -7 -13 2 -18 7 -5
10 -4 5 3 -3 6 -2 13 4 17 14 9 73 -52 64 -66 -4 -7 -3 -9 4 -5 11 6 72 -48
72 -65 0 -6 5 -7 10 -4 6 3 10 -2 10 -11 0 -10 3 -15 6 -12 9 9 126 -111 119
-122 -4 -6 -10 -8 -14 -6 -4 3 -8 -1 -8 -9 0 -13 4 -12 19 2 17 15 20 14 58
-27 22 -24 40 -47 40 -52 0 -4 5 -8 11 -8 16 0 78 -73 72 -84 -4 -5 -1 -6 5
-2 13 8 65 -38 55 -48 -4 -3 -2 -6 4 -6 14 0 93 -77 93 -91 0 -5 5 -7 10 -4 5
3 10 2 10 -4 0 -5 -3 -11 -7 -14 -5 -2 -2 -2 5 0 19 4 75 -54 66 -68 -4 -7 -3
-9 4 -5 11 6 72 -48 72 -65 0 -6 5 -7 10 -4 6 3 10 -2 10 -11 0 -10 3 -14 6
-11 8 7 74 -62 74 -77 0 -5 3 -7 6 -3 8 7 54 -38 54 -53 0 -6 4 -8 10 -5 6 3
10 2 10 -4 0 -5 -3 -11 -7 -14 -5 -2 -2 -2 5 0 19 4 75 -54 66 -68 -4 -7 -3
-9 4 -5 11 6 72 -48 72 -65 0 -6 4 -7 10 -4 6 3 10 -2 10 -11 0 -10 3 -14 6
-11 4 3 20 -8 35 -25 25 -26 27 -33 17 -47 -11 -14 -11 -14 4 -3 14 11 20 9
43 -12 15 -14 24 -30 20 -36 -3 -6 -10 -8 -14 -6 -4 3 -8 -1 -8 -9 0 -10 4
-12 12 -5 7 5 16 6 20 2 5 -4 5 -1 1 6 -13 22 4 13 39 -22 18 -19 31 -37 28
-40 -4 -3 1 -6 11 -6 9 0 14 -4 11 -10 -3 -5 0 -10 7 -10 10 0 9 -3 -2 -11
-12 -8 -10 -9 8 -4 20 6 27 -2 23 -27 0 -4 6 -5 14 -2 14 6 20 -6 16 -29 -1
-5 4 -5 10 -1 14 8 81 -65 72 -79 -4 -6 -1 -7 6 -2 13 8 54 -28 44 -39 -4 -3
-2 -6 4 -6 15 0 53 -36 53 -50 0 -7 3 -11 6 -7 9 9 56 -42 49 -53 -4 -6 -3
-10 2 -9 21 4 32 -3 38 -22 4 -11 9 -18 12 -15 10 10 45 -32 38 -45 -5 -7 -4
-10 2 -6 6 4 32 -13 58 -38 25 -25 43 -45 38 -45 -4 0 3 -6 17 -13 14 -8 24
-19 23 -25 -2 -7 1 -12 7 -12 12 0 90 -79 90 -91 0 -5 5 -9 10 -9 15 0 60 -47
53 -54 -4 -3 1 -6 11 -6 9 0 14 -4 11 -10 -3 -5 -1 -10 5 -10 15 0 60 -46 53
-54 -4 -3 0 -6 8 -6 8 0 19 -8 25 -18 10 -16 -12 -42 -177 -207 -104 -104
-189 -193 -189 -197 0 -4 -6 -8 -12 -8 -7 -1 -26 -19 -43 -40 -16 -21 -33 -39
-37 -40 -10 0 -48 -38 -48 -47 -1 -5 -19 -21 -40 -38 -21 -16 -39 -33 -40 -36
0 -7 -111 -119 -119 -120 -3 -1 -46 -45 -96 -99 -49 -54 -92 -98 -96 -99 -4
-1 -209 -202 -209 -206 0 -3 -275 -275 -280 -276 -3 0 -27 -27 -55 -59 -27
-32 -54 -59 -60 -60 -5 0 -23 -19 -40 -40 -16 -21 -36 -39 -42 -40 -7 0 -13
-4 -13 -8 0 -12 -68 -82 -80 -82 -5 0 -10 -7 -10 -15 0 -8 -6 -15 -12 -16 -7
0 -35 -27 -63 -59 -27 -32 -56 -59 -62 -59 -7 -1 -13 -5 -13 -9 0 -9 -139
-152 -149 -152 -3 -1 -19 -19 -36 -40 -16 -21 -36 -39 -42 -40 -7 0 -13 -4
-13 -8 0 -7 -15 -24 -100 -107 -16 -16 -30 -33 -30 -37 0 -5 -7 -8 -15 -8 -8
0 -15 -4 -15 -8 0 -12 -68 -82 -80 -82 -5 0 -10 -7 -10 -15 0 -8 -6 -15 -12
-16 -7 0 -35 -27 -63 -59 -27 -32 -56 -59 -62 -59 -7 -1 -13 -5 -13 -9 0 -9
-140 -152 -149 -152 -3 -1 -19 -19 -36 -40 -16 -21 -33 -39 -38 -40 -7 0 -47
-37 -47 -44 0 -2 -31 -34 -68 -72 -70 -70 -122 -146 -122 -178 0 -9 -3 -15 -8
-13 -6 5 -10 -23 -16 -108 -1 -16 2 -50 6 -75 5 -25 10 -52 11 -61 2 -8 13
-31 25 -51 12 -19 22 -40 22 -47 0 -6 5 -11 10 -11 6 0 10 -4 10 -9 0 -5 50
-59 110 -119 61 -61 110 -116 110 -123 0 -7 3 -10 6 -6 8 7 74 -59 74 -74 0
-7 3 -10 6 -6 8 8 150 -132 146 -145 -1 -5 1 -7 6 -4 5 3 23 -9 40 -27 17 -17
38 -38 47 -45 8 -7 13 -18 9 -23 -3 -5 0 -8 8 -7 7 2 12 -3 10 -10 -1 -6 1
-11 6 -10 4 2 34 -23 66 -54 43 -43 56 -63 51 -75 -5 -14 -3 -15 6 -6 9 9 15
9 25 -2 8 -7 14 -19 14 -26 0 -7 3 -9 6 -6 4 3 19 -7 34 -23 15 -16 30 -26 34
-22 4 3 4 -2 0 -12 -5 -13 -4 -17 3 -13 6 4 13 4 15 0 1 -5 24 -27 50 -51 26
-23 44 -42 40 -42 -4 0 6 -7 22 -15 15 -8 35 -15 42 -15 8 0 14 -4 14 -10 0
-5 7 -10 16 -10 8 0 12 -5 9 -10 -3 -5 -1 -10 4 -10 6 0 11 4 11 10 0 5 6 7
14 4 8 -3 12 -13 9 -22 -3 -11 -2 -13 4 -6 4 7 42 12 88 12 102 1 117 3 132
14 7 5 17 7 23 3 5 -3 10 -3 10 2 0 4 21 20 48 35 55 32 102 72 102 88 0 5 4
10 9 10 17 0 61 46 53 55 -4 5 1 5 11 2 10 -4 17 -1 17 6 1 13 34 57 45 57 9
0 85 82 85 92 0 4 4 8 9 8 11 0 9 -19 -3 -40 -7 -12 -6 -13 4 -3 8 7 15 22 17
34 4 25 34 68 48 69 6 0 17 9 25 19 7 11 18 17 23 14 6 -3 7 -2 4 3 -6 11 83
101 96 96 5 -1 6 2 3 7 -3 5 8 19 24 32 16 13 30 30 30 38 0 8 7 11 20 8 12
-3 18 -1 14 5 -4 6 16 32 44 58 28 26 48 51 44 55 -4 4 3 5 16 2 13 -3 20 -1
16 4 -8 13 57 79 70 72 5 -3 6 -1 2 6 -4 6 0 14 8 17 9 3 14 10 11 14 -6 10
23 22 35 15 4 -3 6 4 3 15 -3 12 0 20 6 20 7 0 9 -6 5 -13 -4 -7 -3 -9 2 -4 5
5 9 12 9 16 0 13 127 136 137 133 5 -1 7 1 4 6 -3 5 4 15 15 22 10 8 19 20 19
27 0 12 13 17 33 14 4 0 6 5 5 11 -2 7 4 12 13 12 12 -1 15 5 11 20 -3 11 -1
18 3 14 8 -7 75 59 75 74 0 4 5 8 11 8 5 0 7 -5 3 -12 -4 -7 -3 -8 4 -4 7 4
12 13 12 21 0 8 9 20 20 28 11 8 17 17 12 22 -4 4 3 6 15 3 14 -4 20 -2 17 6
-4 10 21 41 62 75 14 12 17 12 25 0 7 -9 8 -5 3 14 -4 17 -2 27 6 27 6 0 8 -6
4 -12 -4 -8 -3 -10 2 -5 5 5 9 12 9 15 0 15 141 152 151 148 7 -3 10 3 7 14
-3 12 2 20 16 25 12 3 21 11 21 16 0 5 6 9 14 9 8 0 18 5 22 12 4 7 3 8 -4 4
-7 -4 -12 -2 -12 3 0 6 4 11 9 11 14 0 119 109 112 116 -3 4 2 4 12 1 10 -4
17 -2 17 6 0 12 29 45 66 76 14 12 17 12 25 0 7 -9 8 -5 3 14 -4 17 -2 27 6
27 6 0 8 -5 4 -12 -5 -7 -3 -8 5 -4 7 5 10 14 7 22 -3 8 0 14 7 14 7 0 23 14
36 31 14 17 30 28 38 25 8 -4 11 -1 7 5 -7 13 35 61 47 53 5 -3 9 2 9 10 0 9
4 16 9 16 5 0 13 9 16 21 5 14 13 19 26 16 10 -3 17 -1 13 4 -6 10 26 58 39
59 11 0 87 81 87 93 0 5 9 7 19 4 12 -3 18 0 15 7 -5 12 95 113 108 109 5 -2
7 0 6 5 -5 14 70 84 83 77 7 -5 10 -4 6 3 -8 12 2 42 13 42 5 0 6 -12 4 -27
-3 -15 -2 -25 1 -22 3 4 8 19 11 35 7 36 13 46 26 38 7 -4 8 -2 4 5 -4 7 2 15
16 20 13 6 19 10 14 10 -5 1 -1 10 9 21 10 11 22 17 28 13 6 -3 7 -1 3 5 -4 7
-2 12 3 12 6 0 11 7 11 15 0 8 6 15 14 15 8 0 17 7 20 16 3 8 11 12 16 9 6 -4
9 -3 8 2 -5 15 111 125 124 117 6 -4 8 -3 5 2 -3 6 -1 16 4 24 8 13 10 13 20
0 8 -12 9 -10 4 8 -5 18 -2 25 14 29 11 3 18 9 15 14 -3 5 1 9 8 10 7 1 21 2
30 3 10 0 17 5 17 10 -1 9 21 26 34 26 5 0 5 -5 2 -10 -3 -6 -1 -10 4 -10 6 0
11 4 11 9 0 17 -19 22 -40 11 -13 -7 -20 -7 -20 -1 0 14 36 32 44 23 4 -3 4 0
1 9 -3 9 6 25 25 42 16 15 30 25 30 22 0 -3 6 0 14 7 8 7 12 15 11 17 -6 5 43
51 55 51 5 0 10 -5 10 -11 0 -5 -4 -7 -10 -4 -5 3 -10 1 -10 -4 0 -6 3 -11 8
-11 4 0 8 -14 8 -30 1 -25 -1 -28 -12 -19 -9 7 -14 8 -14 1 0 -5 7 -12 15 -16
9 -3 12 -12 9 -23 -5 -14 -4 -15 4 -4 5 8 9 25 7 38 -2 20 1 23 19 18 l21 -6
-21 13 c-14 8 -20 21 -18 35 2 12 -1 25 -6 28 -6 4 -8 11 -5 16 7 11 26 12 24
2 -3 -20 2 -34 10 -29 5 4 11 0 14 -6 3 -7 4 -3 4 8 -1 12 -6 20 -12 18 -6 -3
-11 5 -12 17 -2 17 1 19 10 10 14 -14 27 -14 27 0 0 5 -4 7 -10 4 -5 -3 -10 1
-10 10 0 9 5 13 10 10 6 -3 10 -1 10 5 0 11 24 40 32 40 2 0 4 -9 5 -19 1 -14
-3 -18 -14 -14 -9 4 -6 -4 8 -19 13 -13 27 -23 31 -21 3 2 9 -3 11 -9 4 -10 6
-10 6 -1 1 7 -8 17 -19 23 -11 6 -18 16 -14 22 4 7 9 6 15 -3 6 -10 8 -8 7 8
-1 11 -7 19 -13 17 -6 -3 -11 5 -12 16 -2 19 0 19 23 4 22 -15 24 -15 18 0 -3
9 -10 13 -15 10 -5 -3 -9 2 -9 11 0 9 5 13 10 10 6 -3 10 0 10 7 1 16 93 108
109 108 7 0 9 5 6 10 -3 6 -1 10 5 10 6 0 8 5 4 11 -5 8 -1 8 14 0 33 -17 34
-27 5 -55 -36 -36 -53 -33 -18 4 16 17 25 30 21 30 -5 0 -17 -9 -27 -21 -9
-11 -20 -20 -23 -20 -23 3 -28 -1 -13 -10 13 -7 15 -15 8 -28 -6 -10 -6 -23 0
-32 7 -12 9 -12 10 1 1 8 0 22 -1 30 -1 8 1 12 5 8 12 -11 75 59 69 77 -3 8
-2 15 4 15 17 0 21 -27 7 -47 -17 -22 -19 -33 -5 -33 5 0 9 3 8 8 -1 4 4 17
11 30 15 29 -2 56 -30 47 -13 -4 -19 -1 -19 8 0 10 8 14 24 13 27 -3 39 14 29
40 -5 14 -3 14 15 3 19 -12 20 -15 6 -31 -9 -9 -14 -23 -11 -30 4 -9 6 -7 6 4
1 9 8 21 16 26 10 5 13 15 9 25 -3 9 -10 14 -15 11 -5 -3 -9 2 -9 11 0 9 5 13
10 10 6 -3 10 -2 10 4 0 22 82 99 106 99 33 0 54 -27 31 -39 -18 -11 -24 -39
-7 -39 5 0 7 8 3 18 -3 9 -3 14 2 10 4 -4 13 0 20 8 9 13 8 21 -9 38 -14 15
-25 19 -33 13 -18 -13 -16 1 1 19 9 9 17 10 21 4 8 -13 25 -13 25 1 0 5 -4 7
-10 4 -6 -3 -10 1 -10 10 0 9 5 13 10 10 6 -3 10 -1 10 5 0 15 46 60 54 53 3
-4 6 1 6 11 0 9 5 14 10 11 6 -3 10 -1 10 5 0 12 102 120 114 120 4 0 5 -4 2
-8 -3 -5 4 -16 15 -25 10 -9 19 -12 19 -7 0 6 -6 13 -13 16 -7 2 -13 14 -14
24 -1 11 2 18 8 15 5 -4 9 1 9 9 0 9 6 15 13 13 6 -1 11 6 11 15 -1 10 2 15 7
12 5 -3 9 0 9 6 0 6 5 8 10 5 6 -3 10 -2 10 4 0 19 129 143 141 135 7 -4 9 -3
6 4 -9 13 2 42 15 42 5 0 6 -4 3 -10 -3 -6 1 -7 10 -3 12 4 13 8 5 13 -7 4 -9
13 -5 20 5 8 13 6 28 -7 22 -18 22 -18 4 3 -18 21 -14 52 7 66 6 4 11 11 12
15 0 4 6 21 12 36 7 16 12 39 12 51 0 12 3 26 6 29 8 8 9 116 1 137 -3 8 -11
32 -17 52 -10 34 -100 181 -100 165 0 -4 -15 7 -33 25 -18 18 -31 36 -29 41 2
4 -1 7 -6 7 -14 0 -462 448 -462 462 0 6 -2 9 -6 6 -3 -3 -778 768 -1723 1713
-946 945 -1740 1732 -1766 1748 -85 54 -177 74 -275 59z m3680 -5298 c0 -5 -7
-10 -16 -10 -8 0 -12 5 -9 10 3 6 10 10 16 10 5 0 9 -4 9 -10z m-525 -530 c3
-5 -1 -10 -9 -10 -9 0 -16 5 -16 10 0 6 4 10 9 10 6 0 13 -4 16 -10z"/>
<path d="M9516 10722 c-2 -1 -25 -5 -52 -8 -27 -2 -60 -7 -74 -9 -14 -2 -42
-7 -64 -10 -39 -7 -59 -11 -98 -21 -13 -3 -27 -6 -33 -7 -5 -2 -16 -6 -22 -10
-7 -5 -13 -6 -13 -2 0 3 -16 -1 -35 -9 -19 -8 -35 -12 -35 -9 0 3 -7 0 -15 -7
-8 -7 -15 -9 -15 -5 0 4 -6 3 -12 -2 -7 -5 -35 -18 -63 -28 -100 -36 -353
-178 -411 -230 -48 -43 -75 -65 -79 -65 -15 0 -208 -206 -267 -285 -37 -49
-73 -97 -80 -105 -7 -8 -13 -17 -12 -20 1 -3 -9 -21 -22 -41 -72 -114 -166
-351 -199 -499 -9 -41 -19 -86 -22 -100 -23 -97 -32 -360 -18 -490 12 -105 14
-116 31 -195 4 -16 8 -37 9 -45 1 -8 5 -22 8 -30 3 -8 15 -49 28 -90 12 -41
25 -79 28 -85 3 -5 6 -12 6 -15 3 -21 31 -80 39 -80 5 0 7 -3 3 -6 -3 -4 4
-25 15 -48 12 -22 22 -44 23 -48 0 -4 6 -13 13 -20 6 -6 12 -16 12 -21 0 -8
127 -206 139 -217 3 -3 24 -27 46 -54 119 -148 275 -283 459 -395 84 -51 262
-138 300 -146 6 -1 24 -7 40 -14 16 -6 38 -13 50 -16 11 -2 22 -4 24 -6 1 -1
7 -3 12 -4 6 -1 12 -4 15 -5 3 -1 8 -3 13 -4 70 -16 89 -20 97 -21 6 -1 24 -5
40 -8 17 -4 46 -9 65 -11 19 -2 62 -7 95 -11 101 -13 319 -8 425 10 90 15 215
41 215 46 0 1 9 3 20 4 38 6 191 66 290 115 269 133 478 309 658 552 29 40 60
84 67 98 7 14 16 27 19 30 15 12 110 208 104 213 -3 4 -1 7 5 7 7 0 12 8 12
18 0 10 3 22 7 25 7 7 42 100 48 128 2 8 10 38 18 65 8 27 15 52 16 57 0 4 1
8 2 10 3 10 10 49 14 86 4 25 8 48 10 51 7 11 19 176 18 260 0 91 -9 222 -17
256 -2 12 -7 39 -10 60 -4 22 -9 48 -13 59 -3 11 -7 29 -8 40 -1 11 -4 27 -7
35 -3 8 -20 61 -38 116 -35 111 -112 279 -160 350 -16 25 -30 48 -30 51 0 6
-96 140 -114 159 -6 7 -42 46 -79 87 -83 93 -204 196 -317 271 -128 85 -351
195 -382 188 -5 -1 -8 2 -8 7 0 5 -10 11 -22 14 -13 3 -67 17 -122 31 -95 24
-153 36 -206 42 -14 1 -25 3 -25 4 0 7 -353 19 -359 12z"/>
<path d="M485 9360 c-3 -6 1 -7 9 -4 18 7 21 14 7 14 -6 0 -13 -4 -16 -10z"/>
<path d="M616 9222 c-3 -5 1 -9 9 -9 8 0 12 4 9 9 -3 4 -7 8 -9 8 -2 0 -6 -4
-9 -8z"/>
<path d="M655 9220 c-3 -5 -1 -10 4 -10 6 0 11 5 11 10 0 6 -2 10 -4 10 -3 0
-8 -4 -11 -10z"/>
<path d="M650 9180 c0 -5 5 -10 11 -10 5 0 7 5 4 10 -3 6 -8 10 -11 10 -2 0
-4 -4 -4 -10z"/>
<path d="M656 9102 c-2 -4 -1 -14 4 -22 7 -11 9 -9 7 8 -1 24 -3 26 -11 14z"/>
<path d="M780 9085 c0 -2 6 -8 13 -14 10 -8 14 -7 14 2 0 8 -6 14 -14 14 -7 0
-13 -1 -13 -2z"/>
<path d="M790 9041 c0 -6 4 -13 10 -16 6 -3 7 1 4 9 -7 18 -14 21 -14 7z"/>
<path d="M790 8998 c0 -4 4 -8 9 -8 6 0 12 4 15 8 3 5 -1 9 -9 9 -8 0 -15 -4
-15 -9z"/>
<path d="M816 8942 c-3 -5 1 -9 9 -9 8 0 12 4 9 9 -3 4 -7 8 -9 8 -2 0 -6 -4
-9 -8z"/>
<path d="M820 8880 c-9 -6 -10 -10 -3 -10 6 0 15 5 18 10 8 12 4 12 -15 0z"/>
<path d="M895 8860 c-3 -5 -1 -10 4 -10 6 0 11 5 11 10 0 6 -2 10 -4 10 -3 0
-8 -4 -11 -10z"/>
<path d="M790 8841 c0 -6 4 -13 10 -16 6 -3 7 1 4 9 -7 18 -14 21 -14 7z"/>
<path d="M1015 8840 c3 -5 8 -10 11 -10 2 0 4 5 4 10 0 6 -5 10 -11 10 -5 0
-7 -4 -4 -10z"/>
<path d="M910 8800 c0 -5 5 -10 11 -10 5 0 7 5 4 10 -3 6 -8 10 -11 10 -2 0
-4 -4 -4 -10z"/>
<path d="M1070 8786 c0 -2 7 -7 16 -10 8 -3 12 -2 9 4 -6 10 -25 14 -25 6z"/>
<path d="M975 8741 c-3 -5 -2 -12 3 -15 5 -3 9 1 9 9 0 17 -3 19 -12 6z"/>
<path d="M1054 8662 c4 -3 14 -7 22 -8 9 -1 13 0 10 4 -4 3 -14 7 -22 8 -9 1
-13 0 -10 -4z"/>
<path d="M996 8633 c-6 -14 -5 -15 5 -6 7 7 10 15 7 18 -3 3 -9 -2 -12 -12z"/>
<path d="M1126 8578 c3 -5 10 -6 15 -3 13 9 11 12 -6 12 -8 0 -12 -4 -9 -9z"/>
<path d="M1313 8575 c0 -8 4 -12 9 -9 5 3 6 10 3 15 -9 13 -12 11 -12 -6z"/>
<path d="M1034 8560 c0 -13 4 -16 10 -10 7 7 7 13 0 20 -6 6 -10 3 -10 -10z"/>
<path d="M1295 8460 c3 -5 8 -10 11 -10 2 0 4 5 4 10 0 6 -5 10 -11 10 -5 0
-7 -4 -4 -10z"/>
<path d="M1335 8460 c3 -5 8 -10 11 -10 2 0 4 5 4 10 0 6 -5 10 -11 10 -5 0
-7 -4 -4 -10z"/>
<path d="M1295 8419 c-3 -4 2 -6 10 -5 21 3 28 13 10 13 -9 0 -18 -4 -20 -8z"/>
<path d="M1475 8401 c-3 -5 -2 -12 3 -15 5 -3 9 1 9 9 0 17 -3 19 -12 6z"/>
<path d="M1526 8362 c-3 -5 1 -9 9 -9 8 0 12 4 9 9 -3 4 -7 8 -9 8 -2 0 -6 -4
-9 -8z"/>
<path d="M1375 8341 c-3 -5 -2 -12 3 -15 5 -3 9 1 9 9 0 17 -3 19 -12 6z"/>
<path d="M1576 8273 c-6 -14 -5 -15 5 -6 7 7 10 15 7 18 -3 3 -9 -2 -12 -12z"/>
<path d="M1454 8262 c4 -3 14 -7 22 -8 9 -1 13 0 10 4 -4 3 -14 7 -22 8 -9 1
-13 0 -10 -4z"/>
<path d="M1656 8198 c3 -4 11 -5 19 -1 21 7 19 12 -4 10 -11 0 -18 -5 -15 -9z"/>
<path d="M1575 8180 c-3 -5 -1 -10 4 -10 6 0 11 5 11 10 0 6 -2 10 -4 10 -3 0
-8 -4 -11 -10z"/>
<path d="M1576 8142 c-3 -5 1 -9 9 -9 8 0 12 4 9 9 -3 4 -7 8 -9 8 -2 0 -6 -4
-9 -8z"/>
<path d="M1679 8113 c-13 -16 -12 -17 4 -4 9 7 17 15 17 17 0 8 -8 3 -21 -13z"/>
<path d="M1666 8078 c3 -5 10 -6 15 -3 13 9 11 12 -6 12 -8 0 -12 -4 -9 -9z"/>
<path d="M1816 8047 c3 -10 9 -15 12 -12 3 3 0 11 -7 18 -10 9 -11 8 -5 -6z"/>
<path d="M1695 8020 c3 -5 8 -10 11 -10 2 0 4 5 4 10 0 6 -5 10 -11 10 -5 0
-7 -4 -4 -10z"/>
<path d="M1877 7995 c-4 -8 -3 -16 1 -19 4 -3 9 4 9 15 2 23 -3 25 -10 4z"/>
<path d="M1953 7935 c0 -8 4 -12 9 -9 5 3 6 10 3 15 -9 13 -12 11 -12 -6z"/>
<path d="M1670 7926 c0 -2 7 -7 16 -10 8 -3 12 -2 9 4 -6 10 -25 14 -25 6z"/>
<path d="M1816 7898 c3 -4 11 -5 19 -1 21 7 19 12 -4 10 -11 0 -18 -5 -15 -9z"/>
<path d="M1890 7860 c0 -5 5 -10 11 -10 5 0 7 5 4 10 -3 6 -8 10 -11 10 -2 0
-4 -4 -4 -10z"/>
<path d="M1890 7820 c0 -5 5 -10 11 -10 5 0 7 5 4 10 -3 6 -8 10 -11 10 -2 0
-4 -4 -4 -10z"/>
<path d="M1935 7820 c3 -5 8 -10 11 -10 2 0 4 5 4 10 0 6 -5 10 -11 10 -5 0
-7 -4 -4 -10z"/>
<path d="M1975 7820 c3 -5 8 -10 11 -10 2 0 4 5 4 10 0 6 -5 10 -11 10 -5 0
-7 -4 -4 -10z"/>
<path d="M1935 7779 c-3 -4 2 -6 10 -5 21 3 28 13 10 13 -9 0 -18 -4 -20 -8z"/>
<path d="M2015 7740 c-3 -5 -1 -10 4 -10 6 0 11 5 11 10 0 6 -2 10 -4 10 -3 0
-8 -4 -11 -10z"/>
<path d="M2110 7721 c0 -6 4 -13 10 -16 6 -3 7 1 4 9 -7 18 -14 21 -14 7z"/>
<path d="M2110 7681 c0 -6 4 -13 10 -16 6 -3 7 1 4 9 -7 18 -14 21 -14 7z"/>
<path d="M2197 7675 c-4 -8 -3 -16 1 -19 4 -3 9 4 9 15 2 23 -3 25 -10 4z"/>
<path d="M2273 7615 c0 -8 4 -12 9 -9 5 3 6 10 3 15 -9 13 -12 11 -12 -6z"/>
<path d="M2215 7609 c-4 -6 -5 -12 -2 -15 2 -3 7 2 10 11 7 17 1 20 -8 4z"/>
<path d="M2136 7578 c3 -4 11 -5 19 -1 21 7 19 12 -4 10 -11 0 -18 -5 -15 -9z"/>
<path d="M2210 7540 c0 -5 5 -10 11 -10 5 0 7 5 4 10 -3 6 -8 10 -11 10 -2 0
-4 -4 -4 -10z"/>
<path d="M2210 7499 c0 -5 5 -7 10 -4 6 3 10 8 10 11 0 2 -4 4 -10 4 -5 0 -10
-5 -10 -11z"/>
<path d="M2255 7500 c3 -5 8 -10 11 -10 2 0 4 5 4 10 0 6 -5 10 -11 10 -5 0
-7 -4 -4 -10z"/>
<path d="M2295 7500 c3 -5 8 -10 11 -10 2 0 4 5 4 10 0 6 -5 10 -11 10 -5 0
-7 -4 -4 -10z"/>
<path d="M2255 7459 c-3 -4 2 -6 10 -5 21 3 28 13 10 13 -9 0 -18 -4 -20 -8z"/>
<path d="M2435 7441 c-3 -5 -2 -12 3 -15 5 -3 9 1 9 9 0 17 -3 19 -12 6z"/>
<path d="M2330 7419 c0 -5 5 -7 10 -4 6 3 10 8 10 11 0 2 -4 4 -10 4 -5 0 -10
-5 -10 -11z"/>
<path d="M2486 7402 c-3 -5 1 -9 9 -9 8 0 12 4 9 9 -3 4 -7 8 -9 8 -2 0 -6 -4
-9 -8z"/>
<path d="M2335 7380 c-3 -5 -1 -10 4 -10 6 0 11 5 11 10 0 6 -2 10 -4 10 -3 0
-8 -4 -11 -10z"/>
<path d="M2536 7313 c-6 -14 -5 -15 5 -6 7 7 10 15 7 18 -3 3 -9 -2 -12 -12z"/>
<path d="M2416 7298 c3 -5 10 -6 15 -3 13 9 11 12 -6 12 -8 0 -12 -4 -9 -9z"/>
<path d="M2455 7300 c-3 -5 -1 -10 4 -10 6 0 11 5 11 10 0 6 -2 10 -4 10 -3 0
-8 -4 -11 -10z"/>
<path d="M2359 7233 c-13 -16 -12 -17 4 -4 16 13 21 21 13 21 -2 0 -10 -8 -17
-17z"/>
<path d="M2530 7220 c0 -5 5 -10 11 -10 5 0 7 5 4 10 -3 6 -8 10 -11 10 -2 0
-4 -4 -4 -10z"/>
<path d="M2535 7179 c-3 -4 2 -6 10 -5 21 3 28 13 10 13 -9 0 -18 -4 -20 -8z"/>
<path d="M2615 7180 c3 -5 8 -10 11 -10 2 0 4 5 4 10 0 6 -5 10 -11 10 -5 0
-7 -4 -4 -10z"/>
<path d="M2579 7168 c-5 -18 -6 -38 -1 -34 7 8 12 36 6 36 -2 0 -4 -1 -5 -2z"/>
<path d="M2615 7140 c3 -5 8 -10 11 -10 2 0 4 5 4 10 0 6 -5 10 -11 10 -5 0
-7 -4 -4 -10z"/>
<path d="M2679 7138 c-5 -18 -6 -38 -1 -34 7 8 12 36 6 36 -2 0 -4 -1 -5 -2z"/>
<path d="M2675 7080 c-3 -5 -1 -10 4 -10 6 0 11 5 11 10 0 6 -2 10 -4 10 -3 0
-8 -4 -11 -10z"/>
<path d="M2830 7041 c0 -6 4 -12 8 -15 5 -3 9 1 9 9 0 8 -4 15 -9 15 -4 0 -8
-4 -8 -9z"/>
<path d="M2670 7020 c0 -5 5 -10 11 -10 5 0 7 5 4 10 -3 6 -8 10 -11 10 -2 0
-4 -4 -4 -10z"/>
<path d="M2770 6979 c0 -5 5 -7 10 -4 6 3 10 8 10 11 0 2 -4 4 -10 4 -5 0 -10
-5 -10 -11z"/>
<path d="M2773 6945 c0 -8 4 -12 9 -9 5 3 6 10 3 15 -9 13 -12 11 -12 -6z"/>
<path d="M2810 6939 c0 -5 5 -7 10 -4 6 3 10 8 10 11 0 2 -4 4 -10 4 -5 0 -10
-5 -10 -11z"/>
<path d="M2936 6927 c3 -10 9 -15 12 -12 3 3 0 11 -7 18 -10 9 -11 8 -5 -6z"/>
<path d="M3025 6840 c-3 -6 1 -7 9 -4 18 7 21 14 7 14 -6 0 -13 -4 -16 -10z"/>
<path d="M2890 6819 c0 -5 5 -7 10 -4 6 3 10 8 10 11 0 2 -4 4 -10 4 -5 0 -10
-5 -10 -11z"/>
<path d="M2935 6820 c-3 -5 -1 -10 4 -10 6 0 11 5 11 10 0 6 -2 10 -4 10 -3 0
-8 -4 -11 -10z"/>
<path d="M2975 6820 c-3 -5 -1 -10 4 -10 6 0 11 5 11 10 0 6 -2 10 -4 10 -3 0
-8 -4 -11 -10z"/>
<path d="M2935 6791 c-3 -5 -2 -12 3 -15 5 -3 9 1 9 9 0 17 -3 19 -12 6z"/>
<path d="M3014 6696 c1 -8 5 -18 8 -22 4 -3 5 1 4 10 -1 8 -5 18 -8 22 -4 3
-5 -1 -4 -10z"/>
<path d="M3095 6620 c-3 -5 -1 -10 4 -10 6 0 11 5 11 10 0 6 -2 10 -4 10 -3 0
-8 -4 -11 -10z"/>
<path d="M3130 6620 c0 -5 5 -10 11 -10 5 0 7 5 4 10 -3 6 -8 10 -11 10 -2 0
-4 -4 -4 -10z"/>
<path d="M3200 6620 c-9 -6 -10 -10 -3 -10 6 0 15 5 18 10 8 12 4 12 -15 0z"/>
<path d="M3175 6540 c3 -5 8 -10 11 -10 2 0 4 5 4 10 0 6 -5 10 -11 10 -5 0
-7 -4 -4 -10z"/>
<path d="M3260 6526 c0 -2 8 -10 18 -17 15 -13 16 -12 3 4 -13 16 -21 21 -21
13z"/>
<path d="M3317 6510 c-10 -12 -10 -13 3 -4 8 6 25 10 37 9 12 -1 20 2 17 6 -7
13 -44 6 -57 -11z"/>
<path d="M3371 6487 c-8 -10 -7 -14 2 -14 8 0 14 6 14 14 0 7 -1 13 -2 13 -2
0 -8 -6 -14 -13z"/>
<path d="M3393 6435 c0 -8 4 -12 9 -9 5 3 6 10 3 15 -9 13 -12 11 -12 -6z"/>
<path d="M3290 6419 c0 -5 5 -7 10 -4 6 3 10 8 10 11 0 2 -4 4 -10 4 -5 0 -10
-5 -10 -11z"/>
<path d="M3335 6420 c3 -5 8 -10 11 -10 2 0 4 5 4 10 0 6 -5 10 -11 10 -5 0
-7 -4 -4 -10z"/>
<path d="M3293 6375 c0 -8 4 -12 9 -9 5 3 6 10 3 15 -9 13 -12 11 -12 -6z"/>
<path d="M6070 6250 c0 -5 5 -10 11 -10 5 0 7 5 4 10 -3 6 -8 10 -11 10 -2 0
-4 -4 -4 -10z"/>
<path d="M6219 6153 c-13 -16 -12 -17 4 -4 9 7 17 15 17 17 0 8 -8 3 -21 -13z"/>
<path d="M6027 6144 c7 -3 9 -13 6 -22 -4 -14 -3 -14 5 -2 12 16 7 30 -11 29
-9 0 -9 -2 0 -5z"/>
<path d="M6115 6140 c3 -5 8 -10 11 -10 2 0 4 5 4 10 0 6 -5 10 -11 10 -5 0
-7 -4 -4 -10z"/>
<path d="M6059 6113 c-12 -16 -12 -17 2 -6 9 7 20 9 24 5 5 -4 5 -1 1 6 -9 16
-11 15 -27 -5z"/>
<path d="M5980 6116 c0 -2 7 -7 16 -10 8 -3 12 -2 9 4 -6 10 -25 14 -25 6z"/>
<path d="M5956 6095 c-3 -9 -6 -22 -5 -28 0 -7 5 -1 10 12 5 13 8 26 5 28 -2
2 -6 -3 -10 -12z"/>
<path d="M5986 6079 c2 -4 12 -5 21 -2 10 4 14 2 9 -5 -3 -6 -2 -13 3 -16 5
-4 8 2 7 11 -2 10 -12 18 -24 19 -12 1 -19 -2 -16 -7z"/>
<path d="M6070 6086 c0 -2 7 -7 16 -10 8 -3 12 -2 9 4 -6 10 -25 14 -25 6z"/>
<path d="M6066 6062 c-3 -5 1 -9 9 -9 8 0 12 4 9 9 -3 4 -7 8 -9 8 -2 0 -6 -4
-9 -8z"/>
<path d="M6136 6062 c-3 -4 4 -9 15 -9 23 -2 25 3 4 10 -8 4 -16 3 -19 -1z"/>
<path d="M5905 6044 c-10 -8 -14 -14 -8 -14 7 0 15 5 18 10 4 6 13 7 24 1 11
-6 22 -6 32 0 12 9 12 10 -1 6 -8 -2 -22 -1 -30 3 -9 5 -23 2 -35 -6z"/>
<path d="M5993 6045 c0 -8 4 -15 9 -15 4 0 8 4 8 9 0 6 -4 12 -8 15 -5 3 -9
-1 -9 -9z"/>
<path d="M5915 6020 c-4 -6 -16 -8 -28 -5 -16 4 -14 1 6 -10 22 -13 31 -14 43
-5 7 7 11 16 8 21 -7 12 -21 11 -29 -1z m20 -10 c-3 -5 -11 -10 -16 -10 -6 0
-7 5 -4 10 3 6 11 10 16 10 6 0 7 -4 4 -10z"/>
<path d="M6066 6018 c3 -5 10 -6 15 -3 13 9 11 12 -6 12 -8 0 -12 -4 -9 -9z"/>
<path d="M6023 6004 c9 -11 14 -23 11 -26 -3 -3 -1 -8 3 -11 5 -3 9 5 9 18 0
14 -2 22 -5 20 -2 -3 -11 1 -20 7 -12 10 -12 7 2 -8z"/>
<path d="M5960 5994 c0 -8 -4 -13 -9 -10 -9 6 -41 -35 -41 -51 0 -4 8 4 18 18
9 14 25 25 34 24 11 -2 15 2 11 13 -5 11 -3 13 7 7 9 -5 11 -4 6 3 -10 17 -26
15 -26 -4z"/>
<path d="M5850 5978 c-21 -23 -27 -44 -10 -33 6 3 10 1 10 -4 0 -6 5 -11 11
-11 8 0 7 5 -1 15 -10 13 -10 19 5 35 10 11 15 20 12 20 -3 0 -15 -10 -27 -22z"/>
<path d="M5882 5978 c-7 -7 -12 -16 -12 -20 0 -12 28 -10 36 3 10 17 -10 31
-24 17z m18 -8 c0 -5 -5 -10 -11 -10 -5 0 -7 5 -4 10 3 6 8 10 11 10 2 0 4 -4
4 -10z"/>
<path d="M6070 5980 c0 -5 5 -10 11 -10 5 0 7 5 4 10 -3 6 -8 10 -11 10 -2 0
-4 -4 -4 -10z"/>
<path d="M5955 5949 c-4 -6 -5 -12 -2 -15 2 -3 7 2 10 11 7 17 1 20 -8 4z"/>
<path d="M5807 5936 c-6 -16 11 -36 30 -36 16 0 17 16 1 26 -7 5 -8 3 -3 -6 5
-8 3 -11 -6 -8 -8 3 -13 12 -11 22 4 20 -4 21 -11 2z"/>
<path d="M5975 5940 c-4 -6 -1 -9 7 -8 8 2 13 -6 12 -20 -2 -24 8 -22 12 3 3
19 -22 40 -31 25z"/>
<path d="M6074 5942 c4 -3 14 -7 22 -8 9 -1 13 0 10 4 -4 3 -14 7 -22 8 -9 1
-13 0 -10 -4z"/>
<path d="M5930 5931 c0 -6 4 -13 10 -16 6 -3 7 1 4 9 -7 18 -14 21 -14 7z"/>
<path d="M5892 5916 c7 -8 15 -12 17 -11 5 6 -10 25 -20 25 -5 0 -4 -6 3 -14z"/>
<path d="M5960 5911 c0 -6 4 -13 10 -16 6 -3 7 1 4 9 -7 18 -14 21 -14 7z"/>
<path d="M5870 5900 c-13 -8 -12 -10 3 -10 9 0 17 5 17 10 0 12 -1 12 -20 0z"/>
<path d="M5729 5879 c-22 -20 -23 -21 -3 -15 24 7 53 -17 34 -29 -5 -3 -10 -1
-10 4 0 6 -5 11 -10 11 -6 0 -3 -11 6 -24 15 -24 44 -26 44 -4 0 6 -6 5 -15
-2 -9 -8 -15 -9 -15 -2 0 6 4 13 10 17 5 3 7 12 4 19 -3 8 0 17 6 21 9 6 9 10
-1 16 -20 12 -23 11 -50 -12z m41 1 c0 -5 -4 -10 -10 -10 -5 0 -10 5 -10 10 0
6 5 10 10 10 6 0 10 -4 10 -10z"/>
<path d="M6070 5896 c0 -2 8 -10 18 -17 15 -13 16 -12 3 4 -13 16 -21 21 -21
13z"/>
<path d="M5823 5880 c3 -16 21 -14 25 2 3 10 2 10 -6 -1 -7 -9 -11 -10 -15 -2
-4 7 -5 8 -4 1z"/>
<path d="M5901 5874 c0 -11 3 -14 6 -6 3 7 2 16 -1 19 -3 4 -6 -2 -5 -13z"/>
<path d="M5790 5860 c0 -5 5 -10 10 -10 6 0 10 5 10 10 0 6 -4 10 -10 10 -5 0
-10 -4 -10 -10z"/>
<path d="M5857 5863 c-4 -3 0 -15 10 -25 9 -10 13 -18 8 -18 -4 0 -2 -7 5 -15
7 -8 17 -15 23 -15 6 0 2 7 -9 15 -10 8 -15 15 -10 15 5 0 1 10 -10 22 -17 19
-17 21 -1 15 9 -4 17 -2 17 3 0 11 -23 13 -33 3z"/>
<path d="M5958 5863 c7 -3 16 -2 19 1 4 3 -2 6 -13 5 -11 0 -14 -3 -6 -6z"/>
<path d="M6056 5862 c-3 -5 1 -9 9 -9 8 0 12 4 9 9 -3 4 -7 8 -9 8 -2 0 -6 -4
-9 -8z"/>
<path d="M5926 5843 c-6 -14 -5 -15 5 -6 7 7 10 15 7 18 -3 3 -9 -2 -12 -12z"/>
<path d="M5993 5845 c0 -8 4 -12 9 -9 5 3 6 10 3 15 -9 13 -12 11 -12 -6z"/>
<path d="M5688 5830 c-15 -17 -15 -19 5 -24 l22 -6 -24 -20 c-13 -11 -19 -20
-13 -20 6 0 17 7 25 15 17 16 28 10 20 -11 -3 -8 1 -14 8 -14 7 0 9 3 6 7 -4
3 -2 12 4 19 11 13 -7 54 -24 54 -4 0 -5 5 -2 10 10 17 -9 10 -27 -10z m52
-43 c0 -6 -9 -2 -20 8 -11 10 -20 23 -20 28 0 6 9 2 20 -8 11 -10 20 -23 20
-28z"/>
<path d="M5826 5835 c4 -8 8 -15 10 -15 2 0 4 7 4 15 0 8 -4 15 -10 15 -5 0
-7 -7 -4 -15z"/>
<path d="M5953 5843 c4 -3 1 -13 -6 -22 -11 -14 -10 -14 5 -2 16 12 16 31 1
31 -4 0 -3 -3 0 -7z"/>
<path d="M5991 5807 c-8 -10 -7 -14 2 -14 8 0 14 6 14 14 0 7 -1 13 -2 13 -2
0 -8 -6 -14 -13z"/>
<path d="M5795 5800 c-13 -6 -15 -9 -5 -9 8 0 22 4 30 9 18 12 2 12 -25 0z"/>
<path d="M5840 5806 c0 -2 7 -7 16 -10 8 -3 12 -2 9 4 -6 10 -25 14 -25 6z"/>
<path d="M5670 5789 c0 -5 5 -7 10 -4 6 3 10 8 10 11 0 2 -4 4 -10 4 -5 0 -10
-5 -10 -11z"/>
<path d="M5643 5775 c-6 -7 -9 -16 -5 -21 4 -4 -1 -4 -10 -1 -12 4 -15 2 -11
-9 4 -10 0 -12 -12 -8 -13 5 -11 0 6 -18 13 -13 28 -22 33 -20 5 3 6 -3 2 -14
-6 -16 -5 -17 6 -6 11 11 9 16 -11 31 -14 11 -20 21 -13 25 6 3 13 1 15 -4 3
-6 4 -5 3 2 -2 7 1 21 6 31 12 23 7 29 -9 12z"/>
<path d="M5756 5773 c-6 -14 -5 -15 5 -6 7 7 10 15 7 18 -3 3 -9 -2 -12 -12z"/>
<path d="M5813 5777 c-3 -6 -1 -7 5 -3 5 3 12 1 14 -6 3 -8 6 -7 10 3 7 17
-19 22 -29 6z"/>
<path d="M5774 5759 c-3 -6 -1 -16 5 -22 9 -9 10 -7 5 7 -5 13 -4 17 4 12 7
-4 12 -2 12 3 0 14 -17 14 -26 0z"/>
<path d="M5875 5760 c3 -5 8 -10 11 -10 2 0 4 5 4 10 0 6 -5 10 -11 10 -5 0
-7 -4 -4 -10z"/>
<path d="M5660 5739 c0 -5 5 -7 10 -4 6 3 10 8 10 11 0 2 -4 4 -10 4 -5 0 -10
-5 -10 -11z"/>
<path d="M5702 5736 c10 -7 15 -16 11 -20 -4 -4 0 -4 10 0 17 6 17 7 0 20 -10
7 -22 13 -28 13 -5 0 -2 -6 7 -13z"/>
<path d="M5753 5733 c0 -11 7 -20 14 -20 10 0 10 4 1 16 -7 9 -13 18 -15 20
-1 2 -1 -5 0 -16z"/>
<path d="M5860 5746 c0 -2 8 -10 18 -17 15 -13 16 -12 3 4 -13 16 -21 21 -21
13z"/>
<path d="M5930 5740 c0 -5 5 -10 11 -10 5 0 7 5 4 10 -3 6 -8 10 -11 10 -2 0
-4 -4 -4 -10z"/>
<path d="M5670 5720 c-11 -7 -11 -10 -2 -10 7 0 10 -4 7 -10 -4 -6 1 -7 10 -3
15 5 15 3 4 -15 -7 -11 -17 -20 -23 -19 -5 1 -12 -6 -14 -15 -2 -10 1 -18 7
-18 6 0 8 7 5 15 -4 10 0 13 15 10 11 -2 24 1 27 7 4 7 2 8 -4 4 -15 -9 -15 7
0 22 9 9 7 13 -5 18 -9 3 -14 10 -11 15 7 11 3 11 -16 -1z"/>
<path d="M5805 5721 c3 -3 17 -6 31 -7 13 0 22 2 19 5 -3 3 -17 6 -31 7 -13 0
-22 -2 -19 -5z"/>
<path d="M5590 5710 c0 -5 5 -10 11 -10 5 0 7 5 4 10 -3 6 -8 10 -11 10 -2 0
-4 -4 -4 -10z"/>
<path d="M5790 5705 c5 -21 -1 -29 -10 -15 -7 12 -9 10 -7 -7 1 -15 5 -19 13
-13 6 6 13 7 17 4 3 -3 4 1 3 10 -1 8 -6 19 -10 23 -4 4 -7 4 -6 -2z"/>
<path d="M5581 5681 c-11 -7 -9 -10 8 -16 12 -4 19 -11 15 -18 -4 -7 1 -5 11
5 28 26 0 51 -34 29z m39 -11 c0 -5 -7 -7 -15 -4 -8 4 -15 8 -15 10 0 2 7 4
15 4 8 0 15 -4 15 -10z"/>
<path d="M5720 5680 c0 -6 4 -9 9 -6 5 4 12 1 14 -4 3 -6 4 -5 3 2 -3 15 -26
23 -26 8z"/>
<path d="M5850 5660 c0 -5 5 -10 11 -10 5 0 7 5 4 10 -3 6 -8 10 -11 10 -2 0
-4 -4 -4 -10z"/>
<path d="M5494 5642 c-4 -12 -9 -20 -13 -18 -4 3 -12 -4 -19 -15 -14 -23 -7
-25 14 -4 9 8 21 15 27 15 7 0 3 -7 -7 -15 -11 -8 -16 -15 -10 -15 5 0 17 7
27 14 15 12 16 14 2 20 -8 3 -15 11 -15 17 0 8 4 8 15 -1 13 -11 18 -11 28 0
10 10 9 12 -4 7 -9 -3 -22 0 -28 6 -9 9 -13 6 -17 -11z"/>
<path d="M5795 5650 c-4 -6 -10 -8 -14 -6 -4 3 -8 -1 -8 -9 0 -10 4 -12 12 -5
7 5 14 8 17 5 2 -3 5 2 5 10 0 18 -3 19 -12 5z"/>
<path d="M5620 5635 c-10 -12 -9 -16 4 -21 9 -4 20 -4 23 0 4 3 -2 6 -12 6
-14 0 -15 3 -5 15 7 8 10 15 7 15 -2 0 -10 -7 -17 -15z"/>
<path d="M5700 5640 c-8 -5 -10 -10 -5 -10 6 0 17 5 25 10 8 5 11 10 5 10 -5
0 -17 -5 -25 -10z"/>
<path d="M5820 5646 c0 -2 8 -10 18 -17 15 -13 16 -12 3 4 -13 16 -21 21 -21
13z"/>
<path d="M5575 5600 c-3 -5 -3 -10 2 -10 4 0 -3 -6 -17 -13 -22 -11 -37 -41
-18 -34 4 1 14 -7 23 -18 14 -19 15 -19 8 -1 -5 14 -3 17 7 11 8 -5 11 -4 6 3
-3 6 -15 9 -26 7 -29 -6 -24 14 6 25 15 6 22 14 18 22 -5 8 -2 9 9 5 10 -3 17
-2 17 3 0 13 -27 13 -35 0z"/>
<path d="M5774 5596 c1 -8 5 -18 8 -22 4 -3 5 1 4 10 -1 8 -5 18 -8 22 -4 3
-5 -1 -4 -10z"/>
<path d="M5624 5584 c-18 -14 -18 -15 4 -4 12 6 22 13 22 15 0 8 -5 6 -26 -11z"/>
<path d="M5711 5587 c-8 -10 -7 -14 2 -14 8 0 14 6 14 14 0 7 -1 13 -2 13 -2
0 -8 -6 -14 -13z"/>
<path d="M5500 5570 c-6 -11 -18 -20 -28 -20 -16 1 -16 1 0 14 15 11 14 13
-11 13 -26 0 -27 -2 -12 -19 20 -23 36 -23 54 2 8 11 17 17 20 13 4 -3 7 -1 7
5 0 19 -18 14 -30 -8z"/>
<path d="M5590 5560 c0 -5 5 -10 11 -10 5 0 7 5 4 10 -3 6 -8 10 -11 10 -2 0
-4 -4 -4 -10z"/>
<path d="M5625 5559 c-4 -6 -5 -12 -2 -15 2 -3 7 2 10 11 7 17 1 20 -8 4z"/>
<path d="M5430 5555 c0 -6 7 -20 15 -32 14 -19 13 -21 -10 -27 -15 -4 -25 -13
-24 -24 0 -11 2 -13 6 -4 3 7 15 17 27 22 13 4 23 15 23 24 0 9 -3 14 -6 11
-3 -3 -11 5 -18 17 -7 13 -12 18 -13 13z"/>
<path d="M5513 5532 c0 -12 5 -22 9 -22 11 0 10 12 -2 30 -7 12 -9 10 -7 -8z"/>
<path d="M5730 5540 c0 -5 5 -10 11 -10 5 0 7 5 4 10 -3 6 -8 10 -11 10 -2 0
-4 -4 -4 -10z"/>
<path d="M5483 5515 c4 -8 2 -17 -3 -20 -6 -4 -10 -12 -10 -18 0 -8 3 -8 9 1
4 8 11 13 15 13 16 -2 18 0 7 12 -6 8 -8 17 -4 20 3 4 1 7 -6 7 -7 0 -11 -7
-8 -15z"/>
<path d="M5589 5506 c-9 -19 -9 -19 4 -4 9 12 17 14 24 7 6 -6 10 -5 10 4 0
21 -27 16 -38 -7z"/>
<path d="M5550 5500 c0 -5 5 -10 11 -10 5 0 7 5 4 10 -3 6 -8 10 -11 10 -2 0
-4 -4 -4 -10z"/>
<path d="M5670 5499 c0 -5 5 -7 10 -4 6 3 10 8 10 11 0 2 -4 4 -10 4 -5 0 -10
-5 -10 -11z"/>
<path d="M5522 5484 c-7 -8 -8 -14 -3 -14 10 0 25 19 20 25 -2 1 -10 -3 -17
-11z"/>
<path d="M5434 5469 c-4 -7 -3 -9 4 -5 5 3 12 0 15 -6 2 -7 7 -10 11 -7 4 3 0
12 -8 18 -11 9 -16 9 -22 0z"/>
<path d="M5496 5457 c3 -10 9 -15 12 -12 3 3 0 11 -7 18 -10 9 -11 8 -5 -6z"/>
<path d="M5413 5431 c10 -12 9 -14 -6 -8 -11 4 -16 3 -12 -3 3 -6 1 -10 -6
-10 -7 0 -10 -3 -7 -6 10 -10 49 16 42 28 -5 8 -1 9 10 5 9 -4 15 -3 11 2 -3
6 -14 9 -25 8 -15 -1 -17 -4 -7 -16z"/>
<path d="M5456 5423 c-6 -14 -5 -15 5 -6 7 7 10 15 7 18 -3 3 -9 -2 -12 -12z"/>
<path d="M5479 5420 c-1 -5 -2 -16 -3 -22 -1 -7 -5 -16 -11 -20 -5 -4 0 -6 12
-5 16 1 19 5 12 13 -5 6 -7 19 -3 28 3 9 3 16 0 16 -3 0 -7 -4 -7 -10z"/>
<path d="M5527 5419 c7 -7 15 -10 18 -7 3 3 -2 9 -12 12 -14 6 -15 5 -6 -5z"/>
<path d="M5576 5407 c3 -10 9 -15 12 -12 3 3 0 11 -7 18 -10 9 -11 8 -5 -6z"/>
<path d="M5226 5381 c-16 -18 -15 -20 14 -49 32 -32 42 -29 12 4 -16 17 -18
26 -13 52 1 4 6 0 11 -8 6 -9 10 -10 10 -3 0 21 -17 23 -34 4z"/>
<path d="M5334 5363 c3 -26 36 -48 36 -24 0 6 -6 8 -14 5 -11 -4 -13 0 -9 14
2 11 0 23 -5 26 -7 4 -10 -4 -8 -21z"/>
<path d="M5373 5377 c-3 -5 -2 -11 1 -14 3 -4 6 -1 6 6 0 7 4 10 8 7 4 -2 14
-1 22 4 11 7 9 9 -8 7 -13 -1 -26 -5 -29 -10z"/>
<path d="M5305 5358 c-13 -38 -11 -42 19 -45 28 -2 28 -2 8 12 -13 10 -18 22
-15 35 7 27 -3 25 -12 -2z m10 -28 c3 -5 1 -10 -4 -10 -6 0 -11 5 -11 10 0 6
2 10 4 10 3 0 8 -4 11 -10z"/>
<path d="M5400 5360 c-8 -5 -10 -10 -5 -10 6 0 17 5 25 10 8 5 11 10 5 10 -5
0 -17 -5 -25 -10z"/>
<path d="M5575 5341 c-3 -5 -2 -12 3 -15 5 -3 9 1 9 9 0 17 -3 19 -12 6z"/>
<path d="M5207 5330 c13 -5 21 -15 19 -22 -1 -7 -1 -10 1 -5 3 4 10 4 16 0 7
-3 3 3 -7 15 -11 12 -26 22 -35 21 -11 0 -8 -3 6 -9z"/>
<path d="M5406 5323 c-6 -14 -5 -15 5 -6 7 7 10 15 7 18 -3 3 -9 -2 -12 -12z"/>
<path d="M5462 5324 c10 -10 20 -16 22 -13 3 3 -5 11 -17 18 -21 13 -21 12 -5
-5z"/>
<path d="M5190 5313 c0 -5 5 -15 10 -23 7 -12 9 -10 7 8 -1 19 -17 33 -17 15z"/>
<path d="M5276 5293 c-6 -14 -5 -15 5 -6 7 7 10 15 7 18 -3 3 -9 -2 -12 -12z"/>
<path d="M5426 5302 c-3 -5 1 -9 9 -9 8 0 15 4 15 9 0 4 -4 8 -9 8 -6 0 -12
-4 -15 -8z"/>
<path d="M5350 5290 c0 -5 5 -10 11 -10 5 0 7 5 4 10 -3 6 -8 10 -11 10 -2 0
-4 -4 -4 -10z"/>
<path d="M5240 5280 c0 -5 5 -10 10 -10 6 0 10 5 10 10 0 6 -4 10 -10 10 -5 0
-10 -4 -10 -10z"/>
<path d="M5295 5279 c-11 -16 -1 -19 13 -3 7 8 8 14 3 14 -5 0 -13 -5 -16 -11z"/>
<path d="M5465 5280 c-3 -6 1 -7 9 -4 18 7 21 14 7 14 -6 0 -13 -4 -16 -10z"/>
<path d="M5180 5259 c0 -5 5 -7 10 -4 6 3 10 8 10 11 0 2 -4 4 -10 4 -5 0 -10
-5 -10 -11z"/>
<path d="M5222 5251 c7 -12 18 -17 27 -13 14 6 14 7 -1 10 -10 2 -18 8 -18 13
0 5 -5 9 -10 9 -6 0 -6 -7 2 -19z"/>
<path d="M5273 5252 c0 -12 5 -22 9 -22 11 0 10 12 -2 30 -7 12 -9 10 -7 -8z"/>
<path d="M5310 5261 c0 -6 4 -13 10 -16 6 -3 7 1 4 9 -7 18 -14 21 -14 7z"/>
<path d="M5380 5266 c0 -2 8 -10 18 -17 15 -13 16 -12 3 4 -13 16 -21 21 -21
13z"/>
<path d="M5190 5240 c-11 -7 -11 -10 -2 -10 7 0 10 -4 7 -10 -4 -6 1 -7 11 -3
11 4 15 3 10 -5 -3 -6 3 -16 15 -22 17 -10 20 -9 14 1 -6 9 -3 11 9 6 10 -4
15 -3 11 4 -4 5 -16 7 -27 3 -14 -4 -18 -2 -14 5 4 6 0 14 -8 17 -9 3 -13 10
-10 15 7 11 3 11 -16 -1z"/>
<path d="M5346 5238 c3 -5 9 -7 12 -4 3 3 12 0 21 -6 13 -10 14 -10 4 2 -15
16 -46 23 -37 8z"/>
<path d="M5113 5223 c0 -12 4 -20 8 -17 4 2 10 -3 13 -12 4 -12 1 -14 -14 -9
-11 4 -20 3 -20 -2 0 -16 38 -12 52 5 9 11 10 14 1 8 -7 -4 -13 -3 -13 1 0 5
-6 18 -14 29 -14 19 -15 18 -13 -3z"/>
<path d="M5313 5207 c-1 -11 -1 -18 0 -16 2 2 8 11 15 20 9 12 9 16 -1 16 -7
0 -14 -9 -14 -20z"/>
<path d="M5339 5193 c-13 -16 -12 -17 4 -4 16 13 21 21 13 21 -2 0 -10 -8 -17
-17z"/>
<path d="M5196 5187 c3 -10 9 -15 12 -12 3 3 0 11 -7 18 -10 9 -11 8 -5 -6z"/>
<path d="M5160 5175 c-11 -13 -11 -18 0 -28 10 -9 11 -9 6 1 -14 24 6 32 25
10 l20 -23 -17 28 c-19 32 -18 31 -34 12z"/>
<path d="M5395 5180 c3 -5 8 -10 11 -10 2 0 4 5 4 10 0 6 -5 10 -11 10 -5 0
-7 -4 -4 -10z"/>
<path d="M5220 5157 c0 -4 11 -6 25 -4 36 4 39 13 5 12 -17 0 -30 -3 -30 -8z"/>
<path d="M5360 5160 c-9 -6 -10 -10 -3 -10 6 0 15 5 18 10 8 12 4 12 -15 0z"/>
<path d="M5060 5153 c0 -7 9 -17 20 -23 11 -6 19 -16 17 -22 -1 -7 6 -14 16
-16 9 -2 17 1 17 7 0 6 -7 7 -17 4 -9 -4 -14 -2 -11 3 4 5 0 18 -8 29 -8 10
-14 15 -14 9 0 -5 -5 -2 -10 6 -6 9 -10 10 -10 3z"/>
<path d="M5108 5153 c6 -2 10 -9 7 -14 -4 -5 2 -6 11 -2 10 4 15 2 11 -3 -3
-6 -1 -16 4 -24 7 -11 8 -9 6 8 -3 23 -23 42 -42 41 -5 0 -4 -3 3 -6z"/>
<path d="M5006 5137 c3 -10 9 -15 12 -12 3 3 0 11 -7 18 -10 9 -11 8 -5 -6z"/>
<path d="M5180 5131 c0 -7 -5 -9 -12 -5 -7 5 -8 3 -3 -5 5 -9 10 -10 18 -2 6
6 8 14 4 18 -4 3 -7 1 -7 -6z"/>
<path d="M4983 5115 c-10 -10 -9 -16 2 -25 12 -10 10 -16 -13 -37 -15 -13 -22
-22 -15 -19 6 3 13 1 15 -6 2 -6 15 -13 29 -15 18 -2 20 -1 9 6 -8 5 -17 8
-21 5 -4 -2 -9 2 -12 10 -3 8 5 19 19 27 21 11 22 14 9 22 -10 5 -14 16 -10
28 7 22 5 23 -12 4z"/>
<path d="M5279 5113 c-13 -16 -12 -17 4 -4 9 7 17 15 17 17 0 8 -8 3 -21 -13z"/>
<path d="M5193 5093 c0 -9 4 -10 14 -2 7 6 13 12 13 14 0 1 -6 2 -13 2 -8 0
-14 -6 -14 -14z"/>
<path d="M5158 5076 c-13 -18 -14 -23 -2 -23 8 0 12 3 9 5 -3 3 0 11 7 19 6 7
9 15 7 17 -2 2 -12 -6 -21 -18z"/>
<path d="M4946 5078 c3 -4 9 -8 15 -8 5 0 9 4 9 8 0 5 -7 9 -15 9 -8 0 -12 -4
-9 -9z"/>
<path d="M5068 5083 c7 -3 16 -2 19 1 4 3 -2 6 -13 5 -11 0 -14 -3 -6 -6z"/>
<path d="M5233 5075 c0 -8 4 -12 9 -9 4 3 8 9 8 15 0 5 -4 9 -8 9 -5 0 -9 -7
-9 -15z"/>
<path d="M4913 5068 c-6 -8 -7 -21 -2 -33 l9 -20 -1 20 c-2 34 1 41 11 25 5
-8 12 -12 15 -9 3 4 -1 11 -8 18 -11 8 -17 8 -24 -1z"/>
<path d="M5054 5058 c-3 -4 0 -16 6 -25 9 -15 10 -14 4 6 -4 15 -2 21 4 17 6
-3 13 -3 16 2 3 5 -2 9 -10 9 -8 0 -17 -4 -20 -9z"/>
<path d="M5005 5040 c3 -5 11 -10 16 -10 6 0 7 5 4 10 -3 6 -11 10 -16 10 -6
0 -7 -4 -4 -10z"/>
<path d="M5085 5040 c-3 -6 1 -7 9 -4 18 7 21 14 7 14 -6 0 -13 -4 -16 -10z"/>
<path d="M4933 5017 c3 -9 1 -18 -6 -21 -9 -3 -8 -5 1 -5 8 -1 10 -6 6 -13 -4
-7 -3 -10 1 -5 14 12 16 45 3 53 -7 5 -9 2 -5 -9z"/>
<path d="M5036 5013 c-6 -14 -5 -15 5 -6 7 7 10 15 7 18 -3 3 -9 -2 -12 -12z"/>
<path d="M5186 5018 c3 -5 10 -6 15 -3 13 9 11 12 -6 12 -8 0 -12 -4 -9 -9z"/>
<path d="M5154 5009 c-3 -6 -2 -15 3 -20 5 -5 9 -1 9 11 0 23 -2 24 -12 9z"/>
<path d="M5056 4993 c-6 -14 -5 -15 5 -6 7 7 10 15 7 18 -3 3 -9 -2 -12 -12z"/>
<path d="M4975 4991 c-3 -5 0 -13 6 -17 8 -5 9 -3 4 6 -6 9 -1 10 16 5 19 -5
21 -4 9 4 -19 13 -27 14 -35 2z"/>
<path d="M4875 4970 c-3 -5 -1 -10 4 -10 6 0 11 5 11 10 0 6 -2 10 -4 10 -3 0
-8 -4 -11 -10z"/>
<path d="M4912 4960 c0 -14 2 -19 5 -12 2 6 2 18 0 25 -3 6 -5 1 -5 -13z"/>
<path d="M5010 4961 c0 -6 4 -12 8 -15 5 -3 9 1 9 9 0 8 -4 15 -9 15 -4 0 -8
-4 -8 -9z"/>
<path d="M5076 4958 c3 -5 10 -6 15 -3 13 9 11 12 -6 12 -8 0 -12 -4 -9 -9z"/>
<path d="M5110 4959 c0 -5 5 -7 10 -4 6 3 10 8 10 11 0 2 -4 4 -10 4 -5 0 -10
-5 -10 -11z"/>
<path d="M4814 4938 c-4 -7 -4 -10 1 -6 4 4 14 0 22 -10 13 -15 13 -15 3 6
-12 25 -16 27 -26 10z"/>
<path d="M4855 4940 c-3 -6 1 -7 9 -4 18 7 21 14 7 14 -6 0 -13 -4 -16 -10z"/>
<path d="M4953 4930 c-1 -11 2 -20 5 -20 4 0 8 9 9 20 1 11 -2 20 -5 20 -4 0
-8 -9 -9 -20z"/>
<path d="M5073 4927 c0 -8 6 -14 14 -14 9 0 10 4 2 14 -6 7 -12 13 -14 13 -1
0 -2 -6 -2 -13z"/>
<path d="M5149 4923 c-13 -16 -12 -17 4 -4 9 7 17 15 17 17 0 8 -8 3 -21 -13z"/>
<path d="M5004 4923 c4 -4 16 -8 28 -10 12 -2 19 -1 16 2 -3 3 -16 8 -28 10
-12 2 -20 1 -16 -2z"/>
<path d="M4797 4913 c-10 -10 -8 -23 4 -23 5 0 7 5 3 12 -5 8 -2 9 10 5 10 -4
15 -3 11 3 -7 12 -19 13 -28 3z"/>
<path d="M4910 4906 c0 -2 7 -7 16 -10 8 -3 12 -2 9 4 -6 10 -25 14 -25 6z"/>
<path d="M4907 4879 c7 -7 15 -10 18 -7 3 3 -2 9 -12 12 -14 6 -15 5 -6 -5z"/>
<path d="M4876 4855 c-9 -26 -7 -32 5 -12 6 10 9 21 6 23 -2 3 -7 -2 -11 -11z"/>
<path d="M4950 4859 c0 -5 5 -7 10 -4 6 3 10 8 10 11 0 2 -4 4 -10 4 -5 0 -10
-5 -10 -11z"/>
<path d="M5010 4859 c0 -5 5 -7 10 -4 6 3 10 8 10 11 0 2 -4 4 -10 4 -5 0 -10
-5 -10 -11z"/>
<path d="M4772 4851 c-11 -6 -10 -10 0 -19 11 -8 14 -7 14 9 0 10 0 19 -1 19
0 0 -6 -4 -13 -9z"/>
<path d="M4816 4841 c-3 -4 6 -7 19 -7 14 0 22 2 19 5 -8 8 -34 10 -38 2z"/>
<path d="M4656 4802 c-3 -5 1 -9 9 -9 8 0 12 4 9 9 -3 4 -7 8 -9 8 -2 0 -6 -4
-9 -8z"/>
<path d="M4719 4798 c-5 -18 -6 -38 -1 -34 7 8 12 36 6 36 -2 0 -4 -1 -5 -2z"/>
<path d="M4679 4773 c-13 -16 -12 -17 4 -4 16 13 21 21 13 21 -2 0 -10 -8 -17
-17z"/>
<path d="M4815 4740 c3 -5 8 -10 11 -10 2 0 4 5 4 10 0 6 -5 10 -11 10 -5 0
-7 -4 -4 -10z"/>
<path d="M4697 4675 c-4 -8 -3 -16 1 -19 4 -3 9 4 9 15 2 23 -3 25 -10 4z"/>
<path d="M4755 4671 c-3 -5 -2 -12 3 -15 5 -3 9 1 9 9 0 17 -3 19 -12 6z"/>
<path d="M4655 4660 c3 -5 8 -10 11 -10 2 0 4 5 4 10 0 6 -5 10 -11 10 -5 0
-7 -4 -4 -10z"/>
<path d="M4553 4631 c0 -11 5 -18 9 -15 4 3 5 11 1 19 -7 21 -12 19 -10 -4z"/>
<path d="M4679 4593 c-13 -17 -13 -17 6 -3 11 8 22 16 24 17 2 2 0 3 -6 3 -6
0 -17 -8 -24 -17z"/>
<path d="M4480 4580 c-9 -6 -10 -10 -3 -10 6 0 15 5 18 10 8 12 4 12 -15 0z"/>
<path d="M4530 4539 c0 -5 5 -7 10 -4 6 3 10 8 10 11 0 2 -4 4 -10 4 -5 0 -10
-5 -10 -11z"/>
<path d="M4450 4499 c0 -5 5 -7 10 -4 6 3 10 8 10 11 0 2 -4 4 -10 4 -5 0 -10
-5 -10 -11z"/>
<path d="M4495 4500 c-3 -5 -1 -10 4 -10 6 0 11 5 11 10 0 6 -2 10 -4 10 -3 0
-8 -4 -11 -10z"/>
<path d="M4340 4486 c0 -2 8 -10 18 -17 15 -13 16 -12 3 4 -13 16 -21 21 -21
13z"/>
<path d="M4495 4459 c-3 -4 2 -6 10 -5 21 3 28 13 10 13 -9 0 -18 -4 -20 -8z"/>
<path d="M4549 4443 c-13 -16 -12 -17 4 -4 9 7 17 15 17 17 0 8 -8 3 -21 -13z"/>
<path d="M4375 4420 c3 -5 8 -10 11 -10 2 0 4 5 4 10 0 6 -5 10 -11 10 -5 0
-7 -4 -4 -10z"/>
<path d="M4410 4420 c0 -5 5 -10 11 -10 5 0 7 5 4 10 -3 6 -8 10 -11 10 -2 0
-4 -4 -4 -10z"/>
<path d="M4275 4409 c-4 -6 -5 -12 -2 -15 2 -3 7 2 10 11 7 17 1 20 -8 4z"/>
<path d="M4435 4380 c-3 -5 -1 -10 4 -10 6 0 11 5 11 10 0 6 -2 10 -4 10 -3 0
-8 -4 -11 -10z"/>
<path d="M4333 4351 c0 -11 5 -18 9 -15 4 3 5 11 1 19 -7 21 -12 19 -10 -4z"/>
<path d="M4374 4356 c1 -8 5 -18 8 -22 4 -3 5 1 4 10 -1 8 -5 18 -8 22 -4 3
-5 -1 -4 -10z"/>
<path d="M4193 4343 c4 -3 1 -13 -6 -22 -11 -14 -10 -14 5 -2 16 12 16 31 1
31 -4 0 -3 -3 0 -7z"/>
<path d="M4295 4300 c3 -5 8 -10 11 -10 2 0 4 5 4 10 0 6 -5 10 -11 10 -5 0
-7 -4 -4 -10z"/>
<path d="M4336 4302 c-2 -4 -1 -14 4 -22 7 -11 9 -9 7 8 -1 24 -3 26 -11 14z"/>
<path d="M4299 4268 c-6 -21 -5 -38 1 -38 5 0 8 9 7 20 -1 17 -5 26 -8 18z"/>
<path d="M4114 4249 c-3 -6 -2 -15 3 -20 5 -5 9 -1 9 11 0 23 -2 24 -12 9z"/>
<path d="M4357 4253 c-10 -9 -9 -23 1 -23 5 0 9 7 9 15 0 17 -1 18 -10 8z"/>
<path d="M4079 4233 c-13 -16 -12 -17 4 -4 16 13 21 21 13 21 -2 0 -10 -8 -17
-17z"/>
<path d="M4230 4199 c0 -5 5 -7 10 -4 6 3 10 8 10 11 0 2 -4 4 -10 4 -5 0 -10
-5 -10 -11z"/>
<path d="M4033 4183 c4 -3 1 -13 -6 -22 -11 -14 -10 -14 5 -2 16 12 16 31 1
31 -4 0 -3 -3 0 -7z"/>
<path d="M4310 4176 c0 -2 8 -10 18 -17 15 -13 16 -12 3 4 -13 16 -21 21 -21
13z"/>
<path d="M4135 4140 c3 -5 8 -10 11 -10 2 0 4 5 4 10 0 6 -5 10 -11 10 -5 0
-7 -4 -4 -10z"/>
<path d="M4166 4142 c-3 -5 1 -9 9 -9 8 0 12 4 9 9 -3 4 -7 8 -9 8 -2 0 -6 -4
-9 -8z"/>
<path d="M4095 4100 c3 -5 8 -10 11 -10 2 0 4 5 4 10 0 6 -5 10 -11 10 -5 0
-7 -4 -4 -10z"/>
<path d="M4135 4101 c-3 -5 -2 -12 3 -15 5 -3 9 1 9 9 0 17 -3 19 -12 6z"/>
<path d="M4100 4040 c-9 -6 -10 -10 -3 -10 6 0 15 5 18 10 8 12 4 12 -15 0z"/>
<path d="M3970 4020 c0 -5 5 -10 11 -10 5 0 7 5 4 10 -3 6 -8 10 -11 10 -2 0
-4 -4 -4 -10z"/>
<path d="M4053 4015 c0 -8 4 -12 9 -9 5 3 6 10 3 15 -9 13 -12 11 -12 -6z"/>
<path d="M3875 4009 c-4 -6 -5 -12 -2 -15 2 -3 7 2 10 11 7 17 1 20 -8 4z"/>
<path d="M3846 3958 c3 -5 10 -6 15 -3 13 9 11 12 -6 12 -8 0 -12 -4 -9 -9z"/>
<path d="M4155 3960 c-3 -5 -1 -10 4 -10 6 0 11 5 11 10 0 6 -2 10 -4 10 -3 0
-8 -4 -11 -10z"/>
<path d="M3955 3939 c-3 -4 2 -6 10 -5 21 3 28 13 10 13 -9 0 -18 -4 -20 -8z"/>
<path d="M3793 3915 c0 -8 4 -12 9 -9 4 3 8 9 8 15 0 5 -4 9 -8 9 -5 0 -9 -7
-9 -15z"/>
<path d="M3850 3899 c0 -5 5 -7 10 -4 6 3 10 8 10 11 0 2 -4 4 -10 4 -5 0 -10
-5 -10 -11z"/>
<path d="M3890 3899 c0 -5 5 -7 10 -4 6 3 10 8 10 11 0 2 -4 4 -10 4 -5 0 -10
-5 -10 -11z"/>
<path d="M3934 3902 c4 -3 14 -7 22 -8 9 -1 13 0 10 4 -4 3 -14 7 -22 8 -9 1
-13 0 -10 -4z"/>
<path d="M4095 3851 c-3 -5 -2 -12 3 -15 5 -3 9 1 9 9 0 17 -3 19 -12 6z"/>
<path d="M3876 3842 c-3 -5 1 -9 9 -9 8 0 12 4 9 9 -3 4 -7 8 -9 8 -2 0 -6 -4
-9 -8z"/>
<path d="M7165 3842 c-2 -2 -34 -5 -72 -7 -72 -3 -167 -35 -190 -63 -7 -9 -13
-12 -13 -7 0 14 -69 -56 -99 -100 -37 -54 -62 -120 -66 -175 -2 -25 -4 -45 -5
-45 -1 0 -3 -8 -5 -17 -2 -10 1 -18 6 -18 6 0 6 -8 -1 -19 -7 -13 -7 -22 0
-26 7 -4 7 -12 0 -25 -6 -12 -7 -21 0 -25 5 -3 7 -11 5 -18 -11 -28 -12 -77
-2 -77 8 0 7 -4 0 -11 -8 -8 -8 -20 -3 -35 6 -14 6 -26 0 -29 -6 -4 -7 -13 -1
-24 6 -10 6 -23 1 -31 -5 -8 -5 -21 0 -30 5 -9 4 -23 -1 -32 -6 -11 -6 -19 1
-23 6 -4 7 -12 3 -18 -10 -17 -11 -67 -1 -67 5 0 6 -6 1 -12 -12 -20 -12 -38
-1 -38 6 0 5 -6 -2 -15 -7 -8 -9 -15 -5 -15 4 0 1 -8 -6 -17 -8 -10 -9 -14 -2
-10 6 4 14 3 18 -3 3 -5 2 -10 -4 -10 -10 0 -9 -19 2 -37 5 -7 5 -13 0 -13 -4
0 -8 -18 -9 -40 0 -21 3 -37 7 -35 10 7 -2 -37 -15 -54 -8 -11 -8 -13 0 -8 14
8 25 -36 13 -55 -4 -7 -3 -19 4 -27 10 -12 9 -13 -3 -6 -12 7 -13 6 -4 -6 5
-8 11 -30 13 -49 2 -19 7 -37 12 -38 5 -2 7 -8 3 -13 -3 -5 0 -9 6 -9 6 0 9
-4 5 -9 -3 -5 0 -15 7 -23 7 -7 14 -20 16 -28 2 -8 14 -25 28 -38 22 -21 28
-35 25 -55 -1 -5 4 -5 10 -1 7 4 20 -3 31 -17 11 -13 17 -17 13 -9 -4 10 -1 9
8 -2 8 -10 21 -18 30 -18 9 0 19 -4 22 -10 3 -5 25 -14 48 -20 23 -6 49 -14
57 -17 27 -10 50 -10 50 1 0 8 2 8 8 0 4 -6 27 -10 52 -9 25 1 51 -3 59 -9 11
-8 13 -8 8 0 -4 7 0 14 8 18 8 3 15 1 15 -4 0 -5 12 -7 26 -4 17 3 23 1 19 -6
-4 -7 2 -6 14 2 17 11 25 11 42 0 12 -8 18 -9 14 -3 -6 10 25 17 50 11 6 -1
24 -3 40 -3 17 -1 33 -6 37 -12 5 -6 8 -5 8 4 0 11 3 11 17 0 13 -11 15 -11 9
-1 -7 11 4 13 50 11 33 -2 64 0 71 4 6 4 14 3 17 -1 3 -5 18 -8 33 -6 15 1 31
-3 35 -9 6 -9 8 -8 8 2 0 11 5 9 22 -5 19 -15 20 -16 9 -1 -11 14 -11 17 2 17
8 0 18 -6 20 -12 3 -7 6 -4 6 6 1 20 1 20 17 0 8 -10 13 -13 9 -6 -4 8 1 12
15 12 12 0 19 -4 16 -8 -2 -4 4 -8 14 -8 10 0 16 4 14 8 -3 4 2 8 11 8 12 0
15 -5 11 -17 -6 -17 -5 -17 7 -1 11 14 16 15 27 5 7 -7 10 -7 7 -1 -4 7 5 11
24 12 27 1 29 -1 17 -16 -12 -16 -11 -16 6 -2 10 8 33 15 50 16 17 1 50 3 73
5 25 1 49 -4 59 -12 10 -8 15 -9 11 -2 -9 14 8 20 44 15 16 -2 26 -9 23 -14
-3 -5 3 -4 15 4 17 11 25 11 42 0 12 -8 18 -9 14 -3 -6 10 25 17 50 11 6 -1
24 -3 40 -3 17 -1 33 -6 37 -12 5 -6 8 -5 8 4 0 11 3 11 17 0 13 -11 15 -11 9
-1 -7 11 4 13 50 11 33 -2 64 0 71 4 6 4 14 3 17 -1 3 -5 18 -8 33 -6 15 1 31
-3 35 -9 6 -9 8 -8 8 2 0 11 5 9 22 -5 19 -15 20 -16 9 -1 -11 14 -11 17 2 17
8 0 18 -6 20 -12 3 -7 6 -4 6 6 1 20 1 20 17 0 8 -10 13 -13 9 -6 -4 8 1 12
15 12 12 0 19 -4 16 -8 -2 -4 4 -8 14 -8 10 0 16 4 14 8 -3 4 2 8 11 8 12 0
15 -5 11 -17 -6 -17 -5 -17 7 -1 11 14 16 15 27 5 7 -7 10 -7 7 -1 -4 7 5 11
24 12 27 1 29 -1 17 -16 -12 -16 -11 -16 6 -2 10 8 33 15 50 16 17 1 50 3 73
5 25 1 49 -4 59 -12 10 -8 15 -9 11 -2 -9 14 8 20 44 15 16 -2 26 -9 23 -14
-3 -5 3 -4 15 4 17 11 25 11 42 0 12 -8 18 -9 14 -3 -6 10 25 17 50 11 6 -1
24 -3 40 -3 17 -1 33 -6 37 -12 5 -6 8 -5 8 4 0 11 3 11 17 0 13 -11 15 -11 9
-1 -7 11 4 13 50 11 33 -2 64 0 71 4 6 4 14 3 17 -1 3 -5 18 -8 33 -6 15 1 31
-3 35 -9 6 -9 8 -8 8 2 0 11 5 9 22 -5 19 -15 20 -16 9 -1 -11 14 -11 17 2 17
8 0 18 -6 20 -12 3 -7 6 -4 6 6 1 20 1 20 17 0 8 -10 13 -13 9 -6 -4 8 1 12
15 12 12 0 19 -4 16 -8 -2 -4 4 -8 14 -8 10 0 16 4 14 8 -3 4 2 8 11 8 12 0
15 -5 11 -17 -6 -17 -5 -17 7 -1 11 14 16 15 27 5 7 -7 10 -7 7 -1 -4 7 5 11
24 12 27 1 29 -1 17 -16 -12 -16 -11 -16 6 -2 10 8 33 15 50 16 17 1 50 3 73
5 25 1 49 -4 59 -12 10 -8 15 -9 11 -2 -9 14 8 20 44 15 16 -2 26 -9 23 -14
-3 -5 3 -4 15 4 17 11 25 11 42 0 12 -8 18 -9 14 -3 -6 10 25 17 50 11 6 -1
24 -3 40 -3 17 -1 33 -6 37 -12 5 -6 8 -5 8 4 0 11 3 11 17 0 13 -11 15 -11 9
-1 -7 11 4 13 50 11 33 -2 64 0 71 4 6 4 14 3 17 -1 3 -5 18 -8 33 -6 15 1 31
-3 35 -9 6 -9 8 -8 8 2 0 11 5 9 22 -5 19 -15 20 -16 9 -1 -11 14 -11 17 2 17
8 0 18 -6 20 -12 3 -7 6 -4 6 6 1 20 1 20 17 0 8 -10 13 -13 9 -6 -4 8 1 12
15 12 12 0 19 -4 16 -8 -2 -4 4 -8 14 -8 10 0 16 4 14 8 -3 4 2 8 11 8 12 0
15 -5 11 -17 -6 -17 -5 -17 7 -1 11 14 16 15 27 5 7 -7 10 -7 7 -1 -4 7 5 11
24 12 27 1 29 -1 17 -16 -12 -16 -11 -16 6 -2 10 8 33 15 50 16 17 1 50 3 73
5 25 1 49 -4 59 -12 10 -8 15 -9 11 -2 -9 14 8 20 44 15 18 -3 26 -8 22 -16
-4 -6 1 -5 10 3 10 8 27 11 43 7 16 -4 23 -3 19 3 -4 7 1 8 11 4 9 -3 35 -7
58 -7 28 -1 40 -5 38 -14 -1 -8 2 -11 8 -7 6 3 8 10 5 15 -3 5 30 8 74 8 44
-1 84 1 87 5 4 4 13 2 20 -4 7 -6 15 -6 18 -1 8 13 57 2 50 -12 -3 -6 2 -2 10
8 9 12 16 14 16 7 0 -9 5 -8 16 3 8 9 21 16 27 17 30 2 51 9 57 19 4 6 15 12
24 14 10 1 22 9 27 17 5 8 9 10 9 6 0 -13 80 74 96 105 8 16 19 28 25 28 6 0
7 5 4 10 -4 6 -1 17 5 25 7 8 9 15 5 15 -4 0 -3 6 3 12 5 7 11 27 13 43 2 17
7 36 12 43 6 8 5 12 -2 12 -8 0 -9 5 -1 19 5 11 6 22 1 25 -4 3 -6 23 -2 43 8
49 7 65 -2 81 -5 6 -4 12 1 12 5 0 7 12 5 28 -5 31 -5 37 0 72 2 14 -1 31 -6
38 -6 7 -6 12 1 12 6 0 8 10 5 23 -5 24 -5 79 1 85 2 2 1 16 -4 32 -6 20 -4
35 8 51 8 12 10 19 4 15 -6 -3 -13 -2 -17 4 -3 5 -2 10 2 10 11 0 8 53 -2 71
-5 7 -4 10 3 5 7 -4 9 9 7 40 -3 26 -7 49 -9 51 -3 3 -1 16 4 29 6 15 6 26 -1
30 -6 3 -6 11 -1 17 4 7 7 23 5 37 -4 31 -4 39 0 70 2 14 1 29 -2 35 -3 5 -6
21 -8 35 -6 56 -31 130 -44 130 -5 0 -9 7 -9 15 0 19 -114 137 -123 128 -4 -3
-7 -2 -7 4 0 6 -8 13 -17 16 -10 4 -36 13 -58 22 -22 8 -78 18 -124 20 -46 3
-88 8 -92 11 -5 3 -9 2 -9 -3 0 -9 -123 -8 -146 1 -8 3 -14 2 -14 -2 0 -8
-124 -6 -146 2 -8 3 -14 2 -14 -2 0 -8 -124 -6 -146 2 -8 3 -14 2 -14 -3 0 -4
-23 -5 -50 -1 -28 4 -52 4 -55 2 -7 -7 -94 -6 -102 1 -3 4 -13 2 -23 -3 -10
-5 -20 -7 -23 -3 -5 5 -70 7 -89 3 -22 -4 -99 -2 -105 3 -3 4 -13 2 -23 -3
-10 -5 -20 -7 -23 -3 -5 5 -70 7 -89 3 -22 -4 -99 -2 -105 3 -3 4 -13 2 -23
-3 -10 -5 -20 -7 -23 -3 -5 5 -70 7 -89 3 -22 -4 -99 -2 -105 3 -3 4 -13 2
-23 -3 -10 -5 -20 -7 -23 -3 -5 5 -70 7 -89 3 -22 -4 -99 -2 -105 3 -3 4 -13
2 -23 -3 -10 -5 -20 -7 -23 -3 -6 5 -68 7 -92 3 -24 -4 -116 -1 -125 5 -6 3
-10 3 -10 -2 0 -9 -123 -8 -146 1 -8 3 -14 2 -14 -2 0 -8 -124 -6 -146 2 -8 3
-14 2 -14 -2 0 -8 -124 -6 -146 2 -8 3 -14 2 -14 -2 0 -8 -118 -7 -127 2 -3 3
-13 1 -23 -4 -10 -5 -20 -7 -23 -3 -5 5 -70 7 -89 3 -22 -4 -99 -2 -105 3 -3
4 -13 2 -23 -3 -10 -5 -20 -7 -23 -3 -5 5 -70 7 -89 3 -22 -4 -99 -2 -105 3
-3 4 -13 2 -22 -3 -10 -5 -23 -5 -29 -1 -7 4 -33 5 -58 1 -24 -4 -47 -3 -50 2
-3 4 -13 4 -23 -2 -10 -5 -21 -7 -24 -3 -5 5 -70 7 -89 3 -22 -4 -99 -2 -105
3 -3 4 -13 2 -23 -3 -10 -5 -20 -7 -23 -3 -5 5 -70 7 -89 3 -22 -4 -99 -2
-105 3 -3 4 -13 2 -23 -3 -10 -5 -20 -7 -23 -3 -5 5 -70 7 -89 3 -22 -4 -99
-2 -105 3 -3 4 -13 2 -23 -3 -10 -5 -20 -7 -23 -3 -5 5 -70 7 -89 3 -22 -4
-99 -2 -105 3 -3 4 -13 2 -23 -3 -10 -5 -20 -7 -23 -4 -6 6 -87 11 -92 6z"/>
<path d="M3855 3799 c-3 -4 2 -6 10 -5 21 3 28 13 10 13 -9 0 -18 -4 -20 -8z"/>
<path d="M3639 3753 c-13 -16 -12 -17 4 -4 16 13 21 21 13 21 -2 0 -10 -8 -17
-17z"/>
<path d="M3695 3740 c3 -5 8 -10 11 -10 2 0 4 5 4 10 0 6 -5 10 -11 10 -5 0
-7 -4 -4 -10z"/>
<path d="M3730 3739 c0 -5 5 -7 10 -4 6 3 10 8 10 11 0 2 -4 4 -10 4 -5 0 -10
-5 -10 -11z"/>
<path d="M3695 3700 c3 -5 8 -10 11 -10 2 0 4 5 4 10 0 6 -5 10 -11 10 -5 0
-7 -4 -4 -10z"/>
<path d="M3610 3659 c0 -5 5 -7 10 -4 6 3 10 8 10 11 0 2 -4 4 -10 4 -5 0 -10
-5 -10 -11z"/>
<path d="M3650 3659 c0 -5 5 -7 10 -4 6 3 10 8 10 11 0 2 -4 4 -10 4 -5 0 -10
-5 -10 -11z"/>
<path d="M3695 3659 c-3 -4 2 -6 10 -5 21 3 28 13 10 13 -9 0 -18 -4 -20 -8z"/>
<path d="M3496 3633 c-6 -14 -5 -15 5 -6 7 7 10 15 7 18 -3 3 -9 -2 -12 -12z"/>
<path d="M3570 3579 c0 -5 5 -7 10 -4 6 3 10 8 10 11 0 2 -4 4 -10 4 -5 0 -10
-5 -10 -11z"/>
<path d="M3490 3540 c0 -5 5 -10 11 -10 5 0 7 5 4 10 -3 6 -8 10 -11 10 -2 0
-4 -4 -4 -10z"/>
<path d="M3535 3540 c3 -5 8 -10 11 -10 2 0 4 5 4 10 0 6 -5 10 -11 10 -5 0
-7 -4 -4 -10z"/>
<path d="M3535 3499 c-3 -4 2 -6 10 -5 21 3 28 13 10 13 -9 0 -18 -4 -20 -8z"/>
<path d="M3370 3479 c0 -5 5 -7 10 -4 6 3 10 8 10 11 0 2 -4 4 -10 4 -5 0 -10
-5 -10 -11z"/>
<path d="M3475 3459 c-3 -4 2 -6 10 -5 21 3 28 13 10 13 -9 0 -18 -4 -20 -8z"/>
<path d="M3315 3450 c-4 -6 -10 -8 -15 -5 -4 3 -14 -3 -21 -13 -12 -15 -12
-16 2 -5 9 7 18 11 21 8 3 -3 11 1 18 10 7 8 10 15 7 15 -3 0 -9 -5 -12 -10z"/>
<path d="M3370 3419 c0 -5 5 -7 10 -4 6 3 10 8 10 11 0 2 -4 4 -10 4 -5 0 -10
-5 -10 -11z"/>
<path d="M3479 3428 c-5 -18 -6 -38 -1 -34 7 8 12 36 6 36 -2 0 -4 -1 -5 -2z"/>
<path d="M3270 3405 c0 -7 30 -13 34 -7 3 4 -4 9 -15 9 -10 1 -19 0 -19 -2z"/>
<path d="M3435 3401 c-3 -5 -2 -12 3 -15 5 -3 9 1 9 9 0 17 -3 19 -12 6z"/>
<path d="M3370 3379 c0 -5 5 -7 10 -4 6 3 10 8 10 11 0 2 -4 4 -10 4 -5 0 -10
-5 -10 -11z"/>
<path d="M3374 3336 c1 -8 5 -18 8 -22 4 -3 5 1 4 10 -1 8 -5 18 -8 22 -4 3
-5 -1 -4 -10z"/>
<path d="M3515 3320 c3 -5 8 -10 11 -10 2 0 4 5 4 10 0 6 -5 10 -11 10 -5 0
-7 -4 -4 -10z"/>
<path d="M3339 3308 c-6 -21 -5 -38 1 -38 5 0 8 9 7 20 -1 17 -5 26 -8 18z"/>
<path d="M3215 3220 c-3 -5 -1 -10 4 -10 6 0 11 5 11 10 0 6 -2 10 -4 10 -3 0
-8 -4 -11 -10z"/>
<path d="M3350 3216 c0 -2 8 -10 18 -17 15 -13 16 -12 3 4 -13 16 -21 21 -21
13z"/>
<path d="M3130 3180 c0 -5 5 -10 11 -10 5 0 7 5 4 10 -3 6 -8 10 -11 10 -2 0
-4 -4 -4 -10z"/>
<path d="M3170 3180 c0 -5 5 -10 11 -10 5 0 7 5 4 10 -3 6 -8 10 -11 10 -2 0
-4 -4 -4 -10z"/>
<path d="M3206 3182 c-3 -5 1 -9 9 -9 8 0 12 4 9 9 -3 4 -7 8 -9 8 -2 0 -6 -4
-9 -8z"/>
<path d="M3026 3162 c-2 -4 4 -8 14 -8 10 0 16 4 14 8 -3 4 -9 8 -14 8 -5 0
-11 -4 -14 -8z"/>
<path d="M3090 3140 c0 -5 5 -10 11 -10 5 0 7 5 4 10 -3 6 -8 10 -11 10 -2 0
-4 -4 -4 -10z"/>
<path d="M3130 3139 c0 -5 5 -7 10 -4 6 3 10 8 10 11 0 2 -4 4 -10 4 -5 0 -10
-5 -10 -11z"/>
<path d="M3196 3127 c3 -10 9 -15 12 -12 3 3 0 11 -7 18 -10 9 -11 8 -5 -6z"/>
<path d="M2956 3101 c-3 -5 2 -15 12 -22 15 -12 16 -12 5 2 -7 9 -10 19 -6 22
3 4 4 7 0 7 -3 0 -8 -4 -11 -9z"/>
<path d="M3135 3099 c-3 -4 2 -6 10 -5 21 3 28 13 10 13 -9 0 -18 -4 -20 -8z"/>
<path d="M3010 3060 c0 -5 5 -10 11 -10 5 0 7 5 4 10 -3 6 -8 10 -11 10 -2 0
-4 -4 -4 -10z"/>
<path d="M3074 3062 c4 -3 14 -7 22 -8 9 -1 13 0 10 4 -4 3 -14 7 -22 8 -9 1
-13 0 -10 -4z"/>
<path d="M3015 3020 c3 -5 8 -10 11 -10 2 0 4 5 4 10 0 6 -5 10 -11 10 -5 0
-7 -4 -4 -10z"/>
<path d="M551 2993 c7 -12 15 -20 18 -17 3 2 -3 12 -13 22 -17 16 -18 16 -5
-5z"/>
<path d="M2860 3005 c0 -2 6 -8 13 -14 10 -8 14 -7 14 2 0 8 -6 14 -14 14 -7
0 -13 -1 -13 -2z"/>
<path d="M3060 3000 c-9 -6 -10 -10 -3 -10 6 0 15 5 18 10 8 12 4 12 -15 0z"/>
<path d="M616 2978 c3 -5 10 -6 15 -3 13 9 11 12 -6 12 -8 0 -12 -4 -9 -9z"/>
<path d="M2930 2979 c0 -5 5 -7 10 -4 6 3 10 8 10 11 0 2 -4 4 -10 4 -5 0 -10
-5 -10 -11z"/>
<path d="M613 2945 c0 -8 4 -12 9 -9 5 3 6 10 3 15 -9 13 -12 11 -12 -6z"/>
<path d="M2790 2916 c7 -7 13 -7 20 0 6 6 3 10 -10 10 -13 0 -16 -4 -10 -10z"/>
<path d="M2907 2919 c7 -7 15 -10 18 -7 3 3 -2 9 -12 12 -14 6 -15 5 -6 -5z"/>
<path d="M2793 2885 c0 -8 4 -12 9 -9 5 3 6 10 3 15 -9 13 -12 11 -12 -6z"/>
<path d="M2899 2888 c-5 -18 -6 -38 -1 -34 7 8 12 36 6 36 -2 0 -4 -1 -5 -2z"/>
<path d="M616 2858 c3 -4 11 -5 19 -1 21 7 19 12 -4 10 -11 0 -18 -5 -15 -9z"/>
<path d="M695 2860 c3 -5 8 -10 11 -10 2 0 4 5 4 10 0 6 -5 10 -11 10 -5 0 -7
-4 -4 -10z"/>
<path d="M2750 2856 c0 -2 8 -10 18 -17 15 -13 16 -12 3 4 -13 16 -21 21 -21
13z"/>
<path d="M655 2820 c3 -5 8 -10 11 -10 2 0 4 5 4 10 0 6 -5 10 -11 10 -5 0 -7
-4 -4 -10z"/>
<path d="M2747 2759 c7 -7 15 -10 18 -7 3 3 -2 9 -12 12 -14 6 -15 5 -6 -5z"/>
<path d="M2633 2725 c0 -8 4 -15 9 -15 4 0 8 4 8 9 0 6 -4 12 -8 15 -5 3 -9
-1 -9 -9z"/>
<path d="M2677 2733 c-10 -9 -9 -23 1 -23 5 0 9 7 9 15 0 17 -1 18 -10 8z"/>
<path d="M820 2726 c0 -2 8 -10 18 -17 15 -13 16 -12 3 4 -13 16 -21 21 -21
13z"/>
<path d="M2739 2728 c-5 -18 -6 -38 -1 -34 7 8 12 36 6 36 -2 0 -4 -1 -5 -2z"/>
<path d="M2630 2679 c0 -5 5 -7 10 -4 6 3 10 8 10 11 0 2 -4 4 -10 4 -5 0 -10
-5 -10 -11z"/>
<path d="M821 2636 c-9 -11 -9 -16 1 -22 7 -4 10 -4 6 1 -4 4 -3 14 3 22 6 7
9 13 6 13 -2 0 -10 -6 -16 -14z"/>
<path d="M2634 2622 c4 -3 14 -7 22 -8 9 -1 13 0 10 4 -4 3 -14 7 -22 8 -9 1
-13 0 -10 -4z"/>
<path d="M2710 2625 c0 -5 5 -17 10 -25 5 -8 10 -10 10 -5 0 6 -5 17 -10 25
-5 8 -10 11 -10 5z"/>
<path d="M2414 2558 c-4 -7 -4 -10 1 -6 4 4 15 2 24 -5 14 -11 14 -10 2 6 -16
20 -18 21 -27 5z"/>
<path d="M870 2541 c0 -6 4 -13 10 -16 6 -3 7 1 4 9 -7 18 -14 21 -14 7z"/>
<path d="M976 2542 c-3 -5 1 -9 9 -9 8 0 12 4 9 9 -3 4 -7 8 -9 8 -2 0 -6 -4
-9 -8z"/>
<path d="M937 2515 c-4 -8 -3 -16 1 -19 4 -3 9 4 9 15 2 23 -3 25 -10 4z"/>
<path d="M1086 2522 c-3 -5 1 -9 9 -9 8 0 12 4 9 9 -3 4 -7 8 -9 8 -2 0 -6 -4
-9 -8z"/>
<path d="M2410 2521 c0 -6 4 -13 10 -16 6 -3 7 1 4 9 -7 18 -14 21 -14 7z"/>
<path d="M970 2499 c0 -5 5 -7 10 -4 6 3 10 8 10 11 0 2 -4 4 -10 4 -5 0 -10
-5 -10 -11z"/>
<path d="M2490 2500 c0 -5 5 -10 11 -10 5 0 7 5 4 10 -3 6 -8 10 -11 10 -2 0
-4 -4 -4 -10z"/>
<path d="M2354 2489 c-3 -6 -2 -15 3 -20 5 -5 9 -1 9 11 0 23 -2 24 -12 9z"/>
<path d="M870 2478 c0 -4 4 -8 9 -8 6 0 12 4 15 8 3 5 -1 9 -9 9 -8 0 -15 -4
-15 -9z"/>
<path d="M975 2471 c-3 -5 -2 -12 3 -15 5 -3 9 1 9 9 0 17 -3 19 -12 6z"/>
<path d="M2454 2436 c1 -8 5 -18 8 -22 4 -3 5 1 4 10 -1 8 -5 18 -8 22 -4 3
-5 -1 -4 -10z"/>
<path d="M1030 2381 c0 -6 4 -13 10 -16 6 -3 7 1 4 9 -7 18 -14 21 -14 7z"/>
<path d="M2370 2379 c0 -5 5 -7 10 -4 6 3 10 8 10 11 0 2 -4 4 -10 4 -5 0 -10
-5 -10 -11z"/>
<path d="M2419 2388 c-5 -18 -6 -38 -1 -34 7 8 12 36 6 36 -2 0 -4 -1 -5 -2z"/>
<path d="M1094 2356 c1 -8 5 -18 8 -22 4 -3 5 1 4 10 -1 8 -5 18 -8 22 -4 3
-5 -1 -4 -10z"/>
<path d="M1199 2353 c-13 -16 -12 -17 4 -4 9 7 17 15 17 17 0 8 -8 3 -21 -13z"/>
<path d="M2335 2340 c-3 -5 -1 -10 4 -10 6 0 11 5 11 10 0 6 -2 10 -4 10 -3 0
-8 -4 -11 -10z"/>
<path d="M2437 2333 c-10 -9 -9 -23 1 -23 5 0 9 7 9 15 0 17 -1 18 -10 8z"/>
<path d="M1030 2318 c0 -4 4 -8 9 -8 6 0 12 4 15 8 3 5 -1 9 -9 9 -8 0 -15 -4
-15 -9z"/>
<path d="M2310 2279 c0 -5 5 -7 10 -4 6 3 10 8 10 11 0 2 -4 4 -10 4 -5 0 -10
-5 -10 -11z"/>
<path d="M2355 2269 c-4 -6 -5 -12 -2 -15 2 -3 7 2 10 11 7 17 1 20 -8 4z"/>
<path d="M11815 2271 c-3 -5 -2 -12 3 -15 5 -3 9 1 9 9 0 17 -3 19 -12 6z"/>
<path d="M956 2262 c-3 -5 1 -9 9 -9 8 0 12 4 9 9 -3 4 -7 8 -9 8 -2 0 -6 -4
-9 -8z"/>
<path d="M1210 2260 c0 -5 5 -10 11 -10 5 0 7 5 4 10 -3 6 -8 10 -11 10 -2 0
-4 -4 -4 -10z"/>
<path d="M2109 2243 c-13 -16 -12 -17 4 -4 9 7 17 15 17 17 0 8 -8 3 -21 -13z"/>
<path d="M2234 2222 c4 -3 14 -7 22 -8 9 -1 13 0 10 4 -4 3 -14 7 -22 8 -9 1
-13 0 -10 -4z"/>
<path d="M1375 2209 c-4 -6 -5 -12 -2 -15 2 -3 7 2 10 11 7 17 1 20 -8 4z"/>
<path d="M6873 2195 c0 -8 4 -12 9 -9 5 3 6 10 3 15 -9 13 -12 11 -12 -6z"/>
<path d="M11755 2200 c-3 -5 -1 -10 4 -10 6 0 11 5 11 10 0 6 -2 10 -4 10 -3
0 -8 -4 -11 -10z"/>
<path d="M1295 2180 c3 -5 8 -10 11 -10 2 0 4 5 4 10 0 6 -5 10 -11 10 -5 0
-7 -4 -4 -10z"/>
<path d="M1335 2180 c3 -5 8 -10 11 -10 2 0 4 5 4 10 0 6 -5 10 -11 10 -5 0
-7 -4 -4 -10z"/>
<path d="M2235 2171 c-3 -5 -2 -12 3 -15 5 -3 9 1 9 9 0 17 -3 19 -12 6z"/>
<path d="M1440 2166 c0 -2 8 -10 18 -17 15 -13 16 -12 3 4 -13 16 -21 21 -21
13z"/>
<path d="M2134 2156 c1 -8 5 -18 8 -22 4 -3 5 1 4 10 -1 8 -5 18 -8 22 -4 3
-5 -1 -4 -10z"/>
<path d="M7034 2146 c1 -8 5 -18 8 -22 4 -3 5 1 4 10 -1 8 -5 18 -8 22 -4 3
-5 -1 -4 -10z"/>
<path d="M1335 2140 c-3 -5 -1 -10 4 -10 6 0 11 5 11 10 0 6 -2 10 -4 10 -3 0
-8 -4 -11 -10z"/>
<path d="M6850 2140 c0 -5 5 -10 11 -10 5 0 7 5 4 10 -3 6 -8 10 -11 10 -2 0
-4 -4 -4 -10z"/>
<path d="M7320 2140 c-9 -6 -10 -10 -3 -10 6 0 15 5 18 10 8 12 4 12 -15 0z"/>
<path d="M7387 2139 c7 -7 15 -10 18 -7 3 3 -2 9 -12 12 -14 6 -15 5 -6 -5z"/>
<path d="M7557 2128 c19 -21 31 -25 14 -5 -6 8 -9 16 -6 19 3 2 -2 5 -10 5
-13 0 -13 -3 2 -19z"/>
<path d="M8118 2143 c7 -3 16 -2 19 1 4 3 -2 6 -13 5 -11 0 -14 -3 -6 -6z"/>
<path d="M8220 2140 c-9 -6 -10 -10 -3 -10 6 0 15 5 18 10 8 12 4 12 -15 0z"/>
<path d="M8279 2133 c-13 -16 -12 -17 4 -4 16 13 21 21 13 21 -2 0 -10 -8 -17
-17z"/>
<path d="M8347 2139 c7 -7 15 -10 18 -7 3 3 -2 9 -12 12 -14 6 -15 5 -6 -5z"/>
<path d="M8517 2128 c19 -21 31 -25 14 -5 -6 8 -9 16 -6 19 3 2 -2 5 -10 5
-13 0 -13 -3 2 -19z"/>
<path d="M9078 2143 c7 -3 16 -2 19 1 4 3 -2 6 -13 5 -11 0 -14 -3 -6 -6z"/>
<path d="M9180 2140 c-9 -6 -10 -10 -3 -10 6 0 15 5 18 10 8 12 4 12 -15 0z"/>
<path d="M9239 2133 c-13 -16 -12 -17 4 -4 16 13 21 21 13 21 -2 0 -10 -8 -17
-17z"/>
<path d="M9307 2139 c7 -7 15 -10 18 -7 3 3 -2 9 -12 12 -14 6 -15 5 -6 -5z"/>
<path d="M9477 2128 c19 -21 31 -25 14 -5 -6 8 -9 16 -6 19 3 2 -2 5 -10 5
-13 0 -13 -3 2 -19z"/>
<path d="M10038 2143 c7 -3 16 -2 19 1 4 3 -2 6 -13 5 -11 0 -14 -3 -6 -6z"/>
<path d="M10140 2140 c-9 -6 -10 -10 -3 -10 6 0 15 5 18 10 8 12 4 12 -15 0z"/>
<path d="M10199 2133 c-13 -16 -12 -17 4 -4 16 13 21 21 13 21 -2 0 -10 -8
-17 -17z"/>
<path d="M10267 2139 c7 -7 15 -10 18 -7 3 3 -2 9 -12 12 -14 6 -15 5 -6 -5z"/>
<path d="M10437 2128 c19 -21 31 -25 14 -5 -6 8 -9 16 -6 19 3 2 -2 5 -10 5
-13 0 -13 -3 2 -19z"/>
<path d="M10998 2143 c7 -3 16 -2 19 1 4 3 -2 6 -13 5 -11 0 -14 -3 -6 -6z"/>
<path d="M11100 2140 c-9 -6 -10 -10 -3 -10 6 0 15 5 18 10 8 12 4 12 -15 0z"/>
<path d="M11159 2133 c-13 -16 -12 -17 4 -4 16 13 21 21 13 21 -2 0 -10 -8
-17 -17z"/>
<path d="M11388 2143 c7 -3 16 -2 19 1 4 3 -2 6 -13 5 -11 0 -14 -3 -6 -6z"/>
<path d="M11420 2146 c0 -2 7 -7 16 -10 8 -3 12 -2 9 4 -6 10 -25 14 -25 6z"/>
<path d="M11754 2142 c4 -3 14 -7 22 -8 9 -1 13 0 10 4 -4 3 -14 7 -22 8 -9 1
-13 0 -10 -4z"/>
<path d="M7253 2125 c0 -8 4 -15 9 -15 4 0 8 4 8 9 0 6 -4 12 -8 15 -5 3 -9
-1 -9 -9z"/>
<path d="M7457 2133 c-10 -9 -9 -23 1 -23 5 0 9 7 9 15 0 17 -1 18 -10 8z"/>
<path d="M7610 2136 c0 -2 8 -10 18 -17 15 -13 16 -12 3 4 -13 16 -21 21 -21
13z"/>
<path d="M8049 2123 c-13 -16 -12 -17 4 -4 16 13 21 21 13 21 -2 0 -10 -8 -17
-17z"/>
<path d="M8417 2133 c-10 -9 -9 -23 1 -23 5 0 9 7 9 15 0 17 -1 18 -10 8z"/>
<path d="M8570 2136 c0 -2 8 -10 18 -17 15 -13 16 -12 3 4 -13 16 -21 21 -21
13z"/>
<path d="M9009 2123 c-13 -16 -12 -17 4 -4 16 13 21 21 13 21 -2 0 -10 -8 -17
-17z"/>
<path d="M9377 2133 c-10 -9 -9 -23 1 -23 5 0 9 7 9 15 0 17 -1 18 -10 8z"/>
<path d="M9530 2136 c0 -2 8 -10 18 -17 15 -13 16 -12 3 4 -13 16 -21 21 -21
13z"/>
<path d="M9969 2123 c-13 -16 -12 -17 4 -4 16 13 21 21 13 21 -2 0 -10 -8 -17
-17z"/>
<path d="M10337 2133 c-10 -9 -9 -23 1 -23 5 0 9 7 9 15 0 17 -1 18 -10 8z"/>
<path d="M10490 2136 c0 -2 8 -10 18 -17 15 -13 16 -12 3 4 -13 16 -21 21 -21
13z"/>
<path d="M10929 2123 c-13 -16 -12 -17 4 -4 16 13 21 21 13 21 -2 0 -10 -8
-17 -17z"/>
<path d="M6980 2126 c0 -2 8 -10 18 -17 15 -13 16 -12 3 4 -13 16 -21 21 -21
13z"/>
<path d="M7504 2122 c4 -3 14 -7 22 -8 9 -1 13 0 10 4 -4 3 -14 7 -22 8 -9 1
-13 0 -10 -4z"/>
<path d="M8464 2122 c4 -3 14 -7 22 -8 9 -1 13 0 10 4 -4 3 -14 7 -22 8 -9 1
-13 0 -10 -4z"/>
<path d="M9424 2122 c4 -3 14 -7 22 -8 9 -1 13 0 10 4 -4 3 -14 7 -22 8 -9 1
-13 0 -10 -4z"/>
<path d="M10384 2122 c4 -3 14 -7 22 -8 9 -1 13 0 10 4 -4 3 -14 7 -22 8 -9 1
-13 0 -10 -4z"/>
<path d="M11499 2113 c-13 -17 -13 -17 6 -3 11 8 22 16 24 17 2 2 0 3 -6 3 -6
0 -17 -8 -24 -17z"/>
<path d="M11575 2120 c-5 -8 42 -7 49 1 3 3 -6 5 -20 5 -14 0 -27 -3 -29 -6z"/>
<path d="M7199 2118 c-5 -18 -6 -38 -1 -34 7 8 12 36 6 36 -2 0 -4 -1 -5 -2z"/>
<path d="M7596 2107 c3 -10 9 -15 12 -12 3 3 0 11 -7 18 -10 9 -11 8 -5 -6z"/>
<path d="M8075 2109 c-4 -6 -5 -12 -2 -15 2 -3 7 2 10 11 7 17 1 20 -8 4z"/>
<path d="M8556 2107 c3 -10 9 -15 12 -12 3 3 0 11 -7 18 -10 9 -11 8 -5 -6z"/>
<path d="M9035 2109 c-4 -6 -5 -12 -2 -15 2 -3 7 2 10 11 7 17 1 20 -8 4z"/>
<path d="M9516 2107 c3 -10 9 -15 12 -12 3 3 0 11 -7 18 -10 9 -11 8 -5 -6z"/>
<path d="M9995 2109 c-4 -6 -5 -12 -2 -15 2 -3 7 2 10 11 7 17 1 20 -8 4z"/>
<path d="M10476 2107 c3 -10 9 -15 12 -12 3 3 0 11 -7 18 -10 9 -11 8 -5 -6z"/>
<path d="M10955 2109 c-4 -6 -5 -12 -2 -15 2 -3 7 2 10 11 7 17 1 20 -8 4z"/>
<path d="M11310 2116 c0 -2 8 -10 18 -17 15 -13 16 -12 3 4 -13 16 -21 21 -21
13z"/>
<path d="M11436 2107 c3 -10 9 -15 12 -12 3 3 0 11 -7 18 -10 9 -11 8 -5 -6z"/>
<path d="M2135 2101 c-3 -5 -2 -12 3 -15 5 -3 9 1 9 9 0 17 -3 19 -12 6z"/>
<path d="M6896 2098 c3 -5 10 -6 15 -3 13 9 11 12 -6 12 -8 0 -12 -4 -9 -9z"/>
<path d="M8239 2093 c-13 -16 -12 -17 4 -4 16 13 21 21 13 21 -2 0 -10 -8 -17
-17z"/>
<path d="M9199 2093 c-13 -16 -12 -17 4 -4 16 13 21 21 13 21 -2 0 -10 -8 -17
-17z"/>
<path d="M10159 2093 c-13 -16 -12 -17 4 -4 16 13 21 21 13 21 -2 0 -10 -8
-17 -17z"/>
<path d="M11119 2093 c-13 -16 -12 -17 4 -4 9 7 17 15 17 17 0 8 -8 3 -21 -13z"/>
<path d="M11239 2093 c-13 -16 -12 -17 4 -4 9 7 17 15 17 17 0 8 -8 3 -21 -13z"/>
<path d="M7537 2093 c-10 -9 -9 -23 1 -23 5 0 9 7 9 15 0 17 -1 18 -10 8z"/>
<path d="M7811 2087 c-8 -10 -7 -14 2 -14 8 0 14 6 14 14 0 7 -1 13 -2 13 -2
0 -8 -6 -14 -13z"/>
<path d="M7853 2087 c0 -8 6 -14 14 -14 9 0 10 4 2 14 -6 7 -12 13 -14 13 -1
0 -2 -6 -2 -13z"/>
<path d="M8133 2085 c0 -8 4 -15 9 -15 4 0 8 4 8 9 0 6 -4 12 -8 15 -5 3 -9
-1 -9 -9z"/>
<path d="M8497 2093 c-10 -9 -9 -23 1 -23 5 0 9 7 9 15 0 17 -1 18 -10 8z"/>
<path d="M8771 2087 c-8 -10 -7 -14 2 -14 8 0 14 6 14 14 0 7 -1 13 -2 13 -2
0 -8 -6 -14 -13z"/>
<path d="M8813 2087 c0 -8 6 -14 14 -14 9 0 10 4 2 14 -6 7 -12 13 -14 13 -1
0 -2 -6 -2 -13z"/>
<path d="M9093 2085 c0 -8 4 -15 9 -15 4 0 8 4 8 9 0 6 -4 12 -8 15 -5 3 -9
-1 -9 -9z"/>
<path d="M9457 2093 c-10 -9 -9 -23 1 -23 5 0 9 7 9 15 0 17 -1 18 -10 8z"/>
<path d="M9731 2087 c-8 -10 -7 -14 2 -14 8 0 14 6 14 14 0 7 -1 13 -2 13 -2
0 -8 -6 -14 -13z"/>
<path d="M9773 2087 c0 -8 6 -14 14 -14 9 0 10 4 2 14 -6 7 -12 13 -14 13 -1
0 -2 -6 -2 -13z"/>
<path d="M10053 2085 c0 -8 4 -15 9 -15 4 0 8 4 8 9 0 6 -4 12 -8 15 -5 3 -9
-1 -9 -9z"/>
<path d="M10417 2093 c-10 -9 -9 -23 1 -23 5 0 9 7 9 15 0 17 -1 18 -10 8z"/>
<path d="M10691 2087 c-8 -10 -7 -14 2 -14 8 0 14 6 14 14 0 7 -1 13 -2 13 -2
0 -8 -6 -14 -13z"/>
<path d="M10733 2087 c0 -8 6 -14 14 -14 9 0 10 4 2 14 -6 7 -12 13 -14 13 -1
0 -2 -6 -2 -13z"/>
<path d="M11013 2085 c0 -8 4 -15 9 -15 4 0 8 4 8 9 0 6 -4 12 -8 15 -5 3 -9
-1 -9 -9z"/>
<path d="M6816 2078 c3 -5 10 -6 15 -3 13 9 11 12 -6 12 -8 0 -12 -4 -9 -9z"/>
<path d="M7110 2080 c0 -5 5 -10 11 -10 5 0 7 5 4 10 -3 6 -8 10 -11 10 -2 0
-4 -4 -4 -10z"/>
<path d="M7335 2081 c-3 -5 -2 -12 3 -15 5 -3 9 1 9 9 0 17 -3 19 -12 6z"/>
<path d="M7373 2075 c0 -8 4 -12 9 -9 5 3 6 10 3 15 -9 13 -12 11 -12 -6z"/>
<path d="M7407 2079 c7 -7 15 -10 18 -7 3 3 -2 9 -12 12 -14 6 -15 5 -6 -5z"/>
<path d="M8280 2085 c0 -2 6 -8 13 -14 10 -8 14 -7 14 2 0 8 -6 14 -14 14 -7
0 -13 -1 -13 -2z"/>
<path d="M8333 2075 c0 -8 4 -12 9 -9 5 3 6 10 3 15 -9 13 -12 11 -12 -6z"/>
<path d="M8367 2079 c7 -7 15 -10 18 -7 3 3 -2 9 -12 12 -14 6 -15 5 -6 -5z"/>
<path d="M9240 2085 c0 -2 6 -8 13 -14 10 -8 14 -7 14 2 0 8 -6 14 -14 14 -7
0 -13 -1 -13 -2z"/>
<path d="M9293 2075 c0 -8 4 -12 9 -9 5 3 6 10 3 15 -9 13 -12 11 -12 -6z"/>
<path d="M9327 2079 c7 -7 15 -10 18 -7 3 3 -2 9 -12 12 -14 6 -15 5 -6 -5z"/>
<path d="M10200 2085 c0 -2 6 -8 13 -14 10 -8 14 -7 14 2 0 8 -6 14 -14 14 -7
0 -13 -1 -13 -2z"/>
<path d="M10253 2075 c0 -8 4 -12 9 -9 5 3 6 10 3 15 -9 13 -12 11 -12 -6z"/>
<path d="M10287 2079 c7 -7 15 -10 18 -7 3 3 -2 9 -12 12 -14 6 -15 5 -6 -5z"/>
<path d="M11160 2085 c0 -2 6 -8 13 -14 10 -8 14 -7 14 2 0 8 -6 14 -14 14 -7
0 -13 -1 -13 -2z"/>
<path d="M11496 2082 c-3 -5 1 -9 9 -9 8 0 12 4 9 9 -3 4 -7 8 -9 8 -2 0 -6
-4 -9 -8z"/>
<path d="M11733 2071 c0 -11 5 -18 9 -15 4 3 5 11 1 19 -7 21 -12 19 -10 -4z"/>
<path d="M11273 2065 c0 -8 4 -12 9 -9 5 3 6 10 3 15 -9 13 -12 11 -12 -6z"/>
<path d="M1374 2062 c4 -3 14 -7 22 -8 9 -1 13 0 10 4 -4 3 -14 7 -22 8 -9 1
-13 0 -10 -4z"/>
<path d="M1510 2066 c0 -2 7 -7 16 -10 8 -3 12 -2 9 4 -6 10 -25 14 -25 6z"/>
<path d="M1555 2060 c3 -5 8 -10 11 -10 2 0 4 5 4 10 0 6 -5 10 -11 10 -5 0
-7 -4 -4 -10z"/>
<path d="M2030 2065 c0 -7 30 -13 34 -7 3 4 -4 9 -15 9 -10 1 -19 0 -19 -2z"/>
<path d="M2095 2060 c3 -5 8 -10 11 -10 2 0 4 5 4 10 0 6 -5 10 -11 10 -5 0
-7 -4 -4 -10z"/>
<path d="M6896 2062 c-3 -5 1 -9 9 -9 8 0 12 4 9 9 -3 4 -7 8 -9 8 -2 0 -6 -4
-9 -8z"/>
<path d="M6935 2060 c3 -5 8 -10 11 -10 2 0 4 5 4 10 0 6 -5 10 -11 10 -5 0
-7 -4 -4 -10z"/>
<path d="M7150 2066 c0 -2 7 -7 16 -10 8 -3 12 -2 9 4 -6 10 -25 14 -25 6z"/>
<path d="M7680 2060 c-9 -6 -10 -10 -3 -10 6 0 15 5 18 10 8 12 4 12 -15 0z"/>
<path d="M7987 2059 c7 -7 15 -10 18 -7 3 3 -2 9 -12 12 -14 6 -15 5 -6 -5z"/>
<path d="M8640 2060 c-9 -6 -10 -10 -3 -10 6 0 15 5 18 10 8 12 4 12 -15 0z"/>
<path d="M8947 2059 c7 -7 15 -10 18 -7 3 3 -2 9 -12 12 -14 6 -15 5 -6 -5z"/>
<path d="M9600 2060 c-9 -6 -10 -10 -3 -10 6 0 15 5 18 10 8 12 4 12 -15 0z"/>
<path d="M9907 2059 c7 -7 15 -10 18 -7 3 3 -2 9 -12 12 -14 6 -15 5 -6 -5z"/>
<path d="M10560 2060 c-9 -6 -10 -10 -3 -10 6 0 15 5 18 10 8 12 4 12 -15 0z"/>
<path d="M10867 2059 c7 -7 15 -10 18 -7 3 3 -2 9 -12 12 -14 6 -15 5 -6 -5z"/>
<path d="M1673 2046 c0 -15 22 -15 34 0 4 5 4 6 -1 2 -5 -4 -14 -3 -21 2 -8 7
-12 5 -12 -4z"/>
<path d="M7713 2045 c0 -8 4 -12 9 -9 5 3 6 10 3 15 -9 13 -12 11 -12 -6z"/>
<path d="M7955 2051 c-3 -5 -2 -12 3 -15 5 -3 9 1 9 9 0 17 -3 19 -12 6z"/>
<path d="M8673 2045 c0 -8 4 -12 9 -9 5 3 6 10 3 15 -9 13 -12 11 -12 -6z"/>
<path d="M8915 2051 c-3 -5 -2 -12 3 -15 5 -3 9 1 9 9 0 17 -3 19 -12 6z"/>
<path d="M9633 2045 c0 -8 4 -12 9 -9 5 3 6 10 3 15 -9 13 -12 11 -12 -6z"/>
<path d="M9875 2051 c-3 -5 -2 -12 3 -15 5 -3 9 1 9 9 0 17 -3 19 -12 6z"/>
<path d="M10593 2045 c0 -8 4 -12 9 -9 5 3 6 10 3 15 -9 13 -12 11 -12 -6z"/>
<path d="M10835 2051 c-3 -5 -2 -12 3 -15 5 -3 9 1 9 9 0 17 -3 19 -12 6z"/>
<path d="M1746 2042 c-3 -5 1 -9 9 -9 8 0 12 4 9 9 -3 4 -7 8 -9 8 -2 0 -6 -4
-9 -8z"/>
<path d="M1784 2042 c4 -3 14 -7 22 -8 9 -1 13 0 10 4 -4 3 -14 7 -22 8 -9 1
-13 0 -10 -4z"/>
<path d="M1959 2033 c-13 -16 -12 -17 4 -4 9 7 17 15 17 17 0 8 -8 3 -21 -13z"/>
<path d="M6800 2040 c-9 -6 -10 -10 -3 -10 6 0 15 5 18 10 8 12 4 12 -15 0z"/>
<path d="M7256 2038 c3 -5 10 -6 15 -3 13 9 11 12 -6 12 -8 0 -12 -4 -9 -9z"/>
<path d="M7386 2038 c3 -5 10 -6 15 -3 13 9 11 12 -6 12 -8 0 -12 -4 -9 -9z"/>
<path d="M7556 2038 c3 -5 10 -6 15 -3 13 9 11 12 -6 12 -8 0 -12 -4 -9 -9z"/>
<path d="M7596 2042 c-3 -5 1 -9 9 -9 8 0 12 4 9 9 -3 4 -7 8 -9 8 -2 0 -6 -4
-9 -8z"/>
<path d="M7736 2033 c-6 -14 -5 -15 5 -6 7 7 10 15 7 18 -3 3 -9 -2 -12 -12z"/>
<path d="M8066 2042 c-3 -5 1 -9 9 -9 8 0 12 4 9 9 -3 4 -7 8 -9 8 -2 0 -6 -4
-9 -8z"/>
<path d="M8106 2038 c3 -5 10 -6 15 -3 13 9 11 12 -6 12 -8 0 -12 -4 -9 -9z"/>
<path d="M8276 2038 c3 -5 10 -6 15 -3 13 9 11 12 -6 12 -8 0 -12 -4 -9 -9z"/>
<path d="M8346 2038 c3 -5 10 -6 15 -3 13 9 11 12 -6 12 -8 0 -12 -4 -9 -9z"/>
<path d="M8516 2038 c3 -5 10 -6 15 -3 13 9 11 12 -6 12 -8 0 -12 -4 -9 -9z"/>
<path d="M8556 2042 c-3 -5 1 -9 9 -9 8 0 12 4 9 9 -3 4 -7 8 -9 8 -2 0 -6 -4
-9 -8z"/>
<path d="M8696 2033 c-6 -14 -5 -15 5 -6 7 7 10 15 7 18 -3 3 -9 -2 -12 -12z"/>
<path d="M9026 2042 c-3 -5 1 -9 9 -9 8 0 12 4 9 9 -3 4 -7 8 -9 8 -2 0 -6 -4
-9 -8z"/>
<path d="M9066 2038 c3 -5 10 -6 15 -3 13 9 11 12 -6 12 -8 0 -12 -4 -9 -9z"/>
<path d="M9236 2038 c3 -5 10 -6 15 -3 13 9 11 12 -6 12 -8 0 -12 -4 -9 -9z"/>
<path d="M9306 2038 c3 -5 10 -6 15 -3 13 9 11 12 -6 12 -8 0 -12 -4 -9 -9z"/>
<path d="M9476 2038 c3 -5 10 -6 15 -3 13 9 11 12 -6 12 -8 0 -12 -4 -9 -9z"/>
<path d="M9516 2042 c-3 -5 1 -9 9 -9 8 0 12 4 9 9 -3 4 -7 8 -9 8 -2 0 -6 -4
-9 -8z"/>
<path d="M9656 2033 c-6 -14 -5 -15 5 -6 7 7 10 15 7 18 -3 3 -9 -2 -12 -12z"/>
<path d="M9986 2042 c-3 -5 1 -9 9 -9 8 0 12 4 9 9 -3 4 -7 8 -9 8 -2 0 -6 -4
-9 -8z"/>
<path d="M10026 2038 c3 -5 10 -6 15 -3 13 9 11 12 -6 12 -8 0 -12 -4 -9 -9z"/>
<path d="M10196 2038 c3 -5 10 -6 15 -3 13 9 11 12 -6 12 -8 0 -12 -4 -9 -9z"/>
<path d="M10266 2038 c3 -5 10 -6 15 -3 13 9 11 12 -6 12 -8 0 -12 -4 -9 -9z"/>
<path d="M10436 2038 c3 -5 10 -6 15 -3 13 9 11 12 -6 12 -8 0 -12 -4 -9 -9z"/>
<path d="M10476 2042 c-3 -5 1 -9 9 -9 8 0 12 4 9 9 -3 4 -7 8 -9 8 -2 0 -6
-4 -9 -8z"/>
<path d="M10616 2033 c-6 -14 -5 -15 5 -6 7 7 10 15 7 18 -3 3 -9 -2 -12 -12z"/>
<path d="M10946 2042 c-3 -5 1 -9 9 -9 8 0 12 4 9 9 -3 4 -7 8 -9 8 -2 0 -6
-4 -9 -8z"/>
<path d="M10986 2038 c3 -5 10 -6 15 -3 13 9 11 12 -6 12 -8 0 -12 -4 -9 -9z"/>
<path d="M11156 2038 c3 -5 10 -6 15 -3 13 9 11 12 -6 12 -8 0 -12 -4 -9 -9z"/>
<path d="M11336 2041 c8 -8 43 -8 38 0 -2 4 -13 7 -24 6 -10 -1 -17 -3 -14 -6z"/>
<path d="M11460 2046 c0 -2 8 -10 18 -17 15 -13 16 -12 3 4 -13 16 -21 21 -21
13z"/>
<path d="M11496 2038 c3 -5 10 -6 15 -3 13 9 11 12 -6 12 -8 0 -12 -4 -9 -9z"/>
<path d="M11533 2031 c0 -11 5 -18 9 -15 4 3 5 11 1 19 -7 21 -12 19 -10 -4z"/>
<path d="M6935 2021 c-3 -5 -2 -12 3 -15 5 -3 9 1 9 9 0 17 -3 19 -12 6z"/>
<path d="M11615 2020 c-3 -5 -1 -10 4 -10 6 0 11 5 11 10 0 6 -2 10 -4 10 -3
0 -8 -4 -11 -10z"/>
<path d="M11646 2018 c3 -5 10 -6 15 -3 13 9 11 12 -6 12 -8 0 -12 -4 -9 -9z"/>
<path d="M1575 2009 c-4 -6 -5 -12 -2 -15 2 -3 7 2 10 11 7 17 1 20 -8 4z"/>
<path d="M1691 2007 c-8 -10 -7 -14 2 -14 8 0 14 6 14 14 0 7 -1 13 -2 13 -2
0 -8 -6 -14 -13z"/>
<path d="M1734 2006 c1 -8 5 -18 8 -22 4 -3 5 1 4 10 -1 8 -5 18 -8 22 -4 3
-5 -1 -4 -10z"/>
<path d="M7391 2007 c-8 -10 -7 -14 2 -14 8 0 14 6 14 14 0 7 -1 13 -2 13 -2
0 -8 -6 -14 -13z"/>
<path d="M11156 2007 c3 -10 9 -15 12 -12 3 3 0 11 -7 18 -10 9 -11 8 -5 -6z"/>
<path d="M11195 2009 c-4 -6 -5 -12 -2 -15 2 -3 7 2 10 11 7 17 1 20 -8 4z"/>
<path d="M1650 1999 c0 -5 5 -7 10 -4 6 3 10 8 10 11 0 2 -4 4 -10 4 -5 0 -10
-5 -10 -11z"/>
<path d="M1996 2002 c-3 -5 1 -9 9 -9 8 0 12 4 9 9 -3 4 -7 8 -9 8 -2 0 -6 -4
-9 -8z"/>
<path d="M7350 1999 c0 -5 5 -7 10 -4 6 3 10 8 10 11 0 2 -4 4 -10 4 -5 0 -10
-5 -10 -11z"/>
<path d="M7740 2006 c0 -2 8 -10 18 -17 15 -13 16 -12 3 4 -13 16 -21 21 -21
13z"/>
<path d="M8306 2002 c-2 -4 4 -8 14 -8 10 0 16 4 14 8 -3 4 -9 8 -14 8 -5 0
-11 -4 -14 -8z"/>
<path d="M8736 1998 c3 -5 10 -6 15 -3 13 9 11 12 -6 12 -8 0 -12 -4 -9 -9z"/>
<path d="M10225 2000 c-3 -6 1 -7 9 -4 18 7 21 14 7 14 -6 0 -13 -4 -16 -10z"/>
<path d="M10780 2006 c0 -2 8 -10 18 -17 15 -13 16 -12 3 4 -13 16 -21 21 -21
13z"/>
<path d="M1455 1991 c-3 -5 -2 -12 3 -15 5 -3 9 1 9 9 0 17 -3 19 -12 6z"/>
<path d="M11573 1985 c0 -8 4 -12 9 -9 5 3 6 10 3 15 -9 13 -12 11 -12 -6z"/>
<path d="M1825 1980 c-3 -6 1 -7 9 -4 18 7 21 14 7 14 -6 0 -13 -4 -16 -10z"/>
<path d="M7055 1980 c3 -5 8 -10 11 -10 2 0 4 5 4 10 0 6 -5 10 -11 10 -5 0
-7 -4 -4 -10z"/>
<path d="M11450 1979 c0 -5 5 -7 10 -4 6 3 10 8 10 11 0 2 -4 4 -10 4 -5 0
-10 -5 -10 -11z"/>
<path d="M11606 1982 c-3 -5 1 -9 9 -9 8 0 12 4 9 9 -3 4 -7 8 -9 8 -2 0 -6
-4 -9 -8z"/>
<path d="M7270 1976 c0 -2 8 -10 18 -17 15 -13 16 -12 3 4 -13 16 -21 21 -21
13z"/>
<path d="M7315 1971 c-3 -5 -2 -12 3 -15 5 -3 9 1 9 9 0 17 -3 19 -12 6z"/>
<path d="M7393 1965 c0 -8 4 -12 9 -9 5 3 6 10 3 15 -9 13 -12 11 -12 -6z"/>
<path d="M7713 1965 c0 -8 4 -12 9 -9 5 3 6 10 3 15 -9 13 -12 11 -12 -6z"/>
<path d="M8516 1967 c3 -10 9 -15 12 -12 3 3 0 11 -7 18 -10 9 -11 8 -5 -6z"/>
<path d="M8555 1969 c-4 -6 -5 -12 -2 -15 2 -3 7 2 10 11 7 17 1 20 -8 4z"/>
<path d="M8593 1965 c0 -8 4 -12 9 -9 5 3 6 10 3 15 -9 13 -12 11 -12 -6z"/>
<path d="M8955 1969 c-4 -6 -5 -12 -2 -15 2 -3 7 2 10 11 7 17 1 20 -8 4z"/>
<path d="M9033 1965 c0 -8 4 -12 9 -9 5 3 6 10 3 15 -9 13 -12 11 -12 -6z"/>
<path d="M9716 1967 c3 -10 9 -15 12 -12 3 3 0 11 -7 18 -10 9 -11 8 -5 -6z"/>
<path d="M9755 1969 c-4 -6 -5 -12 -2 -15 2 -3 7 2 10 11 7 17 1 20 -8 4z"/>
<path d="M9793 1965 c0 -8 4 -12 9 -9 5 3 6 10 3 15 -9 13 -12 11 -12 -6z"/>
<path d="M10356 1967 c3 -10 9 -15 12 -12 3 3 0 11 -7 18 -10 9 -11 8 -5 -6z"/>
<path d="M10395 1969 c-4 -6 -5 -12 -2 -15 2 -3 7 2 10 11 7 17 1 20 -8 4z"/>
<path d="M10433 1965 c0 -8 4 -12 9 -9 5 3 6 10 3 15 -9 13 -12 11 -12 -6z"/>
<path d="M11076 1967 c3 -10 9 -15 12 -12 3 3 0 11 -7 18 -10 9 -11 8 -5 -6z"/>
<path d="M11115 1969 c-4 -6 -5 -12 -2 -15 2 -3 7 2 10 11 7 17 1 20 -8 4z"/>
<path d="M11153 1965 c0 -8 4 -12 9 -9 5 3 6 10 3 15 -9 13 -12 11 -12 -6z"/>
<path d="M1710 1961 c0 -6 4 -13 10 -16 6 -3 7 1 4 9 -7 18 -14 21 -14 7z"/>
<path d="M1910 1966 c0 -2 7 -7 16 -10 8 -3 12 -2 9 4 -6 10 -25 14 -25 6z"/>
<path d="M7230 1959 c0 -5 5 -7 10 -4 6 3 10 8 10 11 0 2 -4 4 -10 4 -5 0 -10
-5 -10 -11z"/>
<path d="M7853 1951 c0 -11 5 -18 9 -15 4 3 5 11 1 19 -7 21 -12 19 -10 -4z"/>
<path d="M7897 1955 c-4 -8 -3 -16 1 -19 4 -3 9 4 9 15 2 23 -3 25 -10 4z"/>
<path d="M8230 1958 c0 -4 4 -8 9 -8 6 0 12 4 15 8 3 5 -1 9 -9 9 -8 0 -15 -4
-15 -9z"/>
<path d="M9075 1960 c3 -5 8 -10 11 -10 2 0 4 5 4 10 0 6 -5 10 -11 10 -5 0
-7 -4 -4 -10z"/>
<path d="M9115 1960 c3 -5 8 -10 11 -10 2 0 4 5 4 10 0 6 -5 10 -11 10 -5 0
-7 -4 -4 -10z"/>
<path d="M9430 1958 c0 -4 4 -8 9 -8 6 0 12 4 15 8 3 5 -1 9 -9 9 -8 0 -15 -4
-15 -9z"/>
<path d="M10150 1958 c0 -4 4 -8 9 -8 6 0 12 4 15 8 3 5 -1 9 -9 9 -8 0 -15
-4 -15 -9z"/>
<path d="M10790 1958 c0 -4 4 -8 9 -8 6 0 12 4 15 8 3 5 -1 9 -9 9 -8 0 -15
-4 -15 -9z"/>
<path d="M8133 1945 c0 -8 4 -12 9 -9 5 3 6 10 3 15 -9 13 -12 11 -12 -6z"/>
<path d="M8335 1951 c-3 -5 -2 -12 3 -15 5 -3 9 1 9 9 0 17 -3 19 -12 6z"/>
<path d="M9333 1945 c0 -8 4 -12 9 -9 5 3 6 10 3 15 -9 13 -12 11 -12 -6z"/>
<path d="M9535 1951 c-3 -5 -2 -12 3 -15 5 -3 9 1 9 9 0 17 -3 19 -12 6z"/>
<path d="M10053 1945 c0 -8 4 -12 9 -9 5 3 6 10 3 15 -9 13 -12 11 -12 -6z"/>
<path d="M10693 1945 c0 -8 4 -12 9 -9 5 3 6 10 3 15 -9 13 -12 11 -12 -6z"/>
<path d="M10895 1951 c-3 -5 -2 -12 3 -15 5 -3 9 1 9 9 0 17 -3 19 -12 6z"/>
<path d="M1955 1940 c3 -5 8 -10 11 -10 2 0 4 5 4 10 0 6 -5 10 -11 10 -5 0
-7 -4 -4 -10z"/>
<path d="M7474 1942 c4 -3 14 -7 22 -8 9 -1 13 0 10 4 -4 3 -14 7 -22 8 -9 1
-13 0 -10 -4z"/>
<path d="M7535 1940 c-3 -5 -1 -10 4 -10 6 0 11 5 11 10 0 6 -2 10 -4 10 -3 0
-8 -4 -11 -10z"/>
<path d="M7935 1940 c-3 -5 -1 -10 4 -10 6 0 11 5 11 10 0 6 -2 10 -4 10 -3 0
-8 -4 -11 -10z"/>
<path d="M8015 1940 c3 -5 8 -10 11 -10 2 0 4 5 4 10 0 6 -5 10 -11 10 -5 0
-7 -4 -4 -10z"/>
<path d="M8410 1940 c0 -5 5 -10 11 -10 5 0 7 5 4 10 -3 6 -8 10 -11 10 -2 0
-4 -4 -4 -10z"/>
<path d="M8446 1938 c3 -5 10 -6 15 -3 13 9 11 12 -6 12 -8 0 -12 -4 -9 -9z"/>
<path d="M8735 1940 c3 -5 8 -10 11 -10 2 0 4 5 4 10 0 6 -5 10 -11 10 -5 0
-7 -4 -4 -10z"/>
<path d="M9215 1940 c3 -5 8 -10 11 -10 2 0 4 5 4 10 0 6 -5 10 -11 10 -5 0
-7 -4 -4 -10z"/>
<path d="M9255 1940 c-3 -5 -1 -10 4 -10 6 0 11 5 11 10 0 6 -2 10 -4 10 -3 0
-8 -4 -11 -10z"/>
<path d="M9610 1940 c0 -5 5 -10 11 -10 5 0 7 5 4 10 -3 6 -8 10 -11 10 -2 0
-4 -4 -4 -10z"/>
<path d="M9646 1938 c3 -5 10 -6 15 -3 13 9 11 12 -6 12 -8 0 -12 -4 -9 -9z"/>
<path d="M9935 1940 c3 -5 8 -10 11 -10 2 0 4 5 4 10 0 6 -5 10 -11 10 -5 0
-7 -4 -4 -10z"/>
<path d="M10250 1940 c0 -5 5 -10 11 -10 5 0 7 5 4 10 -3 6 -8 10 -11 10 -2 0
-4 -4 -4 -10z"/>
<path d="M10286 1938 c3 -5 10 -6 15 -3 13 9 11 12 -6 12 -8 0 -12 -4 -9 -9z"/>
<path d="M10575 1940 c3 -5 8 -10 11 -10 2 0 4 5 4 10 0 6 -5 10 -11 10 -5 0
-7 -4 -4 -10z"/>
<path d="M10970 1940 c0 -5 5 -10 11 -10 5 0 7 5 4 10 -3 6 -8 10 -11 10 -2 0
-4 -4 -4 -10z"/>
<path d="M11006 1938 c3 -5 10 -6 15 -3 13 9 11 12 -6 12 -8 0 -12 -4 -9 -9z"/>
<path d="M11296 1938 c3 -5 10 -6 15 -3 13 9 11 12 -6 12 -8 0 -12 -4 -9 -9z"/>
<path d="M11335 1940 c-3 -5 -1 -10 4 -10 6 0 11 5 11 10 0 6 -2 10 -4 10 -3
0 -8 -4 -11 -10z"/>
<path d="M11415 1940 c3 -5 8 -10 11 -10 2 0 4 5 4 10 0 6 -5 10 -11 10 -5 0
-7 -4 -4 -10z"/>
<path d="M11474 1942 c4 -3 14 -7 22 -8 9 -1 13 0 10 4 -4 3 -14 7 -22 8 -9 1
-13 0 -10 -4z"/>
<path d="M8949 1923 c-13 -16 -12 -17 4 -4 16 13 21 21 13 21 -2 0 -10 -8 -17
-17z"/>
<path d="M1546 1922 c-3 -5 1 -9 9 -9 8 0 12 4 9 9 -3 4 -7 8 -9 8 -2 0 -6 -4
-9 -8z"/>
<path d="M7275 1920 c3 -5 8 -10 11 -10 2 0 4 5 4 10 0 6 -5 10 -11 10 -5 0
-7 -4 -4 -10z"/>
<path d="M8586 1922 c-2 -4 4 -8 14 -8 10 0 16 4 14 8 -3 4 -9 8 -14 8 -5 0
-11 -4 -14 -8z"/>
<path d="M8900 1920 c-9 -6 -10 -10 -3 -10 6 0 15 5 18 10 8 12 4 12 -15 0z"/>
<path d="M9066 1922 c-2 -4 4 -8 14 -8 10 0 16 4 14 8 -3 4 -9 8 -14 8 -5 0
-11 -4 -14 -8z"/>
<path d="M9375 1920 c-3 -5 -1 -10 4 -10 6 0 11 5 11 10 0 6 -2 10 -4 10 -3 0
-8 -4 -11 -10z"/>
<path d="M9490 1920 c0 -5 5 -10 11 -10 5 0 7 5 4 10 -3 6 -8 10 -11 10 -2 0
-4 -4 -4 -10z"/>
<path d="M9786 1922 c-2 -4 4 -8 14 -8 10 0 16 4 14 8 -3 4 -9 8 -14 8 -5 0
-11 -4 -14 -8z"/>
<path d="M10426 1922 c-2 -4 4 -8 14 -8 10 0 16 4 14 8 -3 4 -9 8 -14 8 -5 0
-11 -4 -14 -8z"/>
<path d="M11146 1922 c-2 -4 4 -8 14 -8 10 0 16 4 14 8 -3 4 -9 8 -14 8 -5 0
-11 -4 -14 -8z"/>
<path d="M1813 1905 c0 -8 4 -12 9 -9 5 3 6 10 3 15 -9 13 -12 11 -12 -6z"/>
<path d="M8156 1907 c3 -10 9 -15 12 -12 3 3 0 11 -7 18 -10 9 -11 8 -5 -6z"/>
<path d="M10076 1907 c3 -10 9 -15 12 -12 3 3 0 11 -7 18 -10 9 -11 8 -5 -6z"/>
<path d="M10716 1907 c3 -10 9 -15 12 -12 3 3 0 11 -7 18 -10 9 -11 8 -5 -6z"/>
<path d="M1899 1908 c-5 -18 -6 -38 -1 -34 7 8 12 36 6 36 -2 0 -4 -1 -5 -2z"/>
<path d="M7195 1900 c3 -5 8 -10 11 -10 2 0 4 5 4 10 0 6 -5 10 -11 10 -5 0
-7 -4 -4 -10z"/>
<path d="M7475 1900 c-3 -5 -1 -10 4 -10 6 0 11 5 11 10 0 6 -2 10 -4 10 -3 0
-8 -4 -11 -10z"/>
<path d="M7534 1902 c4 -3 14 -7 22 -8 9 -1 13 0 10 4 -4 3 -14 7 -22 8 -9 1
-13 0 -10 -4z"/>
<path d="M7616 1901 c-3 -5 2 -15 12 -22 15 -12 16 -12 5 2 -7 9 -10 19 -6 22
3 4 4 7 0 7 -3 0 -8 -4 -11 -9z"/>
<path d="M7670 1905 c0 -7 30 -13 34 -7 3 4 -4 9 -15 9 -10 1 -19 0 -19 -2z"/>
<path d="M8093 1895 c0 -8 4 -12 9 -9 5 3 6 10 3 15 -9 13 -12 11 -12 -6z"/>
<path d="M8296 1902 c-3 -5 1 -9 9 -9 8 0 12 4 9 9 -3 4 -7 8 -9 8 -2 0 -6 -4
-9 -8z"/>
<path d="M8375 1901 c-3 -5 -2 -12 3 -15 5 -3 9 1 9 9 0 17 -3 19 -12 6z"/>
<path d="M8696 1902 c-3 -5 1 -9 9 -9 8 0 12 4 9 9 -3 4 -7 8 -9 8 -2 0 -6 -4
-9 -8z"/>
<path d="M9293 1895 c0 -8 4 -12 9 -9 5 3 6 10 3 15 -9 13 -12 11 -12 -6z"/>
<path d="M9575 1901 c-3 -5 -2 -12 3 -15 5 -3 9 1 9 9 0 17 -3 19 -12 6z"/>
<path d="M10013 1895 c0 -8 4 -12 9 -9 5 3 6 10 3 15 -9 13 -12 11 -12 -6z"/>
<path d="M10216 1902 c-3 -5 1 -9 9 -9 8 0 12 4 9 9 -3 4 -7 8 -9 8 -2 0 -6
-4 -9 -8z"/>
<path d="M10653 1895 c0 -8 4 -12 9 -9 5 3 6 10 3 15 -9 13 -12 11 -12 -6z"/>
<path d="M10856 1902 c-3 -5 1 -9 9 -9 8 0 12 4 9 9 -3 4 -7 8 -9 8 -2 0 -6
-4 -9 -8z"/>
<path d="M10935 1901 c-3 -5 -2 -12 3 -15 5 -3 9 1 9 9 0 17 -3 19 -12 6z"/>
<path d="M11256 1902 c-3 -5 1 -9 9 -9 8 0 12 4 9 9 -3 4 -7 8 -9 8 -2 0 -6
-4 -9 -8z"/>
<path d="M8753 1885 c0 -8 4 -12 9 -9 5 3 6 10 3 15 -9 13 -12 11 -12 -6z"/>
<path d="M1554 1882 c4 -3 14 -7 22 -8 9 -1 13 0 10 4 -4 3 -14 7 -22 8 -9 1
-13 0 -10 -4z"/>
<path d="M6990 1881 c0 -6 4 -13 10 -16 6 -3 7 1 4 9 -7 18 -14 21 -14 7z"/>
<path d="M8810 1886 c0 -2 7 -7 16 -10 8 -3 12 -2 9 4 -6 10 -25 14 -25 6z"/>
<path d="M9235 1880 c3 -5 8 -10 11 -10 2 0 4 5 4 10 0 6 -5 10 -11 10 -5 0
-7 -4 -4 -10z"/>
<path d="M9630 1879 c0 -5 5 -7 10 -4 6 3 10 8 10 11 0 2 -4 4 -10 4 -5 0 -10
-5 -10 -11z"/>
<path d="M10270 1879 c0 -5 5 -7 10 -4 6 3 10 8 10 11 0 2 -4 4 -10 4 -5 0
-10 -5 -10 -11z"/>
<path d="M11310 1879 c0 -5 5 -7 10 -4 6 3 10 8 10 11 0 2 -4 4 -10 4 -5 0
-10 -5 -10 -11z"/>
<path d="M1693 1855 c0 -8 4 -12 9 -9 5 3 6 10 3 15 -9 13 -12 11 -12 -6z"/>
<path d="M7433 1765 c0 -8 4 -12 9 -9 5 3 6 10 3 15 -9 13 -12 11 -12 -6z"/>
<path d="M8555 1771 c-3 -5 -2 -12 3 -15 5 -3 9 1 9 9 0 17 -3 19 -12 6z"/>
<path d="M11115 1771 c-3 -5 -2 -12 3 -15 5 -3 9 1 9 9 0 17 -3 19 -12 6z"/>
</g>
</svg>
