<?xml version="1.0" standalone="no"?>
<!DOCTYPE svg PUBLIC "-//W3C//DTD SVG 20010904//EN"
 "http://www.w3.org/TR/2001/REC-SVG-20010904/DTD/svg10.dtd">
<svg version="1.0" xmlns="http://www.w3.org/2000/svg"
 width="952.000000pt" height="952.000000pt" viewBox="0 0 952.000000 952.000000"
 preserveAspectRatio="xMidYMid meet">
<metadata>
Created by potrace 1.14, written by Peter Selinger 2001-2017
</metadata>
<g transform="translate(0.000000,952.000000) scale(0.100000,-0.100000)"
fill="#000000" stroke="none">
<path d="M172 8811 c-56 -21 -80 -43 -112 -103 -19 -35 -20 -63 -20 -1000 0
-651 3 -975 11 -1001 15 -56 72 -105 190 -165 109 -56 350 -181 504 -262 50
-26 153 -80 230 -120 77 -40 185 -96 240 -125 55 -29 168 -87 250 -130 264
-137 320 -167 331 -176 6 -5 14 -6 17 -2 4 3 7 1 7 -5 0 -7 9 -12 19 -12 11 0
21 -3 23 -8 2 -4 50 -31 108 -61 58 -30 146 -75 195 -101 50 -26 151 -79 225
-117 162 -84 339 -176 475 -248 55 -29 161 -84 235 -122 385 -200 476 -248
514 -270 5 -3 -28 -24 -72 -47 -45 -23 -153 -78 -239 -123 -87 -45 -183 -94
-213 -110 -30 -15 -58 -32 -62 -38 -4 -5 -8 -6 -8 -1 0 5 -6 4 -13 -2 -6 -6
-75 -43 -152 -82 -77 -40 -155 -81 -172 -92 -18 -11 -33 -16 -33 -11 0 4 -4 3
-8 -2 -4 -6 -29 -22 -57 -36 -27 -14 -104 -54 -170 -88 -66 -35 -160 -84 -210
-109 -49 -26 -93 -51 -97 -57 -4 -5 -8 -6 -8 -1 0 5 -6 4 -12 -2 -12 -9 -76
-43 -403 -212 -60 -31 -157 -82 -215 -112 -145 -76 -345 -180 -470 -245 -57
-29 -109 -58 -114 -63 -6 -6 -18 -10 -27 -10 -10 0 -19 -3 -21 -7 -1 -5 -30
-21 -63 -38 -33 -16 -81 -42 -107 -57 -27 -15 -48 -25 -48 -22 0 4 -6 2 -12
-4 -7 -5 -62 -36 -123 -67 -60 -32 -162 -84 -225 -117 -138 -73 -174 -98 -192
-138 -7 -16 -16 -30 -20 -30 -4 0 -8 -439 -8 -976 0 -957 3 -1054 31 -1054 4
0 10 -8 13 -17 7 -21 63 -61 97 -70 64 -16 108 -7 206 43 54 27 100 51 103 54
3 3 39 23 80 45 41 22 98 52 125 66 80 44 176 95 235 126 30 15 57 31 60 34 6
6 37 19 46 18 4 0 10 3 13 8 3 6 49 32 101 60 52 27 118 62 145 77 28 15 88
48 135 73 47 25 108 58 135 73 47 25 93 50 300 160 44 23 83 47 86 52 3 5 9 9
13 8 8 -2 118 51 126 61 3 3 59 34 125 68 66 35 136 73 155 84 19 12 41 22 49
24 8 1 17 5 20 10 3 4 35 23 71 42 69 36 182 97 265 142 28 15 84 45 125 67
41 22 102 54 135 72 33 18 89 48 125 68 36 19 71 39 78 44 6 6 12 7 12 2 0 -5
4 -4 8 1 7 10 42 30 152 87 36 18 67 35 70 38 3 3 32 19 65 36 71 37 209 111
320 172 44 24 92 49 108 55 15 6 27 15 27 19 0 4 9 8 19 8 11 0 21 3 23 8 3 7
102 62 198 110 30 15 57 29 60 32 3 3 28 17 55 31 47 24 92 49 290 156 44 24
100 54 125 66 25 12 47 24 50 27 3 3 28 17 55 31 28 15 80 43 118 63 110 59
197 106 277 148 41 22 93 50 115 63 22 12 83 45 135 73 122 64 172 92 188 104
6 6 12 7 12 3 0 -5 8 -1 18 7 9 8 44 25 76 38 61 24 110 66 129 110 6 14 12
52 13 85 2 33 4 62 4 65 1 3 1 43 0 90 0 47 -1 92 -1 100 0 8 1 34 1 56 1 23
0 46 -1 50 -1 5 -1 14 0 19 1 6 2 156 1 335 0 179 -1 332 -1 340 1 31 1 101 0
108 -1 4 -1 12 0 17 8 44 1 619 -8 651 -14 49 -61 101 -109 121 -20 8 -38 15
-39 14 -2 0 -20 9 -40 20 -21 12 -76 42 -123 67 -47 24 -133 71 -192 103 -59
33 -111 59 -117 59 -6 0 -11 3 -11 8 0 4 -19 16 -42 26 -24 10 -45 21 -48 25
-3 3 -30 19 -60 33 -30 15 -91 47 -135 71 -44 24 -125 67 -180 97 -55 29 -116
62 -135 73 -19 11 -78 42 -130 70 -52 27 -138 74 -191 103 -54 30 -99 54 -102
54 -3 0 -32 15 -64 34 -32 18 -98 55 -148 81 -164 87 -220 117 -260 140 -22
12 -85 46 -139 75 -55 29 -113 60 -130 69 -17 10 -60 33 -96 52 -36 18 -68 38
-72 44 -5 6 -8 6 -8 0 0 -7 -3 -7 -8 0 -4 6 -43 28 -87 50 -44 22 -82 42 -85
45 -3 3 -32 20 -65 36 -33 17 -82 43 -110 59 -95 52 -170 93 -260 140 -49 26
-98 54 -107 63 -10 8 -18 12 -18 8 0 -4 -19 4 -42 17 -24 14 -68 38 -98 54
-30 17 -71 39 -91 50 -51 30 -103 57 -109 58 -3 0 -16 7 -30 15 -57 33 -148
82 -185 101 -22 11 -80 42 -130 70 -49 27 -115 62 -145 77 -30 15 -57 29 -60
32 -3 3 -30 18 -60 34 -83 43 -201 106 -235 126 -29 16 -88 48 -290 155 -120
64 -158 85 -172 97 -7 6 -13 7 -13 4 0 -4 -12 1 -27 12 -16 11 -46 28 -68 39
-85 43 -135 70 -150 83 -8 7 -15 9 -15 6 0 -4 -12 1 -27 12 -16 10 -75 43
-133 73 -58 30 -107 56 -110 59 -3 3 -34 20 -69 39 -102 52 -138 58 -209 32z"/>
<path d="M7758 8435 c-2 -2 -23 -6 -48 -9 -63 -8 -85 -13 -146 -31 -30 -9 -56
-15 -59 -15 -3 0 -18 -6 -34 -14 -16 -9 -31 -12 -35 -9 -3 4 -6 1 -6 -5 0 -7
-6 -12 -12 -12 -34 0 -278 -151 -278 -171 0 -5 -5 -9 -10 -9 -10 0 -87 -76
-144 -141 -52 -60 -185 -279 -169 -279 3 0 1 -6 -4 -12 -10 -13 -54 -139 -59
-168 -1 -8 -9 -50 -17 -93 -8 -44 -14 -90 -12 -103 1 -13 -2 -24 -6 -24 -5 0
-4 -11 1 -25 6 -15 6 -26 -1 -30 -5 -4 -6 -11 -3 -17 4 -6 8 -42 10 -82 3 -39
6 -78 8 -86 4 -18 16 -80 20 -100 2 -8 6 -22 9 -30 5 -14 30 -89 32 -100 12
-47 85 -185 128 -241 15 -20 27 -40 27 -43 0 -13 132 -151 187 -197 25 -20
123 -90 148 -106 29 -18 148 -75 160 -77 6 -1 16 -5 22 -9 12 -8 96 -34 135
-43 10 -2 28 -6 41 -9 92 -22 338 -29 412 -12 43 10 105 19 108 15 2 -1 11 3
20 11 10 7 17 11 17 8 0 -3 15 0 34 8 18 8 36 11 40 8 3 -4 6 -1 6 5 0 7 6 12
14 12 20 0 150 61 154 71 2 5 8 9 14 9 34 0 226 160 312 261 55 64 176 265
176 292 0 7 6 24 14 38 7 14 17 39 21 55 4 16 9 34 11 39 7 26 33 154 37 185
3 19 6 40 7 45 1 6 1 12 0 15 -6 15 -4 130 3 130 4 0 4 8 -1 18 -5 9 -10 33
-11 52 -1 19 -3 42 -5 50 -1 8 -6 33 -11 55 -21 113 -85 277 -143 365 -12 19
-28 44 -35 54 -6 11 -24 34 -39 51 -16 18 -28 35 -28 39 0 5 -123 128 -152
151 -46 37 -96 73 -127 92 -93 56 -270 132 -293 125 -5 -1 -8 3 -8 9 0 5 -4 8
-8 5 -5 -3 -24 -1 -43 4 -69 18 -107 22 -241 25 -75 1 -138 1 -140 0z"/>
<path d="M6578 2125 c-2 -1 -21 -5 -43 -8 -109 -15 -202 -102 -210 -197 -1
-15 -4 -31 -8 -36 -3 -6 -2 -16 3 -24 4 -7 5 -23 0 -35 -5 -12 -4 -28 0 -35 5
-8 4 -22 -1 -31 -5 -10 -5 -20 -1 -23 5 -3 6 -26 2 -50 -4 -25 -3 -51 1 -58 4
-6 3 -20 -2 -29 -5 -10 -5 -20 -1 -23 5 -3 6 -26 2 -50 -4 -25 -3 -51 1 -58 4
-6 3 -20 -2 -29 -5 -10 -5 -20 -1 -23 5 -3 6 -26 2 -50 -4 -25 -3 -51 1 -58 4
-6 3 -20 -2 -29 -5 -10 -5 -20 -1 -23 5 -3 6 -26 2 -50 -4 -25 -3 -51 1 -58 4
-6 3 -20 -2 -29 -6 -12 -5 -20 1 -24 6 -4 8 -10 6 -14 -17 -27 -3 -139 24
-189 26 -50 38 -62 89 -97 44 -30 45 -30 206 -32 89 -2 173 -3 186 -4 31 -1
1589 -1 1649 0 25 1 232 2 460 4 l415 2 40 25 c47 29 85 68 85 86 0 8 4 14 10
14 25 0 30 95 30 562 -1 452 -2 486 -20 524 -35 75 -112 132 -189 140 -34 3
-86 5 -121 4 -8 -1 -44 -1 -80 -1 -36 1 -73 1 -82 1 -10 0 -40 0 -67 1 -27 1
-53 -1 -57 -3 -5 -3 -18 -2 -29 2 -11 4 -30 4 -42 -1 -15 -6 -23 -5 -23 2 0 8
-4 8 -13 0 -8 -6 -16 -8 -19 -6 -9 9 -81 12 -103 4 -11 -3 -29 -3 -40 1 -11 4
-30 4 -42 -1 -15 -6 -23 -5 -23 2 0 8 -4 8 -13 0 -8 -6 -16 -8 -19 -6 -9 9
-82 11 -105 3 -13 -4 -25 -3 -28 3 -4 5 -11 7 -16 3 -5 -3 -34 -5 -64 -4 -30
0 -62 1 -70 0 -8 0 -21 0 -27 0 -7 -1 -42 -1 -78 -1 -36 1 -73 1 -82 1 -10 0
-40 0 -67 1 -27 1 -53 -1 -57 -3 -5 -3 -18 -2 -29 2 -11 4 -30 4 -42 -1 -15
-6 -23 -5 -23 2 0 8 -4 8 -13 0 -8 -6 -16 -8 -19 -6 -9 9 -81 12 -103 4 -11
-3 -29 -3 -40 1 -11 4 -30 4 -42 -1 -15 -6 -23 -5 -23 2 0 8 -4 8 -13 0 -8 -6
-16 -8 -19 -6 -9 9 -82 11 -105 3 -13 -4 -25 -3 -28 3 -4 5 -11 7 -16 3 -5 -3
-34 -5 -64 -4 -30 0 -62 1 -70 0 -8 0 -21 0 -27 0 -7 -1 -42 -1 -78 -1 -36 1
-73 1 -82 1 -10 0 -40 0 -67 1 -27 1 -53 -1 -57 -3 -5 -3 -18 -2 -29 2 -11 4
-30 4 -42 -1 -15 -6 -23 -5 -23 2 0 8 -4 8 -13 0 -8 -6 -16 -8 -19 -6 -9 9
-81 12 -103 4 -11 -3 -29 -3 -40 1 -11 4 -30 4 -42 -1 -14 -5 -23 -4 -27 4 -3
9 -5 9 -5 0 -1 -8 -10 -9 -30 -3 -16 4 -31 7 -33 5z"/>
</g>
</svg>
